<svg xmlns="http://www.w3.org/2000/svg" xmlns:xlink="http://www.w3.org/1999/xlink" width="40" zoomAndPan="magnify" viewBox="0 0 30 30.000001" height="40" preserveAspectRatio="xMidYMid meet" version="1.0"><defs><clipPath id="id1"><path d="M 3.386719 2.902344 L 26.613281 2.902344 L 26.613281 26.128906 L 3.386719 26.128906 Z M 3.386719 2.902344 " clip-rule="nonzero"/></clipPath></defs><g clip-path="url(#id1)"><path fill="rgb(0%, 50.19989%, 21.569824%)" d="M 26.25 4.042969 L 26.203125 3.675781 C 26.175781 3.464844 26.015625 3.296875 25.804688 3.269531 C 16.792969 2.105469 10.214844 3.75 6.253906 8.15625 C 4.195312 10.441406 3.242188 13.132812 3.488281 15.921875 C 3.699219 18.269531 4.75 20.550781 6.460938 22.390625 L 3.523438 25.328125 C 3.339844 25.511719 3.339844 25.804688 3.523438 25.984375 C 3.613281 26.078125 3.730469 26.121094 3.851562 26.121094 C 3.972656 26.121094 4.089844 26.074219 4.179688 25.984375 L 7.121094 23.042969 C 8.957031 24.738281 11.222656 25.777344 13.554688 25.984375 C 13.84375 26.011719 14.136719 26.023438 14.417969 26.023438 C 16.898438 26.023438 19.273438 25.066406 21.320312 23.222656 C 23.417969 21.335938 24.851562 19.027344 25.707031 16.160156 C 26.6875 12.882812 26.867188 8.800781 26.25 4.042969 Z M 24.816406 15.898438 C 24.011719 18.59375 22.664062 20.769531 20.699219 22.535156 C 18.824219 24.21875 16.664062 25.097656 14.414062 25.097656 C 14.15625 25.097656 13.898438 25.089844 13.632812 25.066406 C 11.519531 24.875 9.457031 23.933594 7.777344 22.394531 L 11.054688 19.113281 L 19.570312 19.113281 C 19.828125 19.113281 20.035156 18.90625 20.035156 18.648438 C 20.035156 18.394531 19.828125 18.1875 19.570312 18.1875 L 11.984375 18.1875 L 16.222656 13.949219 L 21.433594 13.949219 C 21.6875 13.949219 21.898438 13.742188 21.898438 13.484375 C 21.898438 13.230469 21.6875 13.019531 21.433594 13.019531 L 17.152344 13.019531 L 20.640625 9.53125 C 20.820312 9.351562 20.820312 9.058594 20.640625 8.875 C 20.457031 8.695312 20.164062 8.695312 19.984375 8.875 L 16.464844 12.398438 L 16.464844 8.054688 C 16.464844 7.800781 16.253906 7.589844 16 7.589844 C 15.742188 7.589844 15.535156 7.800781 15.535156 8.054688 L 15.535156 13.328125 L 11.332031 17.527344 L 11.332031 9.9375 C 11.332031 9.679688 11.121094 9.472656 10.867188 9.472656 C 10.609375 9.472656 10.402344 9.679688 10.402344 9.9375 L 10.402344 18.449219 L 7.121094 21.730469 C 5.566406 20.042969 4.609375 17.96875 4.417969 15.839844 C 4.195312 13.308594 5.070312 10.863281 6.945312 8.773438 C 9.898438 5.492188 14.441406 3.835938 20.496094 3.835938 C 22.015625 3.835938 23.625 3.9375 25.332031 4.148438 L 25.332031 4.15625 C 25.929688 8.789062 25.757812 12.742188 24.816406 15.898438 Z M 24.816406 15.898438 " fill-opacity="1" fill-rule="nonzero"/></g></svg>