<svg xmlns="http://www.w3.org/2000/svg" xmlns:xlink="http://www.w3.org/1999/xlink" width="500" zoomAndPan="magnify" viewBox="0 0 375 149.999998" height="200" preserveAspectRatio="xMidYMid meet" version="1.0"><defs><g><g id="id1"/></g><clipPath id="id2"><path d="M 244.382812 62 L 265 62 L 265 72 L 244.382812 72 Z M 244.382812 62 " clip-rule="nonzero"/></clipPath><clipPath id="id3"><path d="M 292 6.667969 L 311 6.667969 L 311 38 L 292 38 Z M 292 6.667969 " clip-rule="nonzero"/></clipPath><clipPath id="id4"><path d="M 297 95 L 317 95 L 317 143.167969 L 297 143.167969 Z M 297 95 " clip-rule="nonzero"/></clipPath><clipPath id="id5"><path d="M 333 126 L 359 126 L 359 140 L 333 140 Z M 333 126 " clip-rule="nonzero"/></clipPath><clipPath id="id6"><path d="M 361.617188 128.195312 L 358.554688 143.644531 L 330.597656 138.105469 L 333.660156 122.65625 Z M 361.617188 128.195312 " clip-rule="nonzero"/></clipPath><clipPath id="id7"><path d="M 361.617188 128.195312 L 358.554688 143.644531 L 330.597656 138.105469 L 333.660156 122.65625 Z M 361.617188 128.195312 " clip-rule="nonzero"/></clipPath><clipPath id="id8"><path d="M 361.617188 128.195312 L 358.554688 143.644531 L 330.597656 138.105469 L 333.660156 122.65625 Z M 361.617188 128.195312 " clip-rule="nonzero"/></clipPath></defs><g fill="rgb(32.939148%, 32.939148%, 32.939148%)" fill-opacity="1"><g transform="translate(41.145926, 99.78519)"><g><path d="M 10.53125 7.046875 C 7.507812 7.046875 5.253906 6.53125 3.765625 5.5 C 2.273438 4.476562 1.53125 2.832031 1.53125 0.5625 C 1.53125 0.40625 1.664062 0.328125 1.9375 0.328125 C 2.15625 0.328125 2.804688 0.460938 3.890625 0.734375 C 4.972656 1.003906 6.863281 1.140625 9.5625 1.140625 C 15.550781 1.140625 21.015625 0.234375 25.953125 -1.578125 C 30.898438 -3.390625 34.773438 -5.78125 37.578125 -8.75 C 40.390625 -11.71875 41.796875 -14.820312 41.796875 -18.0625 C 41.796875 -22 39.847656 -24.679688 35.953125 -26.109375 C 32.066406 -27.546875 27.210938 -28.265625 21.390625 -28.265625 L 15.3125 -28.1875 C 14.5 -25.4375 13.335938 -21.304688 11.828125 -15.796875 C 10.691406 -11.585938 9.421875 -7.023438 8.015625 -2.109375 C 6.671875 -2.109375 5.535156 -2.484375 4.609375 -3.234375 C 3.691406 -3.992188 3.234375 -4.914062 3.234375 -6 C 3.234375 -6.695312 3.394531 -7.554688 3.71875 -8.578125 C 4.050781 -9.609375 4.269531 -10.285156 4.375 -10.609375 C 6.050781 -16.222656 8.578125 -23.710938 11.953125 -33.078125 C 15.328125 -42.453125 18.523438 -50.109375 21.546875 -56.046875 C 18.359375 -55.503906 15.226562 -54.316406 12.15625 -52.484375 C 11.175781 -51.941406 10.582031 -51.671875 10.375 -51.671875 C 9.9375 -51.671875 9.394531 -51.941406 8.75 -52.484375 C 8.101562 -53.023438 7.78125 -53.484375 7.78125 -53.859375 C 11.34375 -55.316406 14.484375 -56.421875 17.203125 -57.171875 C 19.929688 -57.929688 23.1875 -58.3125 26.96875 -58.3125 C 31.9375 -58.3125 36.296875 -57.40625 40.046875 -55.59375 C 43.804688 -53.789062 45.6875 -50.40625 45.6875 -45.4375 C 45.6875 -40.632812 43.890625 -37.015625 40.296875 -34.578125 C 36.703125 -32.148438 32.316406 -30.503906 27.140625 -29.640625 C 39.453125 -28.890625 45.609375 -24.546875 45.609375 -16.609375 C 45.609375 -11.742188 43.632812 -7.515625 39.6875 -3.921875 C 35.75 -0.335938 31.007812 2.382812 25.46875 4.25 C 19.9375 6.113281 14.957031 7.046875 10.53125 7.046875 Z M 15.796875 -30.046875 C 22.765625 -30.265625 28.675781 -31.640625 33.53125 -34.171875 C 38.394531 -36.710938 40.828125 -40.6875 40.828125 -46.09375 C 40.828125 -53.113281 36.265625 -56.625 27.140625 -56.625 C 26.429688 -56.625 25.914062 -56.59375 25.59375 -56.53125 C 22.40625 -50.320312 19.140625 -41.492188 15.796875 -30.046875 Z M 15.796875 -30.046875 "/></g></g></g><g fill="rgb(32.939148%, 32.939148%, 32.939148%)" fill-opacity="1"><g transform="translate(90.392269, 99.78519)"><g><path d="M 5.59375 2.59375 C 3.375 2.59375 1.75 1.914062 0.71875 0.5625 C -0.300781 -0.78125 -0.8125 -2.5625 -0.8125 -4.78125 C -0.8125 -6.988281 -0.351562 -9.304688 0.5625 -11.734375 C 1.476562 -14.171875 2.664062 -16.195312 4.125 -17.8125 C 5.582031 -19.4375 7.039062 -20.25 8.5 -20.25 C 8.988281 -20.25 9.554688 -20.113281 10.203125 -19.84375 C 9.554688 -19.300781 8.773438 -18.113281 7.859375 -16.28125 C 6.941406 -14.445312 6.144531 -12.488281 5.46875 -10.40625 C 4.789062 -8.332031 4.453125 -6.644531 4.453125 -5.34375 C 4.453125 -2.269531 5.425781 -0.734375 7.375 -0.734375 C 8.507812 -0.734375 9.859375 -1.328125 11.421875 -2.515625 C 12.984375 -3.703125 14.519531 -5.265625 16.03125 -7.203125 C 14.519531 -8.453125 13.347656 -10.070312 12.515625 -12.0625 C 11.679688 -14.0625 11.265625 -16.144531 11.265625 -18.3125 C 11.265625 -21.113281 11.976562 -23.515625 13.40625 -25.515625 C 14.832031 -27.515625 16.765625 -28.515625 19.203125 -28.515625 C 21.253906 -28.515625 22.695312 -27.957031 23.53125 -26.84375 C 24.363281 -25.738281 24.78125 -24.21875 24.78125 -22.28125 C 24.78125 -20.226562 24.28125 -17.914062 23.28125 -15.34375 C 22.28125 -12.78125 20.972656 -10.285156 19.359375 -7.859375 C 20.328125 -7.316406 21.351562 -7.046875 22.4375 -7.046875 C 24 -7.046875 25.617188 -7.515625 27.296875 -8.453125 C 28.972656 -9.398438 30.242188 -10.875 31.109375 -12.875 L 32.078125 -12.0625 C 31.046875 -9.6875 29.582031 -7.929688 27.6875 -6.796875 C 25.800781 -5.671875 23.863281 -5.109375 21.875 -5.109375 C 20.414062 -5.109375 19.117188 -5.375 17.984375 -5.90625 C 16.035156 -3.375 13.96875 -1.328125 11.78125 0.234375 C 9.59375 1.804688 7.53125 2.59375 5.59375 2.59375 Z M 17.5 -9.3125 C 18.90625 -11.414062 20.035156 -13.5625 20.890625 -15.75 C 21.753906 -17.9375 22.1875 -19.945312 22.1875 -21.78125 C 22.1875 -23.300781 21.957031 -24.4375 21.5 -25.1875 C 21.039062 -25.945312 20.460938 -26.328125 19.765625 -26.328125 C 19.003906 -26.328125 18.234375 -25.960938 17.453125 -25.234375 C 16.671875 -24.503906 16.019531 -23.503906 15.5 -22.234375 C 14.988281 -20.960938 14.734375 -19.570312 14.734375 -18.0625 C 14.734375 -16.382812 14.960938 -14.773438 15.421875 -13.234375 C 15.890625 -11.703125 16.582031 -10.394531 17.5 -9.3125 Z M 17.5 -9.3125 "/></g></g></g><g fill="rgb(32.939148%, 32.939148%, 32.939148%)" fill-opacity="1"><g transform="translate(119.95628, 99.78519)"><g><path d="M 26.15625 1.625 C 24.320312 1.625 22.921875 1.148438 21.953125 0.203125 C 20.984375 -0.742188 20.5 -2 20.5 -3.5625 C 20.5 -4.257812 20.617188 -5.082031 20.859375 -6.03125 C 21.097656 -6.976562 21.351562 -7.910156 21.625 -8.828125 C 21.945312 -9.796875 22.226562 -10.820312 22.46875 -11.90625 C 22.71875 -12.988281 22.84375 -13.960938 22.84375 -14.828125 C 22.84375 -17.472656 21.765625 -18.796875 19.609375 -18.796875 C 17.554688 -18.796875 15.40625 -17.710938 13.15625 -15.546875 C 10.914062 -13.390625 8.914062 -10.988281 7.15625 -8.34375 C 5.40625 -5.695312 3.425781 -2.507812 1.21875 1.21875 C 0.300781 1.21875 -0.535156 1.066406 -1.296875 0.765625 C -2.054688 0.472656 -2.648438 0.03125 -3.078125 -0.5625 C -3.078125 -0.832031 -2.726562 -1.804688 -2.03125 -3.484375 C -0.675781 -6.941406 0.429688 -10.085938 1.296875 -12.921875 C 2.160156 -15.753906 2.617188 -18.28125 2.671875 -20.5 C 3.046875 -20.925781 3.582031 -21.3125 4.28125 -21.65625 C 4.988281 -22.007812 5.695312 -22.1875 6.40625 -22.1875 C 7.863281 -22.1875 8.59375 -21.488281 8.59375 -20.09375 C 8.59375 -19.28125 8.347656 -17.859375 7.859375 -15.828125 C 7.367188 -13.804688 6.75 -11.660156 6 -9.390625 C 8.582031 -13.390625 11.332031 -16.765625 14.25 -19.515625 C 17.164062 -22.273438 20.03125 -23.65625 22.84375 -23.65625 C 24.84375 -23.65625 26.34375 -22.9375 27.34375 -21.5 C 28.34375 -20.070312 28.84375 -18.359375 28.84375 -16.359375 C 28.84375 -15.171875 28.691406 -14.035156 28.390625 -12.953125 C 28.085938 -11.878906 27.640625 -10.640625 27.046875 -9.234375 C 26.566406 -8.046875 26.191406 -7.019531 25.921875 -6.15625 C 25.648438 -5.289062 25.515625 -4.425781 25.515625 -3.5625 C 25.515625 -1.507812 26.320312 -0.484375 27.9375 -0.484375 C 29.78125 -0.484375 31.6875 -1.695312 33.65625 -4.125 C 35.625 -6.5625 37.5 -9.5625 39.28125 -13.125 L 40.171875 -12.0625 C 36.285156 -2.9375 31.613281 1.625 26.15625 1.625 Z M 26.15625 1.625 "/></g></g></g><g fill="rgb(32.939148%, 32.939148%, 32.939148%)" fill-opacity="1"><g transform="translate(157.701002, 99.78519)"><g><path d="M 4.78125 2.4375 C 3.21875 2.4375 1.8125 1.851562 0.5625 0.6875 C -0.675781 -0.46875 -1.296875 -2.15625 -1.296875 -4.375 C -1.296875 -7.34375 -0.160156 -10.8125 2.109375 -14.78125 C 4.378906 -18.75 7.210938 -22.132812 10.609375 -24.9375 C 14.015625 -27.75 17.3125 -29.15625 20.5 -29.15625 C 22.875 -29.15625 24.0625 -28.320312 24.0625 -26.65625 C 24.0625 -26.4375 24.003906 -26.054688 23.890625 -25.515625 C 23.347656 -26.328125 22.320312 -26.734375 20.8125 -26.734375 C 18.113281 -26.734375 15.492188 -25.445312 12.953125 -22.875 C 10.421875 -20.3125 8.359375 -17.300781 6.765625 -13.84375 C 5.171875 -10.394531 4.375 -7.5625 4.375 -5.34375 C 4.375 -4.15625 4.628906 -3.207031 5.140625 -2.5 C 5.648438 -1.800781 6.367188 -1.453125 7.296875 -1.453125 C 8.753906 -1.453125 10.535156 -2.382812 12.640625 -4.25 C 14.742188 -6.113281 16.875 -8.742188 19.03125 -12.140625 C 21.195312 -15.546875 23.113281 -19.410156 24.78125 -23.734375 C 29 -34.640625 32.523438 -43.128906 35.359375 -49.203125 C 38.191406 -55.273438 40.582031 -58.3125 42.53125 -58.3125 C 42.957031 -58.3125 43.332031 -58.132812 43.65625 -57.78125 C 43.976562 -57.4375 44.140625 -56.992188 44.140625 -56.453125 C 44.140625 -55.640625 43.707031 -54.25 42.84375 -52.28125 C 41.976562 -50.3125 40.578125 -47.273438 38.640625 -43.171875 C 34.640625 -34.859375 31.453125 -27.660156 29.078125 -21.578125 C 26.703125 -15.503906 25.515625 -10.203125 25.515625 -5.671875 C 25.515625 -3.890625 25.609375 -2.6875 25.796875 -2.0625 C 25.984375 -1.445312 26.507812 -1.140625 27.375 -1.140625 C 28.507812 -1.140625 29.847656 -1.632812 31.390625 -2.625 C 32.929688 -3.625 34.457031 -5.03125 35.96875 -6.84375 C 37.476562 -8.65625 38.773438 -10.75 39.859375 -13.125 L 40.828125 -12.390625 C 39.796875 -9.691406 38.390625 -7.234375 36.609375 -5.015625 C 34.828125 -2.804688 32.921875 -1.066406 30.890625 0.203125 C 28.867188 1.472656 26.941406 2.109375 25.109375 2.109375 C 23.273438 2.109375 21.925781 1.515625 21.0625 0.328125 C 20.195312 -0.859375 19.765625 -2.289062 19.765625 -3.96875 C 19.765625 -5.800781 20.273438 -8.691406 21.296875 -12.640625 C 18.546875 -8.097656 15.695312 -4.445312 12.75 -1.6875 C 9.8125 1.0625 7.15625 2.4375 4.78125 2.4375 Z M 4.78125 2.4375 "/></g></g></g><g fill="rgb(32.939148%, 32.939148%, 32.939148%)" fill-opacity="1"><g transform="translate(196.012709, 99.78519)"><g><path d="M 5.59375 2.59375 C 3.375 2.59375 1.75 1.914062 0.71875 0.5625 C -0.300781 -0.78125 -0.8125 -2.5625 -0.8125 -4.78125 C -0.8125 -6.988281 -0.351562 -9.304688 0.5625 -11.734375 C 1.476562 -14.171875 2.664062 -16.195312 4.125 -17.8125 C 5.582031 -19.4375 7.039062 -20.25 8.5 -20.25 C 8.988281 -20.25 9.554688 -20.113281 10.203125 -19.84375 C 9.554688 -19.300781 8.773438 -18.113281 7.859375 -16.28125 C 6.941406 -14.445312 6.144531 -12.488281 5.46875 -10.40625 C 4.789062 -8.332031 4.453125 -6.644531 4.453125 -5.34375 C 4.453125 -2.269531 5.425781 -0.734375 7.375 -0.734375 C 8.507812 -0.734375 9.859375 -1.328125 11.421875 -2.515625 C 12.984375 -3.703125 14.519531 -5.265625 16.03125 -7.203125 C 14.519531 -8.453125 13.347656 -10.070312 12.515625 -12.0625 C 11.679688 -14.0625 11.265625 -16.144531 11.265625 -18.3125 C 11.265625 -21.113281 11.976562 -23.515625 13.40625 -25.515625 C 14.832031 -27.515625 16.765625 -28.515625 19.203125 -28.515625 C 21.253906 -28.515625 22.695312 -27.957031 23.53125 -26.84375 C 24.363281 -25.738281 24.78125 -24.21875 24.78125 -22.28125 C 24.78125 -20.226562 24.28125 -17.914062 23.28125 -15.34375 C 22.28125 -12.78125 20.972656 -10.285156 19.359375 -7.859375 C 20.328125 -7.316406 21.351562 -7.046875 22.4375 -7.046875 C 24 -7.046875 25.617188 -7.515625 27.296875 -8.453125 C 28.972656 -9.398438 30.242188 -10.875 31.109375 -12.875 L 32.078125 -12.0625 C 31.046875 -9.6875 29.582031 -7.929688 27.6875 -6.796875 C 25.800781 -5.671875 23.863281 -5.109375 21.875 -5.109375 C 20.414062 -5.109375 19.117188 -5.375 17.984375 -5.90625 C 16.035156 -3.375 13.96875 -1.328125 11.78125 0.234375 C 9.59375 1.804688 7.53125 2.59375 5.59375 2.59375 Z M 17.5 -9.3125 C 18.90625 -11.414062 20.035156 -13.5625 20.890625 -15.75 C 21.753906 -17.9375 22.1875 -19.945312 22.1875 -21.78125 C 22.1875 -23.300781 21.957031 -24.4375 21.5 -25.1875 C 21.039062 -25.945312 20.460938 -26.328125 19.765625 -26.328125 C 19.003906 -26.328125 18.234375 -25.960938 17.453125 -25.234375 C 16.671875 -24.503906 16.019531 -23.503906 15.5 -22.234375 C 14.988281 -20.960938 14.734375 -19.570312 14.734375 -18.0625 C 14.734375 -16.382812 14.960938 -14.773438 15.421875 -13.234375 C 15.890625 -11.703125 16.582031 -10.394531 17.5 -9.3125 Z M 17.5 -9.3125 "/></g></g></g><path fill="rgb(0%, 29.019165%, 67.83905%)" d="M 245.765625 42.097656 C 245.765625 42.097656 260.894531 70.121094 283.714844 59.09375 C 283.714844 59.09375 279.007812 36.382812 245.765625 42.097656 Z M 245.765625 42.097656 " fill-opacity="1" fill-rule="nonzero"/><path fill="rgb(0%, 29.019165%, 67.83905%)" d="M 354.609375 58.53125 C 354.609375 58.53125 330.179688 45.527344 323.460938 67.722656 C 323.460938 67.722656 338.964844 82.75 354.609375 58.53125 Z M 354.609375 58.53125 " fill-opacity="1" fill-rule="nonzero"/><path fill="rgb(0%, 29.019165%, 67.83905%)" d="M 335.832031 107.84375 C 335.832031 107.84375 331.023438 80.601562 309.390625 88.996094 C 309.390625 88.996094 307.105469 110.460938 335.832031 107.84375 Z M 335.832031 107.84375 " fill-opacity="1" fill-rule="nonzero"/><path fill="rgb(0%, 29.019165%, 67.83905%)" d="M 314.039062 40.507812 C 314.039062 40.507812 299.101562 41.046875 301.898438 57.542969 C 301.898438 57.542969 316.578125 56.011719 314.039062 40.507812 Z M 314.039062 40.507812 " fill-opacity="1" fill-rule="nonzero"/><path fill="rgb(0%, 29.019165%, 67.83905%)" d="M 270.738281 105.722656 C 270.738281 105.722656 295.289062 117.007812 304.507812 92.476562 C 304.507812 92.476562 283.105469 81.460938 270.738281 105.722656 Z M 270.738281 105.722656 " fill-opacity="1" fill-rule="nonzero"/><g clip-path="url(#id2)"><path fill="rgb(0%, 29.019165%, 67.83905%)" d="M 244.515625 68.007812 C 244.515625 68.007812 254.816406 77.40625 264.96875 66.625 C 264.96875 66.625 254.605469 56.515625 244.515625 68.007812 Z M 244.515625 68.007812 " fill-opacity="1" fill-rule="nonzero"/></g><path fill="rgb(0%, 29.019165%, 67.83905%)" d="M 335.132812 9.527344 C 335.132812 9.527344 313.277344 14.136719 316.160156 37.042969 C 316.160156 37.042969 340.351562 33.84375 335.132812 9.527344 Z M 335.132812 9.527344 " fill-opacity="1" fill-rule="nonzero"/><path fill="rgb(0%, 0%, 0%)" d="M 355.53125 85.789062 C 355.53125 85.789062 337.914062 64.453125 323.226562 82.414062 C 323.226562 82.414062 331.828125 102.214844 355.53125 85.789062 Z M 355.53125 85.789062 " fill-opacity="1" fill-rule="nonzero"/><g clip-path="url(#id3)"><path fill="rgb(0%, 0%, 0%)" d="M 295.976562 6.667969 C 295.976562 6.667969 283.410156 31.3125 305.742188 37.625 C 305.742188 37.625 320.496094 21.855469 295.976562 6.667969 Z M 295.976562 6.667969 " fill-opacity="1" fill-rule="nonzero"/></g><path fill="rgb(0%, 0%, 0%)" d="M 286.472656 80.160156 C 286.472656 80.160156 301.261719 94.792969 320.203125 79.5 C 320.203125 79.5 302.9375 61.507812 286.472656 80.160156 Z M 286.472656 80.160156 " fill-opacity="1" fill-rule="nonzero"/><g clip-path="url(#id4)"><path fill="rgb(0%, 0%, 0%)" d="M 307.035156 95.96875 L 297.433594 143.167969 L 316.769531 143.167969 Z M 307.035156 95.96875 " fill-opacity="1" fill-rule="nonzero"/></g><path fill="rgb(0%, 50.19989%, 21.569824%)" d="M 354.132812 33.164062 C 354.132812 33.164062 326.5 24.382812 319.4375 49.617188 C 319.4375 49.617188 344.089844 59.097656 354.132812 33.164062 Z M 354.132812 33.164062 " fill-opacity="1" fill-rule="nonzero"/><path fill="rgb(0%, 50.19989%, 21.569824%)" d="M 252.542969 83.078125 C 252.542969 83.078125 264.390625 99.144531 281.597656 87.304688 C 281.597656 87.304688 271.722656 70.671875 252.542969 83.078125 Z M 252.542969 83.078125 " fill-opacity="1" fill-rule="nonzero"/><path fill="rgb(0%, 50.19989%, 21.569824%)" d="M 287.578125 59.28125 C 287.578125 59.28125 291.863281 72.527344 305.386719 66.238281 C 305.386719 66.238281 300.320312 53.105469 287.578125 59.28125 Z M 287.578125 59.28125 " fill-opacity="1" fill-rule="nonzero"/><path fill="rgb(1.179504%, 59.609985%, 61.959839%)" d="M 270.191406 25.453125 C 270.191406 25.453125 271.207031 52.179688 297.394531 50.9375 C 297.394531 50.9375 299.652344 27.539062 270.191406 25.453125 Z M 270.191406 25.453125 " fill-opacity="1" fill-rule="nonzero"/><path fill="rgb(1.179504%, 59.609985%, 61.959839%)" d="M 266.703125 70.558594 C 266.703125 70.558594 276.847656 82.847656 289.191406 70.695312 C 289.191406 70.695312 278.609375 58.183594 266.703125 70.558594 Z M 266.703125 70.558594 " fill-opacity="1" fill-rule="nonzero"/><path fill="rgb(1.179504%, 59.609985%, 61.959839%)" d="M 348.511719 72.53125 C 348.511719 72.53125 358.65625 84.820312 371 72.671875 C 371 72.671875 360.417969 60.160156 348.511719 72.53125 Z M 348.511719 72.53125 " fill-opacity="1" fill-rule="nonzero"/><path fill="rgb(1.179504%, 59.609985%, 61.959839%)" d="M 315.023438 52.960938 C 315.023438 52.960938 304.957031 63.855469 315.964844 72.082031 C 315.964844 72.082031 325.074219 61.886719 315.023438 52.960938 Z M 315.023438 52.960938 " fill-opacity="1" fill-rule="nonzero"/><g clip-path="url(#id5)"><g clip-path="url(#id6)"><g clip-path="url(#id7)"><g clip-path="url(#id8)"><path fill="rgb(13.729858%, 42.749023%, 36.859131%)" d="M 344.820312 139.671875 C 337.839844 138.289062 333.460938 130.71875 333.460938 130.71875 C 333.460938 130.71875 340.425781 125.242188 347.40625 126.625 C 354.382812 128.007812 358.734375 135.726562 358.734375 135.726562 C 358.734375 135.726562 351.800781 141.054688 344.820312 139.671875 " fill-opacity="1" fill-rule="nonzero"/></g></g></g></g></svg>