<svg xmlns="http://www.w3.org/2000/svg" xmlns:xlink="http://www.w3.org/1999/xlink" width="500" zoomAndPan="magnify" viewBox="0 0 375 374.999991" height="500" preserveAspectRatio="xMidYMid meet" version="1.0"><defs><g><g id="id1"/></g><clipPath id="id2"><path d="M 244 132.039062 L 257 132.039062 L 257 154 L 244 154 Z M 244 132.039062 " clip-rule="nonzero"/></clipPath><clipPath id="id3"><path d="M 247 195 L 262 195 L 262 228.789062 L 247 228.789062 Z M 247 195 " clip-rule="nonzero"/></clipPath><clipPath id="id4"><path d="M 283 174 L 299.972656 174 L 299.972656 183 L 283 183 Z M 283 174 " clip-rule="nonzero"/></clipPath><clipPath id="id5"><path d="M 273 217 L 292 217 L 292 227 L 273 227 Z M 273 217 " clip-rule="nonzero"/></clipPath><clipPath id="id6"><path d="M 293.191406 218.308594 L 291.003906 229.34375 L 271.140625 225.410156 L 273.324219 214.375 Z M 293.191406 218.308594 " clip-rule="nonzero"/></clipPath><clipPath id="id7"><path d="M 293.191406 218.308594 L 291.003906 229.34375 L 271.140625 225.410156 L 273.324219 214.375 Z M 293.191406 218.308594 " clip-rule="nonzero"/></clipPath><clipPath id="id8"><path d="M 293.191406 218.308594 L 291.003906 229.34375 L 271.140625 225.410156 L 273.324219 214.375 Z M 293.191406 218.308594 " clip-rule="nonzero"/></clipPath></defs><g fill="rgb(32.939148%, 32.939148%, 32.939148%)" fill-opacity="1"><g transform="translate(79.968749, 225.557241)"><g><path d="M 8 5.359375 C 5.695312 5.359375 3.984375 4.96875 2.859375 4.1875 C 1.734375 3.40625 1.171875 2.15625 1.171875 0.4375 C 1.171875 0.3125 1.269531 0.25 1.46875 0.25 C 1.632812 0.25 2.128906 0.347656 2.953125 0.546875 C 3.773438 0.753906 5.210938 0.859375 7.265625 0.859375 C 11.816406 0.859375 15.96875 0.171875 19.71875 -1.203125 C 23.46875 -2.578125 26.40625 -4.390625 28.53125 -6.640625 C 30.664062 -8.898438 31.734375 -11.257812 31.734375 -13.71875 C 31.734375 -16.707031 30.257812 -18.742188 27.3125 -19.828125 C 24.363281 -20.921875 20.671875 -21.46875 16.234375 -21.46875 L 11.625 -21.40625 C 11.007812 -19.3125 10.128906 -16.175781 8.984375 -12 C 8.117188 -8.800781 7.15625 -5.332031 6.09375 -1.59375 C 5.0625 -1.59375 4.195312 -1.878906 3.5 -2.453125 C 2.800781 -3.035156 2.453125 -3.734375 2.453125 -4.546875 C 2.453125 -5.085938 2.578125 -5.742188 2.828125 -6.515625 C 3.078125 -7.296875 3.242188 -7.8125 3.328125 -8.0625 C 4.597656 -12.320312 6.515625 -18.007812 9.078125 -25.125 C 11.640625 -32.238281 14.066406 -38.050781 16.359375 -42.5625 C 13.941406 -42.15625 11.566406 -41.253906 9.234375 -39.859375 C 8.492188 -39.453125 8.039062 -39.25 7.875 -39.25 C 7.539062 -39.25 7.128906 -39.453125 6.640625 -39.859375 C 6.148438 -40.273438 5.90625 -40.625 5.90625 -40.90625 C 8.613281 -42.007812 11 -42.847656 13.0625 -43.421875 C 15.132812 -44.003906 17.609375 -44.296875 20.484375 -44.296875 C 24.253906 -44.296875 27.5625 -43.609375 30.40625 -42.234375 C 33.257812 -40.859375 34.6875 -38.285156 34.6875 -34.515625 C 34.6875 -30.859375 33.320312 -28.109375 30.59375 -26.265625 C 27.875 -24.421875 24.546875 -23.171875 20.609375 -22.515625 C 29.960938 -21.941406 34.640625 -18.640625 34.640625 -12.609375 C 34.640625 -8.921875 33.140625 -5.710938 30.140625 -2.984375 C 27.148438 -0.253906 23.550781 1.816406 19.34375 3.234375 C 15.144531 4.648438 11.363281 5.359375 8 5.359375 Z M 12 -22.828125 C 17.289062 -22.984375 21.78125 -24.023438 25.46875 -25.953125 C 29.15625 -27.878906 31 -30.894531 31 -35 C 31 -40.332031 27.535156 -43 20.609375 -43 C 20.078125 -43 19.6875 -42.976562 19.4375 -42.9375 C 17.019531 -38.21875 14.539062 -31.515625 12 -22.828125 Z M 12 -22.828125 "/></g></g></g><g fill="rgb(32.939148%, 32.939148%, 32.939148%)" fill-opacity="1"><g transform="translate(117.367822, 225.557241)"><g><path d="M 4.25 1.96875 C 2.5625 1.96875 1.328125 1.453125 0.546875 0.421875 C -0.222656 -0.597656 -0.609375 -1.945312 -0.609375 -3.625 C -0.609375 -5.3125 -0.265625 -7.078125 0.421875 -8.921875 C 1.117188 -10.765625 2.019531 -12.300781 3.125 -13.53125 C 4.238281 -14.757812 5.347656 -15.375 6.453125 -15.375 C 6.828125 -15.375 7.257812 -15.273438 7.75 -15.078125 C 7.257812 -14.660156 6.664062 -13.753906 5.96875 -12.359375 C 5.269531 -10.960938 4.664062 -9.472656 4.15625 -7.890625 C 3.644531 -6.316406 3.390625 -5.039062 3.390625 -4.0625 C 3.390625 -1.71875 4.125 -0.546875 5.59375 -0.546875 C 6.457031 -0.546875 7.484375 -1 8.671875 -1.90625 C 9.859375 -2.8125 11.03125 -4 12.1875 -5.46875 C 11.03125 -6.414062 10.132812 -7.644531 9.5 -9.15625 C 8.863281 -10.675781 8.546875 -12.257812 8.546875 -13.90625 C 8.546875 -16.03125 9.085938 -17.851562 10.171875 -19.375 C 11.265625 -20.894531 12.734375 -21.65625 14.578125 -21.65625 C 16.140625 -21.65625 17.238281 -21.234375 17.875 -20.390625 C 18.507812 -19.546875 18.828125 -18.390625 18.828125 -16.921875 C 18.828125 -15.359375 18.445312 -13.601562 17.6875 -11.65625 C 16.925781 -9.707031 15.929688 -7.8125 14.703125 -5.96875 C 15.441406 -5.5625 16.222656 -5.359375 17.046875 -5.359375 C 18.234375 -5.359375 19.460938 -5.710938 20.734375 -6.421875 C 22.003906 -7.140625 22.96875 -8.257812 23.625 -9.78125 L 24.359375 -9.171875 C 23.578125 -7.359375 22.46875 -6.019531 21.03125 -5.15625 C 19.601562 -4.300781 18.128906 -3.875 16.609375 -3.875 C 15.503906 -3.875 14.519531 -4.078125 13.65625 -4.484375 C 12.175781 -2.554688 10.601562 -1 8.9375 0.1875 C 7.28125 1.375 5.71875 1.96875 4.25 1.96875 Z M 13.28125 -7.078125 C 14.351562 -8.671875 15.21875 -10.296875 15.875 -11.953125 C 16.53125 -13.617188 16.859375 -15.148438 16.859375 -16.546875 C 16.859375 -17.691406 16.679688 -18.550781 16.328125 -19.125 C 15.984375 -19.707031 15.546875 -20 15.015625 -20 C 14.441406 -20 13.851562 -19.71875 13.25 -19.15625 C 12.65625 -18.601562 12.164062 -17.84375 11.78125 -16.875 C 11.394531 -15.914062 11.203125 -14.863281 11.203125 -13.71875 C 11.203125 -12.445312 11.375 -11.222656 11.71875 -10.046875 C 12.0625 -8.878906 12.582031 -7.890625 13.28125 -7.078125 Z M 13.28125 -7.078125 "/></g></g></g><g fill="rgb(32.939148%, 32.939148%, 32.939148%)" fill-opacity="1"><g transform="translate(139.819572, 225.557241)"><g><path d="M 19.875 1.234375 C 18.476562 1.234375 17.410156 0.875 16.671875 0.15625 C 15.929688 -0.5625 15.5625 -1.515625 15.5625 -2.703125 C 15.5625 -3.234375 15.648438 -3.859375 15.828125 -4.578125 C 16.015625 -5.296875 16.210938 -6.003906 16.421875 -6.703125 C 16.671875 -7.441406 16.882812 -8.21875 17.0625 -9.03125 C 17.25 -9.851562 17.34375 -10.59375 17.34375 -11.25 C 17.34375 -13.257812 16.523438 -14.265625 14.890625 -14.265625 C 13.328125 -14.265625 11.691406 -13.441406 9.984375 -11.796875 C 8.285156 -10.160156 6.769531 -8.335938 5.4375 -6.328125 C 4.101562 -4.328125 2.597656 -1.910156 0.921875 0.921875 C 0.222656 0.921875 -0.410156 0.804688 -0.984375 0.578125 C -1.554688 0.359375 -2.007812 0.0195312 -2.34375 -0.4375 C -2.34375 -0.632812 -2.070312 -1.367188 -1.53125 -2.640625 C -0.507812 -5.265625 0.328125 -7.65625 0.984375 -9.8125 C 1.640625 -11.96875 1.988281 -13.882812 2.03125 -15.5625 C 2.3125 -15.894531 2.71875 -16.191406 3.25 -16.453125 C 3.789062 -16.722656 4.328125 -16.859375 4.859375 -16.859375 C 5.960938 -16.859375 6.515625 -16.320312 6.515625 -15.25 C 6.515625 -14.632812 6.328125 -13.554688 5.953125 -12.015625 C 5.585938 -10.484375 5.117188 -8.859375 4.546875 -7.140625 C 6.515625 -10.171875 8.609375 -12.734375 10.828125 -14.828125 C 13.046875 -16.921875 15.21875 -17.96875 17.34375 -17.96875 C 18.863281 -17.96875 20.003906 -17.421875 20.765625 -16.328125 C 21.523438 -15.242188 21.90625 -13.941406 21.90625 -12.421875 C 21.90625 -11.523438 21.789062 -10.664062 21.5625 -9.84375 C 21.332031 -9.019531 20.992188 -8.078125 20.546875 -7.015625 C 20.179688 -6.109375 19.894531 -5.328125 19.6875 -4.671875 C 19.476562 -4.015625 19.375 -3.359375 19.375 -2.703125 C 19.375 -1.148438 19.988281 -0.375 21.21875 -0.375 C 22.613281 -0.375 24.0625 -1.296875 25.5625 -3.140625 C 27.0625 -4.984375 28.484375 -7.257812 29.828125 -9.96875 L 30.515625 -9.171875 C 27.554688 -2.234375 24.007812 1.234375 19.875 1.234375 Z M 19.875 1.234375 "/></g></g></g><g fill="rgb(32.939148%, 32.939148%, 32.939148%)" fill-opacity="1"><g transform="translate(168.483987, 225.557241)"><g><path d="M 3.625 1.84375 C 2.4375 1.84375 1.367188 1.398438 0.421875 0.515625 C -0.515625 -0.359375 -0.984375 -1.640625 -0.984375 -3.328125 C -0.984375 -5.578125 -0.125 -8.207031 1.59375 -11.21875 C 3.320312 -14.238281 5.476562 -16.8125 8.0625 -18.9375 C 10.644531 -21.070312 13.144531 -22.140625 15.5625 -22.140625 C 17.363281 -22.140625 18.265625 -21.503906 18.265625 -20.234375 C 18.265625 -20.078125 18.222656 -19.789062 18.140625 -19.375 C 17.734375 -19.988281 16.957031 -20.296875 15.8125 -20.296875 C 13.757812 -20.296875 11.769531 -19.320312 9.84375 -17.375 C 7.914062 -15.425781 6.347656 -13.140625 5.140625 -10.515625 C 3.929688 -7.890625 3.328125 -5.738281 3.328125 -4.0625 C 3.328125 -3.15625 3.519531 -2.4375 3.90625 -1.90625 C 4.289062 -1.375 4.832031 -1.109375 5.53125 -1.109375 C 6.644531 -1.109375 8 -1.816406 9.59375 -3.234375 C 11.195312 -4.648438 12.816406 -6.648438 14.453125 -9.234375 C 16.097656 -11.816406 17.554688 -14.75 18.828125 -18.03125 C 22.023438 -26.3125 24.695312 -32.757812 26.84375 -37.375 C 29 -41.988281 30.816406 -44.296875 32.296875 -44.296875 C 32.617188 -44.296875 32.90625 -44.160156 33.15625 -43.890625 C 33.40625 -43.617188 33.53125 -43.28125 33.53125 -42.875 C 33.53125 -42.257812 33.203125 -41.203125 32.546875 -39.703125 C 31.890625 -38.210938 30.820312 -35.90625 29.34375 -32.78125 C 26.3125 -26.46875 23.890625 -21.003906 22.078125 -16.390625 C 20.273438 -11.773438 19.375 -7.75 19.375 -4.3125 C 19.375 -2.957031 19.445312 -2.039062 19.59375 -1.5625 C 19.738281 -1.09375 20.140625 -0.859375 20.796875 -0.859375 C 21.648438 -0.859375 22.660156 -1.238281 23.828125 -2 C 25.003906 -2.757812 26.164062 -3.828125 27.3125 -5.203125 C 28.457031 -6.578125 29.441406 -8.164062 30.265625 -9.96875 L 31 -9.40625 C 30.21875 -7.363281 29.148438 -5.5 27.796875 -3.8125 C 26.453125 -2.132812 25.007812 -0.816406 23.46875 0.140625 C 21.925781 1.109375 20.457031 1.59375 19.0625 1.59375 C 17.675781 1.59375 16.65625 1.140625 16 0.234375 C 15.34375 -0.660156 15.015625 -1.742188 15.015625 -3.015625 C 15.015625 -4.410156 15.398438 -6.601562 16.171875 -9.59375 C 14.085938 -6.144531 11.925781 -3.375 9.6875 -1.28125 C 7.457031 0.800781 5.4375 1.84375 3.625 1.84375 Z M 3.625 1.84375 "/></g></g></g><g fill="rgb(32.939148%, 32.939148%, 32.939148%)" fill-opacity="1"><g transform="translate(197.578987, 225.557241)"><g><path d="M 4.25 1.96875 C 2.5625 1.96875 1.328125 1.453125 0.546875 0.421875 C -0.222656 -0.597656 -0.609375 -1.945312 -0.609375 -3.625 C -0.609375 -5.3125 -0.265625 -7.078125 0.421875 -8.921875 C 1.117188 -10.765625 2.019531 -12.300781 3.125 -13.53125 C 4.238281 -14.757812 5.347656 -15.375 6.453125 -15.375 C 6.828125 -15.375 7.257812 -15.273438 7.75 -15.078125 C 7.257812 -14.660156 6.664062 -13.753906 5.96875 -12.359375 C 5.269531 -10.960938 4.664062 -9.472656 4.15625 -7.890625 C 3.644531 -6.316406 3.390625 -5.039062 3.390625 -4.0625 C 3.390625 -1.71875 4.125 -0.546875 5.59375 -0.546875 C 6.457031 -0.546875 7.484375 -1 8.671875 -1.90625 C 9.859375 -2.8125 11.03125 -4 12.1875 -5.46875 C 11.03125 -6.414062 10.132812 -7.644531 9.5 -9.15625 C 8.863281 -10.675781 8.546875 -12.257812 8.546875 -13.90625 C 8.546875 -16.03125 9.085938 -17.851562 10.171875 -19.375 C 11.265625 -20.894531 12.734375 -21.65625 14.578125 -21.65625 C 16.140625 -21.65625 17.238281 -21.234375 17.875 -20.390625 C 18.507812 -19.546875 18.828125 -18.390625 18.828125 -16.921875 C 18.828125 -15.359375 18.445312 -13.601562 17.6875 -11.65625 C 16.925781 -9.707031 15.929688 -7.8125 14.703125 -5.96875 C 15.441406 -5.5625 16.222656 -5.359375 17.046875 -5.359375 C 18.234375 -5.359375 19.460938 -5.710938 20.734375 -6.421875 C 22.003906 -7.140625 22.96875 -8.257812 23.625 -9.78125 L 24.359375 -9.171875 C 23.578125 -7.359375 22.46875 -6.019531 21.03125 -5.15625 C 19.601562 -4.300781 18.128906 -3.875 16.609375 -3.875 C 15.503906 -3.875 14.519531 -4.078125 13.65625 -4.484375 C 12.175781 -2.554688 10.601562 -1 8.9375 0.1875 C 7.28125 1.375 5.71875 1.96875 4.25 1.96875 Z M 13.28125 -7.078125 C 14.351562 -8.671875 15.21875 -10.296875 15.875 -11.953125 C 16.53125 -13.617188 16.859375 -15.148438 16.859375 -16.546875 C 16.859375 -17.691406 16.679688 -18.550781 16.328125 -19.125 C 15.984375 -19.707031 15.546875 -20 15.015625 -20 C 14.441406 -20 13.851562 -19.71875 13.25 -19.15625 C 12.65625 -18.601562 12.164062 -17.84375 11.78125 -16.875 C 11.394531 -15.914062 11.203125 -14.863281 11.203125 -13.71875 C 11.203125 -12.445312 11.375 -11.222656 11.71875 -10.046875 C 12.0625 -8.878906 12.582031 -7.890625 13.28125 -7.078125 Z M 13.28125 -7.078125 "/></g></g></g><path fill="rgb(0%, 29.019165%, 67.83905%)" d="M 210.957031 157.152344 C 210.957031 157.152344 221.699219 177.015625 237.898438 169.203125 C 237.898438 169.203125 234.558594 153.105469 210.957031 157.152344 Z M 210.957031 157.152344 " fill-opacity="1" fill-rule="nonzero"/><path fill="rgb(0%, 29.019165%, 67.83905%)" d="M 288.238281 168.800781 C 288.238281 168.800781 270.890625 159.582031 266.121094 175.316406 C 266.121094 175.316406 277.128906 185.96875 288.238281 168.800781 Z M 288.238281 168.800781 " fill-opacity="1" fill-rule="nonzero"/><path fill="rgb(0%, 29.019165%, 67.83905%)" d="M 274.90625 203.753906 C 274.90625 203.753906 271.492188 184.445312 256.128906 190.394531 C 256.128906 190.394531 254.507812 205.609375 274.90625 203.753906 Z M 274.90625 203.753906 " fill-opacity="1" fill-rule="nonzero"/><path fill="rgb(0%, 29.019165%, 67.83905%)" d="M 259.429688 156.027344 C 259.429688 156.027344 248.824219 156.410156 250.8125 168.101562 C 250.8125 168.101562 261.234375 167.015625 259.429688 156.027344 Z M 259.429688 156.027344 " fill-opacity="1" fill-rule="nonzero"/><path fill="rgb(0%, 29.019165%, 67.83905%)" d="M 228.6875 202.25 C 228.6875 202.25 246.121094 210.25 252.664062 192.863281 C 252.664062 192.863281 237.46875 185.054688 228.6875 202.25 Z M 228.6875 202.25 " fill-opacity="1" fill-rule="nonzero"/><path fill="rgb(0%, 29.019165%, 67.83905%)" d="M 210.066406 175.519531 C 210.066406 175.519531 217.382812 182.179688 224.589844 174.539062 C 224.589844 174.539062 217.234375 167.375 210.066406 175.519531 Z M 210.066406 175.519531 " fill-opacity="1" fill-rule="nonzero"/><path fill="rgb(0%, 29.019165%, 67.83905%)" d="M 274.410156 134.066406 C 274.410156 134.066406 258.890625 137.335938 260.9375 153.570312 C 260.9375 153.570312 278.113281 151.304688 274.410156 134.066406 Z M 274.410156 134.066406 " fill-opacity="1" fill-rule="nonzero"/><path fill="rgb(0%, 0%, 0%)" d="M 288.894531 188.121094 C 288.894531 188.121094 276.382812 173 265.957031 185.730469 C 265.957031 185.730469 272.0625 199.765625 288.894531 188.121094 Z M 288.894531 188.121094 " fill-opacity="1" fill-rule="nonzero"/><g clip-path="url(#id2)"><path fill="rgb(0%, 0%, 0%)" d="M 246.609375 132.039062 C 246.609375 132.039062 237.683594 149.511719 253.542969 153.984375 C 253.542969 153.984375 264.015625 142.804688 246.609375 132.039062 Z M 246.609375 132.039062 " fill-opacity="1" fill-rule="nonzero"/></g><path fill="rgb(0%, 0%, 0%)" d="M 239.859375 184.132812 C 239.859375 184.132812 250.359375 194.503906 263.808594 183.664062 C 263.808594 183.664062 251.546875 170.910156 239.859375 184.132812 Z M 239.859375 184.132812 " fill-opacity="1" fill-rule="nonzero"/><g clip-path="url(#id3)"><path fill="rgb(0%, 0%, 0%)" d="M 254.460938 195.339844 L 247.640625 228.789062 L 261.371094 228.789062 Z M 254.460938 195.339844 " fill-opacity="1" fill-rule="nonzero"/></g><path fill="rgb(0%, 50.19989%, 21.569824%)" d="M 287.898438 150.820312 C 287.898438 150.820312 268.28125 144.597656 263.265625 162.484375 C 263.265625 162.484375 280.769531 169.203125 287.898438 150.820312 Z M 287.898438 150.820312 " fill-opacity="1" fill-rule="nonzero"/><path fill="rgb(0%, 50.19989%, 21.569824%)" d="M 215.765625 186.199219 C 215.765625 186.199219 224.179688 197.589844 236.398438 189.195312 C 236.398438 189.195312 229.386719 177.40625 215.765625 186.199219 Z M 215.765625 186.199219 " fill-opacity="1" fill-rule="nonzero"/><path fill="rgb(0%, 50.19989%, 21.569824%)" d="M 240.644531 169.332031 C 240.644531 169.332031 243.6875 178.722656 253.289062 174.265625 C 253.289062 174.265625 249.691406 164.957031 240.644531 169.332031 Z M 240.644531 169.332031 " fill-opacity="1" fill-rule="nonzero"/><path fill="rgb(1.179504%, 59.609985%, 61.959839%)" d="M 228.300781 145.355469 C 228.300781 145.355469 229.019531 164.300781 247.613281 163.421875 C 247.613281 163.421875 249.214844 146.835938 228.300781 145.355469 Z M 228.300781 145.355469 " fill-opacity="1" fill-rule="nonzero"/><path fill="rgb(1.179504%, 59.609985%, 61.959839%)" d="M 225.820312 177.324219 C 225.820312 177.324219 233.023438 186.035156 241.789062 177.425781 C 241.789062 177.425781 234.277344 168.554688 225.820312 177.324219 Z M 225.820312 177.324219 " fill-opacity="1" fill-rule="nonzero"/><g clip-path="url(#id4)"><path fill="rgb(1.179504%, 59.609985%, 61.959839%)" d="M 283.90625 178.722656 C 283.90625 178.722656 291.109375 187.433594 299.875 178.824219 C 299.875 178.824219 292.363281 169.957031 283.90625 178.722656 Z M 283.90625 178.722656 " fill-opacity="1" fill-rule="nonzero"/></g><path fill="rgb(1.179504%, 59.609985%, 61.959839%)" d="M 260.128906 164.851562 C 260.128906 164.851562 252.984375 172.574219 260.800781 178.40625 C 260.800781 178.40625 267.269531 171.179688 260.128906 164.851562 Z M 260.128906 164.851562 " fill-opacity="1" fill-rule="nonzero"/><g clip-path="url(#id5)"><g clip-path="url(#id6)"><g clip-path="url(#id7)"><g clip-path="url(#id8)"><path fill="rgb(13.729858%, 42.749023%, 36.859131%)" d="M 281.246094 226.519531 C 276.289062 225.535156 273.183594 220.132812 273.183594 220.132812 C 273.183594 220.132812 278.132812 216.214844 283.089844 217.199219 C 288.050781 218.179688 291.132812 223.691406 291.132812 223.691406 C 291.132812 223.691406 286.203125 227.5 281.246094 226.519531 " fill-opacity="1" fill-rule="nonzero"/></g></g></g></g></svg>