<svg xmlns="http://www.w3.org/2000/svg" xmlns:xlink="http://www.w3.org/1999/xlink" width="200" zoomAndPan="magnify" viewBox="0 0 150 149.999998" height="200" preserveAspectRatio="xMidYMid meet" version="1.0"><defs><g/><clipPath id="id1"><path d="M 49 2 L 101.796875 2 L 101.796875 44 L 49 44 Z M 49 2 " clip-rule="nonzero"/></clipPath><clipPath id="id2"><path d="M 60 37 L 78 37 L 78 44.808594 L 60 44.808594 Z M 60 37 " clip-rule="nonzero"/></clipPath><clipPath id="id3"><path d="M 0 23.242188 L 63 23.242188 L 63 99.742188 L 0 99.742188 Z M 0 23.242188 " clip-rule="nonzero"/></clipPath><clipPath id="id4"><path d="M 87.035156 23.242188 L 150 23.242188 L 150 99.742188 L 87.035156 99.742188 Z M 87.035156 23.242188 " clip-rule="nonzero"/></clipPath></defs><g clip-path="url(#id1)"><path fill="rgb(0%, 29.019165%, 67.83905%)" d="M 84.207031 33.886719 C 81.859375 34.519531 79.359375 34.925781 76.816406 35.074219 C 77.289062 34.386719 77.71875 33.664062 78.097656 32.917969 C 78.242188 32.96875 78.386719 33.015625 78.535156 33.058594 C 83.546875 34.53125 88.710938 33.226562 91.484375 28.582031 C 91.445312 28.648438 90.636719 28.300781 90.605469 28.359375 C 88.039062 32.660156 82.691406 34.695312 78.113281 32.726562 C 77.902344 32.378906 76.59375 31.757812 76.476562 31.992188 C 75.917969 33.101562 75.246094 34.152344 74.476562 35.136719 C 70.851562 35.117188 67.203125 34.554688 63.84375 33.355469 C 63.375 32.335938 62.761719 31.363281 62.085938 30.480469 C 61.851562 30.171875 60.316406 29.613281 60.554688 29.929688 C 61.230469 30.8125 61.8125 31.75 62.242188 32.722656 C 59.472656 31.53125 56.949219 29.875 54.855469 27.6875 C 52.347656 25.070312 50.957031 21.621094 51.292969 18.015625 C 51.621094 14.472656 53.875 11.429688 56.523438 9.160156 C 64.03125 2.726562 75.945312 1.546875 85.253906 3.898438 C 92.21875 5.65625 99.871094 10.890625 100.015625 18.664062 C 99.863281 27 91.46875 31.925781 84.207031 33.886719 Z M 61.988281 42.484375 C 62.714844 41.828125 63.335938 41.054688 63.820312 40.230469 C 65.09375 38.082031 64.871094 35.785156 63.980469 33.671875 C 64.164062 33.738281 64.347656 33.796875 64.53125 33.859375 C 67.601562 34.855469 70.824219 35.445312 74.078125 35.632812 C 71.058594 39.246094 66.707031 41.800781 61.988281 42.484375 Z M 88.492188 4.644531 C 80.082031 1.582031 70.628906 1.3125 62.175781 4.390625 C 55.457031 6.835938 48.546875 12.503906 49.558594 20.269531 C 50.402344 26.738281 56.566406 30.816406 62.390625 33.089844 C 63.1875 35.105469 63.304688 37.25 62.164062 39.375 C 61.457031 40.6875 60.238281 41.925781 58.921875 42.664062 C 58.644531 42.824219 60.113281 43.582031 60.367188 43.589844 C 66.664062 43.75 72.6875 40.601562 76.367188 35.695312 C 80.703125 35.691406 85.035156 34.964844 89.066406 33.5 C 95.292969 31.230469 101.671875 26.300781 101.800781 19.222656 C 101.664062 11.871094 94.902344 6.976562 88.492188 4.644531 " fill-opacity="1" fill-rule="nonzero"/></g><path fill="rgb(0%, 29.019165%, 67.83905%)" d="M 96.664062 16.902344 C 96.445312 6.976562 83.871094 3.285156 75.683594 3.207031 C 67.496094 3.128906 54.917969 7.082031 54.699219 16.902344 C 54.695312 17.085938 54.703125 17.742188 54.707031 17.695312 C 54.925781 7.847656 67.621094 4.207031 75.683594 4.128906 C 83.742188 4.054688 96.445312 7.953125 96.660156 17.695312 C 96.660156 17.742188 96.667969 17.085938 96.664062 16.902344 " fill-opacity="1" fill-rule="nonzero"/><g clip-path="url(#id2)"><path fill="rgb(0%, 29.019165%, 67.83905%)" d="M 75.902344 37.464844 C 72.847656 41.847656 67.757812 44.523438 62.394531 44.242188 C 61.835938 44.210938 61.25 44.71875 60.699219 44.691406 C 62.828125 44.800781 64.976562 44.367188 67.019531 43.824219 C 71.3125 42.6875 75.023438 40.710938 77.597656 37.015625 C 77.351562 37.371094 76.160156 37.097656 75.902344 37.464844 " fill-opacity="1" fill-rule="nonzero"/></g><g clip-path="url(#id3)"><path fill="rgb(0%, 50.19989%, 21.569824%)" d="M 55.511719 49.941406 C 55.894531 48.398438 56.082031 46.808594 56.082031 45.214844 C 56.09375 33.101562 45.054688 23.253906 31.492188 23.253906 C 17.929688 23.253906 6.90625 33.101562 6.90625 45.214844 C 6.90625 46.808594 7.105469 48.382812 7.472656 49.941406 C 2.769531 53.109375 0 58.035156 0 63.355469 C 0 72.609375 8.410156 80.136719 18.746094 80.136719 L 30.785156 80.136719 L 30.785156 98.199219 C 30.785156 99.042969 31.476562 99.730469 32.324219 99.730469 C 33.167969 99.730469 33.859375 99.042969 33.859375 98.199219 L 33.859375 80.121094 L 44.253906 80.121094 C 54.589844 80.121094 62.984375 72.59375 62.984375 63.339844 C 63 58.035156 60.214844 53.109375 55.511719 49.941406 Z M 44.253906 77.0625 L 33.859375 77.0625 L 33.859375 56.871094 L 42.871094 48.566406 C 43.5 47.984375 43.53125 47.023438 42.949219 46.410156 C 42.363281 45.78125 41.394531 45.753906 40.78125 46.332031 L 33.859375 52.710938 L 33.859375 41.4375 C 33.859375 40.597656 33.167969 39.910156 32.324219 39.910156 C 31.476562 39.910156 30.785156 40.597656 30.785156 41.4375 L 30.785156 62.945312 L 23.867188 56.566406 C 23.234375 55.984375 22.265625 56.03125 21.695312 56.640625 C 21.113281 57.269531 21.160156 58.234375 21.773438 58.800781 L 30.785156 67.105469 L 30.785156 77.078125 L 18.746094 77.078125 C 10.101562 77.0625 3.074219 70.914062 3.074219 63.355469 C 3.074219 58.769531 5.675781 54.5 10.042969 51.945312 C 10.65625 51.578125 10.933594 50.859375 10.734375 50.171875 C 10.226562 48.550781 9.980469 46.882812 9.980469 45.214844 C 9.980469 34.800781 19.636719 26.3125 31.492188 26.3125 C 43.363281 26.3125 53.003906 34.800781 53.003906 45.214844 C 53.003906 46.882812 52.757812 48.550781 52.25 50.171875 C 52.035156 50.84375 52.328125 51.578125 52.945312 51.945312 C 57.308594 54.5 59.910156 58.769531 59.910156 63.355469 C 59.925781 70.914062 52.898438 77.0625 44.253906 77.0625 Z M 44.253906 77.0625 " fill-opacity="1" fill-rule="nonzero"/></g><g clip-path="url(#id4)"><path fill="rgb(0%, 50.19989%, 21.569824%)" d="M 142.546875 49.941406 C 142.933594 48.398438 143.117188 46.808594 143.117188 45.214844 C 143.132812 33.101562 132.089844 23.253906 118.527344 23.253906 C 104.964844 23.253906 93.941406 33.101562 93.941406 45.214844 C 93.941406 46.808594 94.140625 48.382812 94.507812 49.941406 C 89.804688 53.109375 87.035156 58.035156 87.035156 63.355469 C 87.035156 72.609375 95.449219 80.136719 105.78125 80.136719 L 117.820312 80.136719 L 117.820312 98.199219 C 117.820312 99.042969 118.511719 99.730469 119.359375 99.730469 C 120.203125 99.730469 120.898438 99.042969 120.898438 98.199219 L 120.898438 80.121094 L 131.292969 80.121094 C 141.625 80.121094 150.019531 72.59375 150.019531 63.339844 C 150.035156 58.035156 147.253906 53.109375 142.546875 49.941406 Z M 131.292969 77.0625 L 120.898438 77.0625 L 120.898438 56.871094 L 129.90625 48.566406 C 130.539062 47.984375 130.570312 47.023438 129.984375 46.410156 C 129.398438 45.78125 128.429688 45.753906 127.816406 46.332031 L 120.898438 52.710938 L 120.898438 41.4375 C 120.898438 40.597656 120.203125 39.910156 119.359375 39.910156 C 118.511719 39.910156 117.820312 40.597656 117.820312 41.4375 L 117.820312 62.945312 L 110.902344 56.566406 C 110.269531 55.984375 109.300781 56.03125 108.734375 56.640625 C 108.148438 57.269531 108.195312 58.234375 108.808594 58.800781 L 117.820312 67.105469 L 117.820312 77.078125 L 105.78125 77.078125 C 97.140625 77.0625 90.113281 70.914062 90.113281 63.355469 C 90.113281 58.769531 92.710938 54.5 97.078125 51.945312 C 97.691406 51.578125 97.96875 50.859375 97.769531 50.171875 C 97.261719 48.550781 97.015625 46.882812 97.015625 45.214844 C 97.015625 34.800781 106.671875 26.3125 118.527344 26.3125 C 130.398438 26.3125 140.042969 34.800781 140.042969 45.214844 C 140.042969 46.882812 139.796875 48.550781 139.289062 50.171875 C 139.074219 50.84375 139.363281 51.578125 139.980469 51.945312 C 144.347656 54.5 146.945312 58.769531 146.945312 63.355469 C 146.960938 70.914062 139.933594 77.0625 131.292969 77.0625 Z M 131.292969 77.0625 " fill-opacity="1" fill-rule="nonzero"/></g><g fill="rgb(32.939148%, 32.939148%, 32.939148%)" fill-opacity="1"><g transform="translate(37.425032, 136.572992)"><g><path d="M 3.910156 -3.328125 L 3.871094 -3.289062 C 3.910156 -3.328125 3.910156 -3.328125 3.910156 -3.371094 L 3.910156 -3.578125 C 4.367188 -6.035156 5.242188 -8.445312 6.117188 -10.820312 C 7.03125 -13.316406 7.90625 -15.769531 9.070312 -18.140625 C 10.152344 -20.386719 11.402344 -22.59375 12.816406 -24.632812 C 14.0625 -26.503906 15.5625 -28.542969 17.476562 -29.792969 C 18.058594 -29.957031 18.640625 -30.582031 19.390625 -30.457031 C 20.140625 -30.332031 20.140625 -29.542969 19.972656 -28.792969 C 20.179688 -29.375 20.304688 -30 19.804688 -30.417969 C 19.140625 -30.914062 17.851562 -30.125 17.308594 -29.75 C 17.058594 -29.667969 16.808594 -29.5 16.601562 -29.335938 C 16.726562 -29.460938 16.894531 -29.585938 17.101562 -29.707031 L 16.894531 -29.625 L 17.476562 -29.957031 C 18.140625 -30.332031 19.640625 -31.164062 20.140625 -30.082031 C 20.511719 -29.210938 19.929688 -27.753906 19.640625 -26.921875 C 19.097656 -25.507812 18.433594 -24.175781 17.726562 -22.84375 C 17.851562 -23.132812 18.351562 -24.257812 18.351562 -24.257812 C 18.058594 -24.300781 16.726562 -21.21875 16.476562 -21.136719 L 16.519531 -21.136719 C 16.351562 -21.011719 16.226562 -20.886719 16.226562 -20.847656 C 16.144531 -20.347656 16.726562 -20.472656 17.058594 -20.511719 C 18.472656 -20.679688 20.304688 -21.886719 21.21875 -22.925781 C 22.21875 -24.050781 22.59375 -25.757812 22.59375 -27.253906 L 22.59375 -27.296875 C 22.550781 -30.125 20.597656 -33.703125 17.226562 -33.496094 C 15.355469 -33.414062 13.605469 -31.582031 12.398438 -30.332031 C 11.527344 -29.335938 10.695312 -28.253906 9.945312 -27.171875 C 9.613281 -26.671875 9.277344 -26.214844 8.988281 -25.714844 C 8.65625 -25.257812 7.988281 -24.550781 7.824219 -24.007812 C 7.824219 -24.007812 8.03125 -24.257812 8.195312 -24.425781 C 7.738281 -23.71875 7.324219 -22.96875 6.90625 -22.261719 C 6.867188 -22.300781 7.15625 -22.886719 7.15625 -22.886719 C 6.78125 -22.96875 5.078125 -19.554688 4.867188 -19.183594 C 4.121094 -17.808594 3.453125 -16.4375 2.996094 -14.980469 C 2.496094 -13.355469 1.832031 -11.816406 1.332031 -10.234375 C 1.082031 -9.445312 0.832031 -8.695312 0.664062 -7.90625 C 0.582031 -7.53125 0.5 -7.199219 0.457031 -6.824219 C 0.457031 -6.78125 0.375 -6.117188 0.457031 -6.199219 C 0.375 -5.910156 0.375 -5.535156 0.332031 -5.242188 C 0.332031 -5.242188 0.332031 -5.949219 0.375 -6.035156 C 0.207031 -5.824219 0.332031 -5.035156 0.292969 -4.953125 C 0.0820312 -3.371094 -0.25 -1.707031 0.292969 -0.167969 C 1 1.957031 2.746094 3.703125 4.660156 4.828125 C 5.660156 5.449219 6.992188 6.15625 8.238281 6.074219 C 9.695312 5.992188 11.109375 4.785156 12.191406 3.910156 C 15.355469 1.25 18.226562 -2.496094 18.765625 -6.742188 C 18.808594 -7.03125 19.015625 -8.488281 18.515625 -8.53125 C 18.058594 -8.570312 17.726562 -7.574219 17.558594 -7.324219 C 16.3125 -5.285156 14.855469 -3.371094 13.230469 -1.621094 C 11.566406 0.207031 9.488281 2.164062 6.949219 2.746094 C 6.617188 2.828125 6.242188 2.871094 5.867188 2.871094 C 5.367188 2.828125 4.910156 2.703125 4.535156 2.332031 C 4.328125 2.121094 4.121094 1.414062 3.871094 1.289062 C 3.871094 1.082031 3.828125 0.875 3.785156 0.75 L 3.660156 0.5 C 3.621094 -0.75 3.660156 -1.914062 3.871094 -3.203125 L 3.871094 -3.246094 C 3.871094 -3.289062 3.910156 -3.289062 3.910156 -3.328125 Z M 11.234375 -23.675781 C 9.613281 -21.011719 8.238281 -18.265625 6.867188 -15.4375 C 6.074219 -13.773438 5.285156 -12.066406 4.660156 -10.277344 C 5.535156 -13.066406 6.574219 -15.726562 7.824219 -18.390625 C 9.320312 -21.59375 11.316406 -24.714844 13.6875 -27.296875 C 12.730469 -26.128906 11.898438 -24.800781 11.234375 -23.675781 Z M 15.519531 -28.253906 C 14.9375 -27.671875 14.398438 -27.003906 13.898438 -26.378906 C 14.6875 -27.421875 15.519531 -28.460938 16.558594 -29.292969 C 16.1875 -28.960938 15.8125 -28.542969 15.519531 -28.253906 Z M 19.765625 -27.917969 C 19.847656 -28.167969 19.929688 -28.460938 19.972656 -28.792969 C 19.890625 -28.417969 19.722656 -28.042969 19.722656 -27.753906 C 19.765625 -27.835938 19.765625 -27.878906 19.765625 -27.917969 Z M 19.765625 -27.917969 "/></g></g></g><g fill="rgb(32.939148%, 32.939148%, 32.939148%)" fill-opacity="1"><g transform="translate(58.187986, 136.572992)"><g><path d="M 20.636719 -10.234375 C 20.429688 -10.234375 20.140625 -9.820312 20.015625 -9.695312 C 19.429688 -9.113281 18.933594 -8.445312 18.433594 -7.824219 C 17.058594 -6.242188 15.6875 -4.617188 14.1875 -3.164062 C 13.8125 -2.828125 12.855469 -1.707031 12.316406 -2.082031 C 11.984375 -2.289062 12.273438 -3.621094 12.316406 -3.910156 C 12.398438 -4.285156 13.148438 -6.242188 12.898438 -6.492188 C 12.773438 -6.574219 12.566406 -5.949219 12.523438 -5.910156 C 13.191406 -8.238281 14.523438 -10.902344 15.601562 -13.191406 C 16.226562 -14.4375 17.019531 -15.976562 15.976562 -17.269531 C 14.148438 -19.515625 11.859375 -16.644531 10.609375 -15.3125 C 10.070312 -14.730469 4.828125 -8.320312 4.910156 -8.28125 C 4.910156 -8.28125 5.285156 -8.738281 5.824219 -9.363281 C 5.035156 -8.320312 4.285156 -7.28125 3.578125 -6.199219 C 4.035156 -7.90625 4.535156 -9.570312 5.078125 -11.234375 C 5.367188 -12.066406 5.617188 -12.941406 5.910156 -13.8125 C 6.242188 -14.730469 6.492188 -15.105469 7.199219 -15.769531 C 8.40625 -16.851562 9.570312 -18.015625 10.652344 -19.265625 C 11.066406 -19.765625 11.359375 -20.347656 11.773438 -20.804688 C 12.148438 -21.179688 12.691406 -21.511719 13.105469 -21.96875 C 15.230469 -24.464844 16.933594 -27.585938 18.351562 -30.5 C 18.972656 -31.871094 19.554688 -33.289062 19.972656 -34.742188 C 20.054688 -35.078125 20.972656 -38.90625 20.761719 -38.90625 C 20.722656 -38.90625 20.722656 -38.863281 20.679688 -38.78125 C 20.722656 -39.445312 20.679688 -40.195312 20.429688 -40.859375 C 20.472656 -40.859375 20.679688 -40.234375 20.679688 -40.234375 C 20.929688 -40.402344 20.179688 -41.691406 20.015625 -41.859375 C 19.640625 -42.234375 19.097656 -42.441406 18.558594 -42.441406 C 17.476562 -42.523438 16.476562 -41.941406 15.644531 -41.316406 C 14.0625 -40.109375 12.941406 -38.320312 11.773438 -36.699219 C 11.109375 -35.785156 10.484375 -34.867188 9.902344 -33.910156 C 9.488281 -33.289062 8.570312 -32.164062 8.570312 -31.414062 C 8.613281 -31.375 8.65625 -31.375 8.65625 -31.375 L 8.15625 -30.417969 C 8.15625 -30.417969 8.40625 -31.164062 8.445312 -31.207031 C 8.238281 -31.082031 8.03125 -30.207031 8.03125 -30.167969 C 6.40625 -27.003906 4.703125 -23.96875 3.578125 -20.597656 C 2.289062 -16.808594 1.332031 -12.898438 0.625 -8.988281 C 0.292969 -7.199219 -0.125 -5.242188 0.0429688 -3.410156 C 0.0429688 -2.914062 0.0820312 -2.332031 0.457031 -1.914062 C 0.914062 -1.332031 1.871094 -1.125 2.414062 -1.707031 C 2.578125 -1.914062 2.578125 -2.039062 2.664062 -2.246094 L 3.410156 -3.578125 C 4.410156 -5.117188 5.617188 -6.53125 6.574219 -8.113281 C 6.699219 -8.363281 6.824219 -8.65625 6.992188 -8.863281 C 7.199219 -9.113281 7.28125 -8.988281 7.53125 -9.195312 C 8.238281 -9.777344 8.78125 -10.652344 9.363281 -11.359375 C 10.570312 -12.855469 11.773438 -14.5625 13.316406 -15.8125 L 12.109375 -12.898438 L 12.234375 -13.023438 L 11.609375 -11.609375 C 11.566406 -11.652344 11.734375 -12.023438 11.734375 -12.066406 C 11.566406 -12.066406 10.777344 -10.445312 10.695312 -10.277344 C 10.195312 -9.277344 9.652344 -8.28125 9.363281 -7.238281 C 9.113281 -6.242188 8.820312 -5.242188 8.53125 -4.242188 C 8.40625 -3.621094 8.28125 -2.996094 8.320312 -2.371094 C 8.320312 -2.207031 8.65625 -0.707031 8.78125 -0.832031 L 8.78125 -1 C 8.863281 -0.75 8.945312 -0.539062 9.070312 -0.332031 L 8.820312 -0.707031 C 8.695312 -0.417969 9.820312 0.539062 9.945312 0.664062 C 10.570312 1.289062 11.191406 1.707031 12.148438 1.746094 C 12.941406 1.789062 13.355469 1.496094 13.9375 0.957031 C 15.519531 -0.582031 16.644531 -2.703125 17.851562 -4.535156 C 18.515625 -5.492188 19.183594 -6.492188 19.804688 -7.488281 C 19.972656 -7.699219 21.097656 -10.027344 20.929688 -9.984375 C 21.179688 -10.027344 20.722656 -10.234375 20.636719 -10.234375 Z M 17.019531 -38.238281 L 17.019531 -38.28125 C 17.019531 -38.28125 17.058594 -38.28125 17.058594 -38.320312 L 17.058594 -38.28125 C 17.101562 -38.363281 17.144531 -38.445312 17.101562 -38.40625 C 17.433594 -38.90625 18.265625 -40.402344 18.847656 -39.902344 C 19.429688 -39.402344 18.890625 -37.65625 18.722656 -37.03125 C 18.390625 -35.742188 17.890625 -34.492188 17.394531 -33.289062 C 16.394531 -30.957031 15.144531 -28.75 13.773438 -26.589844 C 13.105469 -25.546875 12.398438 -24.507812 11.691406 -23.507812 C 11.316406 -23.011719 10.941406 -22.511719 10.527344 -22.011719 L 10.195312 -21.636719 L 10.941406 -22.386719 L 12.609375 -24.714844 C 13.523438 -25.964844 14.398438 -27.335938 15.230469 -28.710938 C 13.105469 -24.964844 10.527344 -21.429688 7.53125 -18.265625 L 8.78125 -21.554688 C 8.90625 -21.804688 9.777344 -24.257812 9.777344 -24.257812 C 9.695312 -24.214844 9.570312 -24.007812 9.445312 -23.800781 C 10.445312 -26.089844 11.734375 -28.460938 12.898438 -30.75 C 14.1875 -33.246094 15.480469 -35.824219 16.976562 -38.195312 C 16.976562 -38.195312 17.019531 -38.195312 17.019531 -38.238281 Z M 6.574219 -17.851562 C 6.949219 -20.097656 7.988281 -22.21875 8.738281 -24.382812 C 9.402344 -26.214844 10.484375 -27.878906 11.316406 -29.625 C 11.691406 -30.457031 15.6875 -38.074219 15.769531 -38.03125 C 16.101562 -37.824219 10.984375 -28.042969 10.445312 -26.878906 C 9.984375 -26.003906 9.570312 -25.171875 9.238281 -24.214844 C 8.945312 -23.300781 8.445312 -22.550781 8.113281 -21.679688 C 7.949219 -21.261719 6.28125 -16.894531 6.40625 -16.851562 C 6.324219 -16.851562 6.492188 -17.515625 6.53125 -17.726562 Z M 9.445312 -20.761719 C 9.527344 -20.847656 9.613281 -21.011719 9.738281 -21.136719 C 9.613281 -21.011719 9.527344 -20.886719 9.445312 -20.761719 Z M 17.019531 -38.238281 L 17.019531 -38.28125 L 17.058594 -38.28125 Z M 6.574219 -17.808594 C 6.574219 -17.765625 6.53125 -17.726562 6.53125 -17.726562 C 6.53125 -17.765625 6.574219 -17.765625 6.574219 -17.808594 Z M 6.574219 -17.808594 "/></g></g></g><g fill="rgb(32.939148%, 32.939148%, 32.939148%)" fill-opacity="1"><g transform="translate(76.121513, 136.572992)"><g><path d="M 21.179688 -10.027344 C 21.136719 -10.941406 20.386719 -10.152344 20.140625 -9.820312 C 19.597656 -9.027344 19.097656 -8.195312 18.597656 -7.40625 C 17.476562 -5.699219 16.351562 -3.996094 15.0625 -2.371094 C 10.777344 2.914062 13.773438 -6.492188 13.441406 -6.40625 C 13.273438 -6.367188 13.148438 -5.742188 13.105469 -5.617188 C 13.441406 -7.113281 14.0625 -8.90625 14.855469 -10.359375 C 15.3125 -11.277344 15.851562 -12.023438 15.019531 -13.023438 C 13.480469 -14.894531 11.691406 -13.191406 10.695312 -11.898438 C 10.277344 -13.480469 9.445312 -15.8125 7.40625 -15.8125 C 6.492188 -15.8125 5.949219 -15.355469 5.324219 -14.8125 C 4.953125 -14.5625 4.660156 -14.523438 4.328125 -14.230469 C 3.785156 -13.855469 3.410156 -13.273438 3.039062 -12.773438 C 1.621094 -10.695312 0.625 -8.070312 0.167969 -5.660156 C -0.0429688 -4.492188 -0.125 -3.203125 0.207031 -2.039062 C 0.417969 -1.375 1.164062 0.125 2.121094 0 C 2.164062 0 2.082031 -0.0429688 1.957031 -0.125 C 2.539062 0.0429688 3.203125 -0.0429688 3.703125 -0.375 C 3.746094 -0.292969 3.246094 -0.0820312 3.246094 -0.0820312 C 3.703125 0.625 7.113281 -3.496094 7.363281 -3.871094 C 7.90625 -4.617188 8.28125 -5.410156 8.78125 -6.199219 C 9.152344 -6.78125 9.738281 -7.53125 10.152344 -8.15625 C 10.109375 -7.863281 10.109375 -7.488281 10.109375 -7.488281 C 9.363281 -5.117188 8.65625 -2.539062 9.652344 -0.0820312 C 10.109375 1.164062 11.234375 2.332031 12.648438 2.082031 C 13.898438 1.871094 14.9375 0.664062 15.6875 -0.292969 C 16.601562 -1.375 17.394531 -2.578125 18.183594 -3.828125 C 18.847656 -4.953125 19.472656 -6.074219 20.015625 -7.324219 C 20.347656 -8.113281 21.261719 -9.070312 21.179688 -10.027344 Z M 9.238281 -9.738281 C 9.027344 -9.445312 8.820312 -9.152344 8.65625 -8.863281 L 7.574219 -7.324219 C 6.867188 -6.28125 6.117188 -5.285156 5.324219 -4.328125 C 5.117188 -4.035156 4.121094 -2.746094 3.703125 -2.871094 C 3.078125 -3.078125 3.746094 -5.242188 3.828125 -5.574219 C 3.953125 -6.15625 6.15625 -12.566406 6.742188 -12.691406 C 5.992188 -12.730469 3.578125 -5.199219 3.453125 -4.578125 C 3.785156 -6.617188 4.535156 -8.613281 5.367188 -10.484375 C 5.824219 -11.441406 6.867188 -13.980469 8.238281 -13.980469 C 8.988281 -13.980469 9.152344 -12.441406 9.277344 -11.941406 C 9.238281 -12.023438 8.863281 -13.230469 8.820312 -13.191406 C 8.613281 -13.023438 9.445312 -10.734375 9.445312 -10.402344 C 9.445312 -10.070312 9.445312 -10.070312 9.238281 -9.738281 Z M 10.195312 -7.699219 C 10.195312 -7.699219 10.320312 -8.28125 10.359375 -8.40625 L 10.570312 -8.695312 Z M 9.570312 -10.277344 L 9.570312 -10.695312 C 9.695312 -10.527344 9.695312 -10.402344 9.570312 -10.277344 Z M 9.570312 -10.277344 "/></g></g></g><g fill="rgb(32.939148%, 32.939148%, 32.939148%)" fill-opacity="1"><g transform="translate(94.263086, 136.572992)"><g><path d="M 16.894531 -21.636719 C 16.851562 -22.21875 16.226562 -21.761719 15.894531 -21.761719 C 14.230469 -21.679688 12.566406 -21.679688 10.941406 -21.59375 C 10.941406 -21.636719 11.027344 -21.804688 11.152344 -22.054688 C 10.984375 -21.761719 10.859375 -21.59375 10.734375 -21.59375 C 11.984375 -24.132812 13.316406 -26.671875 14.894531 -29 C 14.855469 -28.917969 14.230469 -27.878906 14.273438 -27.878906 C 14.398438 -27.835938 15.9375 -29.957031 15.976562 -30.25 C 15.976562 -30.417969 15.601562 -30 15.601562 -30.042969 C 15.851562 -30.292969 16.269531 -30.5 16.394531 -30.832031 C 16.683594 -31.664062 15.8125 -32.039062 15.1875 -32.164062 C 13.898438 -32.414062 12.441406 -32.246094 11.609375 -31.164062 C 10.820312 -30.207031 10.234375 -29.085938 9.738281 -27.960938 C 9.488281 -27.460938 9.152344 -27.335938 8.820312 -26.878906 C 8.320312 -26.171875 7.988281 -25.339844 7.613281 -24.550781 C 7.28125 -23.84375 6.949219 -23.09375 6.65625 -22.34375 C 6.492188 -21.96875 6.492188 -21.679688 6.117188 -21.554688 C 5.742188 -21.386719 5.035156 -21.511719 4.617188 -21.46875 C 2.996094 -21.261719 1.414062 -21.34375 -0.207031 -21.179688 C -1.039062 -21.136719 -1.871094 -21.136719 -2.664062 -20.847656 C -2.828125 -20.804688 -3.746094 -20.597656 -3.828125 -20.472656 C -4.078125 -20.015625 -3.078125 -19.972656 -2.871094 -19.929688 C -1.289062 -19.722656 0.707031 -19.554688 2.289062 -19.847656 C 3.371094 -20.054688 4.492188 -19.972656 5.660156 -20.054688 C 5.078125 -18.808594 4.617188 -17.476562 4.160156 -16.144531 L 3.660156 -14.6875 C 3.496094 -14.230469 2.953125 -13.355469 2.953125 -12.855469 C 2.953125 -12.773438 3.078125 -12.980469 3.164062 -13.191406 C 2.953125 -12.566406 2.703125 -11.941406 2.539062 -11.316406 C 2.539062 -11.359375 2.664062 -11.859375 2.621094 -11.859375 C 2.414062 -11.859375 1.582031 -9.320312 1.496094 -9.113281 C 1.082031 -7.863281 0.625 -6.617188 0.417969 -5.285156 C 0.167969 -3.953125 -0.167969 -2.664062 -0.457031 -1.375 C -0.625 -0.707031 -0.789062 -0.0820312 -0.875 0.582031 C -0.957031 0.914062 -1.039062 1.289062 -1.039062 1.621094 C -1.039062 1.707031 -1.039062 2.246094 -0.957031 2.082031 L -1.039062 2.914062 L -1.039062 2.289062 C -1.289062 2.578125 -1.039062 3.910156 -1 4.160156 C -0.832031 4.992188 -0.417969 5.742188 0.332031 6.242188 C 1 6.742188 2.039062 7.199219 2.828125 6.824219 C 3.871094 6.324219 4.742188 5.160156 5.410156 4.328125 C 6.867188 2.621094 8.195312 0.832031 9.527344 -0.957031 C 10.734375 -2.621094 11.984375 -4.242188 13.023438 -5.992188 C 13.605469 -6.992188 14.730469 -7.90625 15.105469 -9.027344 C 15.3125 -9.570312 15.1875 -10.234375 14.523438 -10.109375 C 13.980469 -9.984375 13.230469 -8.53125 12.898438 -8.113281 C 11.402344 -6.242188 9.984375 -4.328125 8.488281 -2.453125 L 6.074219 0.5 C 5.699219 0.914062 5.324219 1.375 4.910156 1.789062 C 4.742188 1.996094 3.703125 2.828125 3.746094 3.078125 C 3.746094 3.164062 4.203125 2.789062 4.367188 2.664062 C 4.160156 2.914062 3.910156 3.121094 3.703125 3.328125 C 3.746094 3.289062 2.871094 3.785156 2.746094 3.703125 C 1.957031 3.371094 2.664062 0.957031 2.789062 0.375 C 3.535156 -2.996094 4.660156 -6.40625 5.785156 -9.652344 C 6.449219 -11.441406 7.113281 -13.148438 7.863281 -14.894531 C 8.238281 -15.769531 8.613281 -16.683594 9.027344 -17.558594 L 9.613281 -19.140625 L 9.152344 -18.226562 C 9.445312 -18.972656 9.863281 -20.097656 10.109375 -20.140625 L 9.984375 -19.890625 C 10.070312 -20.015625 10.152344 -20.097656 10.234375 -20.140625 C 10.695312 -20.429688 11.859375 -20.140625 12.398438 -20.140625 C 12.773438 -20.140625 13.230469 -20.097656 13.605469 -20.222656 C 13.855469 -20.304688 13.773438 -20.429688 14.0625 -20.511719 C 14.5625 -20.597656 15.1875 -20.261719 15.726562 -20.429688 C 16.226562 -20.554688 16.933594 -21.011719 16.894531 -21.59375 Z M 8.988281 -19.222656 C 7.113281 -15.269531 5.699219 -11.027344 4.203125 -6.90625 C 3.496094 -5.035156 2.828125 -3.078125 2.371094 -1.125 L 2.164062 -0.332031 C 2.453125 -1.832031 2.789062 -3.289062 3.203125 -4.742188 C 4.121094 -7.949219 5.285156 -11.109375 6.65625 -14.148438 C 8.988281 -19.347656 11.066406 -24.925781 14.398438 -29.625 C 12.148438 -26.421875 10.652344 -22.761719 8.988281 -19.222656 Z M 11.734375 -23.34375 L 12.730469 -25.257812 C 12.523438 -25.214844 12.148438 -24.300781 11.734375 -23.34375 Z M 7.449219 -14.273438 C 7.15625 -13.480469 6.824219 -12.730469 6.492188 -11.984375 C 6.824219 -12.773438 7.113281 -13.605469 7.488281 -14.4375 C 7.449219 -14.355469 7.449219 -14.3125 7.449219 -14.273438 Z M 11.191406 -22.136719 L 11.609375 -23.050781 C 11.484375 -22.71875 11.316406 -22.386719 11.191406 -22.136719 Z M 2.121094 4.078125 C 2.082031 4.078125 2.039062 4.035156 1.996094 3.996094 Z M 2.121094 4.078125 "/></g></g></g></svg>