<svg xmlns="http://www.w3.org/2000/svg" xmlns:xlink="http://www.w3.org/1999/xlink" width="500" zoomAndPan="magnify" viewBox="0 0 375 374.999991" height="500" preserveAspectRatio="xMidYMid meet" version="1.0"><defs><g/><clipPath id="id1"><path d="M 123 25 L 253.371094 25 L 253.371094 130 L 123 130 Z M 123 25 " clip-rule="nonzero"/></clipPath><clipPath id="id2"><path d="M 151 113 L 194 113 L 194 132.671875 L 151 132.671875 Z M 151 113 " clip-rule="nonzero"/></clipPath><clipPath id="id3"><path d="M 8.820312 98.171875 L 166.320312 98.171875 L 166.320312 290.171875 L 8.820312 290.171875 Z M 8.820312 98.171875 " clip-rule="nonzero"/></clipPath><clipPath id="id4"><path d="M 215.140625 98.171875 L 372.640625 98.171875 L 372.640625 290.171875 L 215.140625 290.171875 Z M 215.140625 98.171875 " clip-rule="nonzero"/></clipPath></defs><g clip-path="url(#id1)"><path fill="rgb(0%, 29.019165%, 67.83905%)" d="M 209.761719 105.167969 C 203.941406 106.765625 197.746094 107.785156 191.441406 108.15625 C 192.617188 106.421875 193.683594 104.613281 194.625 102.730469 C 194.980469 102.855469 195.339844 102.976562 195.703125 103.085938 C 208.125 106.789062 220.925781 103.507812 227.800781 91.8125 C 227.710938 91.988281 225.699219 91.113281 225.621094 91.257812 C 219.261719 102.078125 206.011719 107.203125 194.660156 102.242188 C 194.136719 101.375 190.890625 99.8125 190.601562 100.398438 C 189.222656 103.195312 187.550781 105.839844 185.648438 108.3125 C 176.65625 108.261719 167.613281 106.847656 159.285156 103.832031 C 158.125 101.265625 156.601562 98.820312 154.933594 96.597656 C 154.347656 95.820312 150.546875 94.417969 151.136719 95.203125 C 152.804688 97.429688 154.25 99.792969 155.3125 102.238281 C 148.457031 99.238281 142.195312 95.070312 137.007812 89.570312 C 130.785156 82.976562 127.339844 74.304688 128.171875 65.226562 C 128.992188 56.304688 134.578125 48.648438 141.140625 42.941406 C 159.75 26.746094 189.28125 23.777344 212.355469 29.695312 C 229.625 34.125 248.597656 47.292969 248.953125 66.859375 C 248.570312 87.839844 227.761719 100.230469 209.761719 105.167969 Z M 154.691406 126.804688 C 156.484375 125.152344 158.023438 123.210938 159.230469 121.132812 C 162.382812 115.726562 161.828125 109.945312 159.621094 104.628906 C 160.082031 104.789062 160.539062 104.945312 160.992188 105.097656 C 168.597656 107.609375 176.589844 109.09375 184.652344 109.5625 C 177.167969 118.652344 166.386719 125.082031 154.691406 126.804688 Z M 220.390625 31.570312 C 199.539062 23.867188 176.101562 23.191406 155.152344 30.933594 C 138.5 37.085938 121.363281 51.351562 123.875 70.898438 C 125.96875 87.179688 141.25 97.4375 155.6875 103.167969 C 157.660156 108.230469 157.945312 113.636719 155.117188 118.980469 C 153.367188 122.285156 150.347656 125.398438 147.089844 127.261719 C 146.394531 127.660156 150.035156 129.566406 150.664062 129.582031 C 166.28125 129.988281 181.210938 122.070312 190.335938 109.722656 C 201.078125 109.707031 211.8125 107.882812 221.808594 104.191406 C 237.242188 98.488281 253.054688 86.078125 253.378906 68.269531 C 253.039062 49.761719 236.273438 37.4375 220.390625 31.570312 " fill-opacity="1" fill-rule="nonzero"/></g><path fill="rgb(0%, 29.019165%, 67.83905%)" d="M 240.648438 62.417969 C 240.101562 37.441406 208.929688 28.152344 188.632812 27.957031 C 168.34375 27.765625 137.164062 37.710938 136.621094 62.417969 C 136.613281 62.882812 136.632812 64.542969 136.632812 64.425781 C 137.175781 39.636719 168.652344 30.46875 188.632812 30.28125 C 208.613281 30.089844 240.097656 39.90625 240.636719 64.425781 C 240.640625 64.542969 240.65625 62.882812 240.648438 62.417969 " fill-opacity="1" fill-rule="nonzero"/><g clip-path="url(#id2)"><path fill="rgb(0%, 29.019165%, 67.83905%)" d="M 189.179688 114.171875 C 181.605469 125.199219 168.992188 131.933594 155.691406 131.230469 C 154.308594 131.15625 152.855469 132.429688 151.488281 132.355469 C 156.765625 132.636719 162.09375 131.542969 167.160156 130.179688 C 177.804688 127.316406 186.996094 122.34375 193.382812 113.046875 C 192.769531 113.9375 189.816406 113.246094 189.179688 114.171875 " fill-opacity="1" fill-rule="nonzero"/></g><g clip-path="url(#id3)"><path fill="rgb(0%, 50.19989%, 21.569824%)" d="M 147.597656 165.1875 C 148.558594 161.308594 149.023438 157.316406 149.023438 153.324219 C 149.058594 122.917969 121.457031 98.195312 87.550781 98.195312 C 53.644531 98.195312 26.082031 122.917969 26.082031 153.324219 C 26.082031 157.316406 26.582031 161.269531 27.503906 165.1875 C 15.742188 173.132812 8.820312 185.496094 8.820312 198.855469 C 8.820312 222.082031 29.847656 240.972656 55.683594 240.972656 L 85.785156 240.972656 L 85.785156 286.3125 C 85.785156 288.425781 87.511719 290.152344 89.628906 290.152344 C 91.742188 290.152344 93.472656 288.425781 93.472656 286.3125 L 93.472656 240.933594 L 119.460938 240.933594 C 145.292969 240.933594 166.28125 222.046875 166.28125 198.820312 C 166.320312 185.496094 159.363281 173.132812 147.597656 165.1875 Z M 119.460938 233.257812 L 93.472656 233.257812 L 93.472656 182.578125 L 116 161.730469 C 117.574219 160.273438 117.652344 157.855469 116.191406 156.320312 C 114.730469 154.746094 112.308594 154.667969 110.769531 156.125 L 93.472656 172.136719 L 93.472656 143.839844 C 93.472656 141.730469 91.742188 140.003906 89.628906 140.003906 C 87.511719 140.003906 85.785156 141.730469 85.785156 143.839844 L 85.785156 197.820312 L 68.484375 181.8125 C 66.90625 180.351562 64.484375 180.46875 63.0625 182.003906 C 61.601562 183.578125 61.71875 185.996094 63.253906 187.417969 L 85.785156 208.261719 L 85.785156 233.292969 L 55.683594 233.292969 C 34.078125 233.257812 16.507812 217.824219 16.507812 198.855469 C 16.507812 187.339844 23.007812 176.628906 33.925781 170.214844 C 35.460938 169.296875 36.152344 167.492188 35.652344 165.761719 C 34.386719 161.695312 33.769531 157.507812 33.769531 153.324219 C 33.769531 127.179688 57.914062 105.871094 87.550781 105.871094 C 117.230469 105.871094 141.332031 127.179688 141.332031 153.324219 C 141.332031 157.507812 140.71875 161.695312 139.449219 165.761719 C 138.910156 167.453125 139.640625 169.296875 141.179688 170.214844 C 152.097656 176.628906 158.59375 187.339844 158.59375 198.855469 C 158.632812 217.824219 141.0625 233.257812 119.460938 233.257812 Z M 119.460938 233.257812 " fill-opacity="1" fill-rule="nonzero"/></g><g clip-path="url(#id4)"><path fill="rgb(0%, 50.19989%, 21.569824%)" d="M 353.917969 165.1875 C 354.878906 161.308594 355.339844 157.316406 355.339844 153.324219 C 355.378906 122.917969 327.777344 98.195312 293.871094 98.195312 C 259.964844 98.195312 232.402344 122.917969 232.402344 153.324219 C 232.402344 157.316406 232.902344 161.269531 233.824219 165.1875 C 222.0625 173.132812 215.140625 185.496094 215.140625 198.855469 C 215.140625 222.082031 236.167969 240.972656 262.003906 240.972656 L 292.101562 240.972656 L 292.101562 286.3125 C 292.101562 288.425781 293.832031 290.152344 295.949219 290.152344 C 298.0625 290.152344 299.792969 288.425781 299.792969 286.3125 L 299.792969 240.933594 L 325.777344 240.933594 C 351.613281 240.933594 372.601562 222.046875 372.601562 198.820312 C 372.640625 185.496094 365.683594 173.132812 353.917969 165.1875 Z M 325.777344 233.257812 L 299.792969 233.257812 L 299.792969 182.578125 L 322.320312 161.730469 C 323.894531 160.273438 323.972656 157.855469 322.511719 156.320312 C 321.050781 154.746094 318.628906 154.667969 317.089844 156.125 L 299.792969 172.136719 L 299.792969 143.839844 C 299.792969 141.730469 298.0625 140.003906 295.949219 140.003906 C 293.832031 140.003906 292.101562 141.730469 292.101562 143.839844 L 292.101562 197.820312 L 274.804688 181.8125 C 273.226562 180.351562 270.804688 180.46875 269.382812 182.003906 C 267.921875 183.578125 268.039062 185.996094 269.574219 187.417969 L 292.101562 208.261719 L 292.101562 233.292969 L 262.003906 233.292969 C 240.398438 233.257812 222.828125 217.824219 222.828125 198.855469 C 222.828125 187.339844 229.328125 176.628906 240.242188 170.214844 C 241.78125 169.296875 242.472656 167.492188 241.972656 165.761719 C 240.707031 161.695312 240.089844 157.507812 240.089844 153.324219 C 240.089844 127.179688 264.230469 105.871094 293.871094 105.871094 C 323.550781 105.871094 347.652344 127.179688 347.652344 153.324219 C 347.652344 157.507812 347.039062 161.695312 345.769531 165.761719 C 345.230469 167.453125 345.960938 169.296875 347.5 170.214844 C 358.417969 176.628906 364.914062 187.339844 364.914062 198.855469 C 364.953125 217.824219 347.382812 233.257812 325.777344 233.257812 Z M 325.777344 233.257812 " fill-opacity="1" fill-rule="nonzero"/></g><g fill="rgb(32.939148%, 32.939148%, 32.939148%)" fill-opacity="1"><g transform="translate(128.977129, 343.737311)"><g><path d="M 5.726562 -4.875 L 5.667969 -4.8125 C 5.726562 -4.875 5.726562 -4.875 5.726562 -4.9375 L 5.726562 -5.242188 C 6.398438 -8.835938 7.679688 -12.371094 8.957031 -15.84375 C 10.296875 -19.5 11.578125 -23.09375 13.285156 -26.570312 C 14.867188 -29.859375 16.695312 -33.089844 18.769531 -36.074219 C 20.597656 -38.816406 22.789062 -41.804688 25.59375 -43.632812 C 26.445312 -43.875 27.300781 -44.789062 28.398438 -44.605469 C 29.492188 -44.421875 29.492188 -43.265625 29.25 -42.167969 C 29.554688 -43.023438 29.738281 -43.9375 29.007812 -44.546875 C 28.03125 -45.277344 26.140625 -44.117188 25.351562 -43.570312 C 24.984375 -43.449219 24.617188 -43.203125 24.3125 -42.960938 C 24.496094 -43.144531 24.742188 -43.328125 25.046875 -43.507812 L 24.742188 -43.386719 L 25.59375 -43.875 C 26.570312 -44.421875 28.761719 -45.640625 29.492188 -44.058594 C 30.042969 -42.777344 29.1875 -40.644531 28.761719 -39.425781 C 27.96875 -37.355469 26.996094 -35.40625 25.960938 -33.453125 C 26.140625 -33.882812 26.875 -35.527344 26.875 -35.527344 C 26.445312 -35.585938 24.496094 -31.078125 24.132812 -30.957031 L 24.191406 -30.957031 C 23.949219 -30.773438 23.765625 -30.589844 23.765625 -30.53125 C 23.644531 -29.796875 24.496094 -29.980469 24.984375 -30.042969 C 27.054688 -30.285156 29.738281 -32.054688 31.078125 -33.578125 C 32.539062 -35.222656 33.089844 -37.71875 33.089844 -39.914062 L 33.089844 -39.976562 C 33.027344 -44.117188 30.164062 -49.359375 25.226562 -49.054688 C 22.484375 -48.933594 19.925781 -46.25 18.160156 -44.421875 C 16.878906 -42.960938 15.660156 -41.375 14.5625 -39.792969 C 14.078125 -39.0625 13.589844 -38.390625 13.164062 -37.660156 C 12.675781 -36.988281 11.699219 -35.953125 11.457031 -35.160156 C 11.457031 -35.160156 11.761719 -35.527344 12.003906 -35.769531 C 11.335938 -34.734375 10.726562 -33.636719 10.117188 -32.601562 C 10.054688 -32.664062 10.480469 -33.515625 10.480469 -33.515625 C 9.933594 -33.636719 7.433594 -28.640625 7.128906 -28.09375 C 6.03125 -26.082031 5.058594 -24.070312 4.386719 -21.9375 C 3.65625 -19.5625 2.679688 -17.304688 1.949219 -14.992188 C 1.585938 -13.832031 1.21875 -12.734375 0.976562 -11.578125 C 0.851562 -11.03125 0.730469 -10.542969 0.671875 -9.992188 C 0.671875 -9.933594 0.546875 -8.957031 0.671875 -9.078125 C 0.546875 -8.652344 0.546875 -8.105469 0.488281 -7.679688 C 0.488281 -7.679688 0.488281 -8.714844 0.546875 -8.835938 C 0.304688 -8.53125 0.488281 -7.375 0.425781 -7.25 C 0.121094 -4.9375 -0.367188 -2.5 0.425781 -0.242188 C 1.460938 2.863281 4.023438 5.421875 6.824219 7.070312 C 8.289062 7.984375 10.238281 9.019531 12.066406 8.898438 C 14.199219 8.773438 16.269531 7.007812 17.855469 5.726562 C 22.484375 1.828125 26.691406 -3.65625 27.484375 -9.871094 C 27.542969 -10.296875 27.847656 -12.429688 27.117188 -12.492188 C 26.445312 -12.554688 25.960938 -11.089844 25.714844 -10.726562 C 23.886719 -7.738281 21.753906 -4.9375 19.378906 -2.375 C 16.941406 0.304688 13.894531 3.167969 10.175781 4.023438 C 9.6875 4.144531 9.140625 4.203125 8.59375 4.203125 C 7.859375 4.144531 7.191406 3.960938 6.640625 3.414062 C 6.335938 3.109375 6.03125 2.070312 5.667969 1.890625 C 5.667969 1.585938 5.605469 1.28125 5.546875 1.097656 L 5.363281 0.730469 C 5.300781 -1.097656 5.363281 -2.804688 5.667969 -4.691406 L 5.667969 -4.753906 C 5.667969 -4.8125 5.726562 -4.8125 5.726562 -4.875 Z M 16.453125 -34.671875 C 14.078125 -30.773438 12.066406 -26.75 10.054688 -22.609375 C 8.898438 -20.171875 7.738281 -17.671875 6.824219 -15.050781 C 8.105469 -19.132812 9.628906 -23.035156 11.457031 -26.933594 C 13.648438 -31.625 16.574219 -36.195312 20.046875 -39.976562 C 18.648438 -38.269531 17.429688 -36.320312 16.453125 -34.671875 Z M 22.730469 -41.375 C 21.875 -40.523438 21.085938 -39.546875 20.351562 -38.632812 C 21.511719 -40.15625 22.730469 -41.679688 24.253906 -42.898438 C 23.703125 -42.414062 23.15625 -41.804688 22.730469 -41.375 Z M 28.945312 -40.890625 C 29.066406 -41.253906 29.1875 -41.679688 29.25 -42.167969 C 29.128906 -41.621094 28.882812 -41.070312 28.882812 -40.644531 C 28.945312 -40.765625 28.945312 -40.828125 28.945312 -40.890625 Z M 28.945312 -40.890625 "/></g></g></g><g fill="rgb(32.939148%, 32.939148%, 32.939148%)" fill-opacity="1"><g transform="translate(159.384926, 343.737311)"><g><path d="M 30.226562 -14.992188 C 29.921875 -14.992188 29.492188 -14.382812 29.3125 -14.199219 C 28.457031 -13.34375 27.726562 -12.371094 26.996094 -11.457031 C 24.984375 -9.140625 22.972656 -6.765625 20.78125 -4.632812 C 20.230469 -4.144531 18.828125 -2.5 18.039062 -3.046875 C 17.550781 -3.351562 17.976562 -5.300781 18.039062 -5.726562 C 18.160156 -6.277344 19.257812 -9.140625 18.890625 -9.507812 C 18.707031 -9.628906 18.402344 -8.714844 18.34375 -8.652344 C 19.316406 -12.066406 21.265625 -15.964844 22.851562 -19.316406 C 23.765625 -21.144531 24.921875 -23.398438 23.398438 -25.289062 C 20.71875 -28.578125 17.367188 -24.375 15.539062 -22.425781 C 14.746094 -21.570312 7.070312 -12.1875 7.191406 -12.125 C 7.191406 -12.125 7.738281 -12.796875 8.53125 -13.710938 C 7.375 -12.1875 6.277344 -10.664062 5.242188 -9.078125 C 5.910156 -11.578125 6.640625 -14.015625 7.433594 -16.453125 C 7.859375 -17.671875 8.226562 -18.953125 8.652344 -20.230469 C 9.140625 -21.570312 9.507812 -22.121094 10.542969 -23.09375 C 12.308594 -24.679688 14.015625 -26.386719 15.601562 -28.214844 C 16.210938 -28.945312 16.636719 -29.796875 17.246094 -30.46875 C 17.792969 -31.015625 18.585938 -31.503906 19.195312 -32.175781 C 22.304688 -35.832031 24.800781 -40.402344 26.875 -44.667969 C 27.789062 -46.679688 28.640625 -48.75 29.25 -50.882812 C 29.371094 -51.371094 30.710938 -56.976562 30.40625 -56.976562 C 30.347656 -56.976562 30.347656 -56.914062 30.285156 -56.792969 C 30.347656 -57.769531 30.285156 -58.867188 29.921875 -59.839844 C 29.980469 -59.839844 30.285156 -58.925781 30.285156 -58.925781 C 30.652344 -59.171875 29.554688 -61.058594 29.3125 -61.304688 C 28.761719 -61.851562 27.96875 -62.15625 27.179688 -62.15625 C 25.59375 -62.277344 24.132812 -61.425781 22.914062 -60.511719 C 20.597656 -58.742188 18.953125 -56.125 17.246094 -53.746094 C 16.269531 -52.40625 15.355469 -51.066406 14.503906 -49.664062 C 13.894531 -48.75 12.554688 -47.105469 12.554688 -46.007812 C 12.613281 -45.945312 12.675781 -45.945312 12.675781 -45.945312 L 11.945312 -44.546875 C 11.945312 -44.546875 12.308594 -45.640625 12.371094 -45.703125 C 12.066406 -45.519531 11.761719 -44.242188 11.761719 -44.179688 C 9.382812 -39.546875 6.886719 -35.101562 5.242188 -30.164062 C 3.351562 -24.617188 1.949219 -18.890625 0.914062 -13.164062 C 0.425781 -10.542969 -0.183594 -7.679688 0.0625 -4.996094 C 0.0625 -4.265625 0.121094 -3.414062 0.671875 -2.804688 C 1.339844 -1.949219 2.742188 -1.644531 3.535156 -2.5 C 3.777344 -2.804688 3.777344 -2.984375 3.898438 -3.289062 L 4.996094 -5.242188 C 6.460938 -7.496094 8.226562 -9.566406 9.628906 -11.882812 C 9.8125 -12.25 9.992188 -12.675781 10.238281 -12.980469 C 10.542969 -13.34375 10.664062 -13.164062 11.03125 -13.46875 C 12.066406 -14.320312 12.859375 -15.601562 13.710938 -16.636719 C 15.476562 -18.828125 17.246094 -21.328125 19.5 -23.15625 L 17.734375 -18.890625 L 17.914062 -19.074219 L 17 -17 C 16.941406 -17.0625 17.183594 -17.609375 17.183594 -17.671875 C 16.941406 -17.671875 15.78125 -15.296875 15.660156 -15.050781 C 14.929688 -13.589844 14.136719 -12.125 13.710938 -10.601562 C 13.34375 -9.140625 12.917969 -7.679688 12.492188 -6.214844 C 12.308594 -5.300781 12.125 -4.386719 12.1875 -3.472656 C 12.1875 -3.230469 12.675781 -1.035156 12.859375 -1.21875 L 12.859375 -1.460938 C 12.980469 -1.097656 13.101562 -0.792969 13.285156 -0.488281 L 12.917969 -1.035156 C 12.734375 -0.609375 14.382812 0.792969 14.5625 0.976562 C 15.476562 1.890625 16.390625 2.5 17.792969 2.558594 C 18.953125 2.621094 19.5625 2.195312 20.414062 1.402344 C 22.730469 -0.851562 24.375 -3.960938 26.140625 -6.640625 C 27.117188 -8.042969 28.09375 -9.507812 29.007812 -10.96875 C 29.25 -11.273438 30.894531 -14.6875 30.652344 -14.625 C 31.015625 -14.6875 30.347656 -14.992188 30.226562 -14.992188 Z M 24.921875 -56 L 24.921875 -56.0625 C 24.921875 -56.0625 24.984375 -56.0625 24.984375 -56.125 L 24.984375 -56.0625 C 25.046875 -56.183594 25.105469 -56.304688 25.046875 -56.246094 C 25.53125 -56.976562 26.75 -59.171875 27.605469 -58.4375 C 28.457031 -57.707031 27.664062 -55.148438 27.421875 -54.234375 C 26.933594 -52.34375 26.203125 -50.515625 25.472656 -48.75 C 24.007812 -45.335938 22.179688 -42.109375 20.171875 -38.9375 C 19.195312 -37.414062 18.160156 -35.890625 17.125 -34.429688 C 16.574219 -33.699219 16.027344 -32.96875 15.417969 -32.234375 L 14.929688 -31.6875 L 16.027344 -32.785156 L 18.464844 -36.195312 C 19.804688 -38.023438 21.085938 -40.035156 22.304688 -42.046875 C 19.195312 -36.5625 15.417969 -31.382812 11.03125 -26.75 L 12.859375 -31.566406 C 13.039062 -31.929688 14.320312 -35.527344 14.320312 -35.527344 C 14.199219 -35.464844 14.015625 -35.160156 13.832031 -34.855469 C 15.296875 -38.207031 17.183594 -41.679688 18.890625 -45.03125 C 20.78125 -48.6875 22.667969 -52.46875 24.863281 -55.941406 C 24.863281 -55.941406 24.921875 -55.941406 24.921875 -56 Z M 9.628906 -26.140625 C 10.175781 -29.433594 11.699219 -32.539062 12.796875 -35.710938 C 13.773438 -38.390625 15.355469 -40.828125 16.574219 -43.386719 C 17.125 -44.605469 22.972656 -55.757812 23.09375 -55.695312 C 23.582031 -55.390625 16.085938 -41.070312 15.296875 -39.367188 C 14.625 -38.085938 14.015625 -36.867188 13.527344 -35.464844 C 13.101562 -34.125 12.371094 -33.027344 11.882812 -31.75 C 11.640625 -31.140625 9.203125 -24.742188 9.382812 -24.679688 C 9.261719 -24.679688 9.507812 -25.65625 9.566406 -25.960938 Z M 13.832031 -30.40625 C 13.953125 -30.53125 14.078125 -30.773438 14.257812 -30.957031 C 14.078125 -30.773438 13.953125 -30.589844 13.832031 -30.40625 Z M 24.921875 -56 L 24.921875 -56.0625 L 24.984375 -56.0625 Z M 9.628906 -26.082031 C 9.628906 -26.019531 9.566406 -25.960938 9.566406 -25.960938 C 9.566406 -26.019531 9.628906 -26.019531 9.628906 -26.082031 Z M 9.628906 -26.082031 "/></g></g></g><g fill="rgb(32.939148%, 32.939148%, 32.939148%)" fill-opacity="1"><g transform="translate(185.648966, 343.737311)"><g><path d="M 31.015625 -14.6875 C 30.957031 -16.027344 29.859375 -14.867188 29.492188 -14.382812 C 28.703125 -13.222656 27.96875 -12.003906 27.238281 -10.847656 C 25.59375 -8.347656 23.949219 -5.851562 22.058594 -3.472656 C 15.78125 4.265625 20.171875 -9.507812 19.683594 -9.382812 C 19.4375 -9.324219 19.257812 -8.410156 19.195312 -8.226562 C 19.683594 -10.421875 20.597656 -13.039062 21.753906 -15.171875 C 22.425781 -16.515625 23.21875 -17.609375 22 -19.074219 C 19.742188 -21.816406 17.125 -19.316406 15.660156 -17.429688 C 15.050781 -19.742188 13.832031 -23.15625 10.847656 -23.15625 C 9.507812 -23.15625 8.714844 -22.484375 7.800781 -21.695312 C 7.25 -21.328125 6.824219 -21.265625 6.335938 -20.839844 C 5.546875 -20.292969 4.996094 -19.4375 4.449219 -18.707031 C 2.375 -15.660156 0.914062 -11.820312 0.242188 -8.289062 C -0.0625 -6.582031 -0.183594 -4.691406 0.304688 -2.984375 C 0.609375 -2.011719 1.707031 0.183594 3.109375 0 C 3.167969 0 3.046875 -0.0625 2.863281 -0.183594 C 3.71875 0.0625 4.691406 -0.0625 5.421875 -0.546875 C 5.484375 -0.425781 4.753906 -0.121094 4.753906 -0.121094 C 5.421875 0.914062 10.421875 -5.117188 10.785156 -5.667969 C 11.578125 -6.765625 12.125 -7.921875 12.859375 -9.078125 C 13.40625 -9.933594 14.257812 -11.03125 14.867188 -11.945312 C 14.808594 -11.515625 14.808594 -10.96875 14.808594 -10.96875 C 13.710938 -7.496094 12.675781 -3.71875 14.136719 -0.121094 C 14.808594 1.707031 16.453125 3.414062 18.523438 3.046875 C 20.351562 2.742188 21.875 0.976562 22.972656 -0.425781 C 24.3125 -2.011719 25.472656 -3.777344 26.628906 -5.605469 C 27.605469 -7.25 28.519531 -8.898438 29.3125 -10.726562 C 29.796875 -11.882812 31.140625 -13.285156 31.015625 -14.6875 Z M 13.527344 -14.257812 C 13.222656 -13.832031 12.917969 -13.40625 12.675781 -12.980469 L 11.089844 -10.726562 C 10.054688 -9.203125 8.957031 -7.738281 7.800781 -6.335938 C 7.496094 -5.910156 6.03125 -4.023438 5.421875 -4.203125 C 4.507812 -4.507812 5.484375 -7.679688 5.605469 -8.164062 C 5.789062 -9.019531 9.019531 -18.402344 9.871094 -18.585938 C 8.773438 -18.648438 5.242188 -7.617188 5.058594 -6.703125 C 5.546875 -9.6875 6.640625 -12.613281 7.859375 -15.355469 C 8.53125 -16.757812 10.054688 -20.476562 12.066406 -20.476562 C 13.164062 -20.476562 13.40625 -18.21875 13.589844 -17.488281 C 13.527344 -17.609375 12.980469 -19.378906 12.917969 -19.316406 C 12.613281 -19.074219 13.832031 -15.722656 13.832031 -15.234375 C 13.832031 -14.746094 13.832031 -14.746094 13.527344 -14.257812 Z M 14.929688 -11.273438 C 14.929688 -11.273438 15.113281 -12.125 15.171875 -12.308594 L 15.476562 -12.734375 Z M 14.015625 -15.050781 L 14.015625 -15.660156 C 14.199219 -15.417969 14.199219 -15.234375 14.015625 -15.050781 Z M 14.015625 -15.050781 "/></g></g></g><g fill="rgb(32.939148%, 32.939148%, 32.939148%)" fill-opacity="1"><g transform="translate(212.217694, 343.737311)"><g><path d="M 24.742188 -31.6875 C 24.679688 -32.539062 23.765625 -31.871094 23.277344 -31.871094 C 20.839844 -31.75 18.402344 -31.75 16.027344 -31.625 C 16.027344 -31.6875 16.148438 -31.929688 16.332031 -32.296875 C 16.085938 -31.871094 15.90625 -31.625 15.722656 -31.625 C 17.550781 -35.34375 19.5 -39.0625 21.816406 -42.472656 C 21.753906 -42.351562 20.839844 -40.828125 20.902344 -40.828125 C 21.085938 -40.765625 23.339844 -43.875 23.398438 -44.300781 C 23.398438 -44.546875 22.851562 -43.9375 22.851562 -43.996094 C 23.21875 -44.363281 23.828125 -44.667969 24.007812 -45.15625 C 24.4375 -46.375 23.15625 -46.921875 22.242188 -47.105469 C 20.351562 -47.46875 18.21875 -47.226562 17 -45.640625 C 15.84375 -44.242188 14.992188 -42.59375 14.257812 -40.949219 C 13.894531 -40.21875 13.40625 -40.035156 12.917969 -39.367188 C 12.1875 -38.328125 11.699219 -37.109375 11.152344 -35.953125 C 10.664062 -34.917969 10.175781 -33.820312 9.75 -32.722656 C 9.507812 -32.175781 9.507812 -31.75 8.957031 -31.566406 C 8.410156 -31.320312 7.375 -31.503906 6.765625 -31.445312 C 4.386719 -31.140625 2.070312 -31.261719 -0.304688 -31.015625 C -1.523438 -30.957031 -2.742188 -30.957031 -3.898438 -30.53125 C -4.144531 -30.46875 -5.484375 -30.164062 -5.605469 -29.980469 C -5.972656 -29.3125 -4.507812 -29.25 -4.203125 -29.1875 C -1.890625 -28.882812 1.035156 -28.640625 3.351562 -29.066406 C 4.9375 -29.371094 6.582031 -29.25 8.289062 -29.371094 C 7.433594 -27.542969 6.765625 -25.59375 6.09375 -23.644531 L 5.363281 -21.511719 C 5.117188 -20.839844 4.328125 -19.5625 4.328125 -18.828125 C 4.328125 -18.707031 4.507812 -19.011719 4.632812 -19.316406 C 4.328125 -18.402344 3.960938 -17.488281 3.71875 -16.574219 C 3.71875 -16.636719 3.898438 -17.367188 3.839844 -17.367188 C 3.535156 -17.367188 2.316406 -13.648438 2.195312 -13.34375 C 1.585938 -11.515625 0.914062 -9.6875 0.609375 -7.738281 C 0.242188 -5.789062 -0.242188 -3.898438 -0.671875 -2.011719 C -0.914062 -1.035156 -1.15625 -0.121094 -1.28125 0.851562 C -1.402344 1.339844 -1.523438 1.890625 -1.523438 2.375 C -1.523438 2.5 -1.523438 3.289062 -1.402344 3.046875 L -1.523438 4.265625 L -1.523438 3.351562 C -1.890625 3.777344 -1.523438 5.726562 -1.460938 6.09375 C -1.21875 7.3125 -0.609375 8.410156 0.488281 9.140625 C 1.460938 9.871094 2.984375 10.542969 4.144531 9.992188 C 5.667969 9.261719 6.945312 7.554688 7.921875 6.335938 C 10.054688 3.839844 12.003906 1.21875 13.953125 -1.402344 C 15.722656 -3.839844 17.550781 -6.214844 19.074219 -8.773438 C 19.925781 -10.238281 21.570312 -11.578125 22.121094 -13.222656 C 22.425781 -14.015625 22.242188 -14.992188 21.265625 -14.808594 C 20.476562 -14.625 19.378906 -12.492188 18.890625 -11.882812 C 16.695312 -9.140625 14.625 -6.335938 12.429688 -3.59375 L 8.898438 0.730469 C 8.347656 1.339844 7.800781 2.011719 7.191406 2.621094 C 6.945312 2.925781 5.421875 4.144531 5.484375 4.507812 C 5.484375 4.632812 6.15625 4.082031 6.398438 3.898438 C 6.09375 4.265625 5.726562 4.570312 5.421875 4.875 C 5.484375 4.8125 4.203125 5.546875 4.023438 5.421875 C 2.863281 4.9375 3.898438 1.402344 4.082031 0.546875 C 5.179688 -4.386719 6.824219 -9.382812 8.46875 -14.136719 C 9.445312 -16.757812 10.421875 -19.257812 11.515625 -21.816406 C 12.066406 -23.09375 12.613281 -24.4375 13.222656 -25.714844 L 14.078125 -28.03125 L 13.40625 -26.691406 C 13.832031 -27.789062 14.441406 -29.433594 14.808594 -29.492188 L 14.625 -29.128906 C 14.746094 -29.3125 14.867188 -29.433594 14.992188 -29.492188 C 15.660156 -29.921875 17.367188 -29.492188 18.160156 -29.492188 C 18.707031 -29.492188 19.378906 -29.433594 19.925781 -29.617188 C 20.292969 -29.738281 20.171875 -29.921875 20.597656 -30.042969 C 21.328125 -30.164062 22.242188 -29.675781 23.035156 -29.921875 C 23.765625 -30.101562 24.800781 -30.773438 24.742188 -31.625 Z M 13.164062 -28.152344 C 10.421875 -22.363281 8.347656 -16.148438 6.15625 -10.117188 C 5.117188 -7.375 4.144531 -4.507812 3.472656 -1.644531 L 3.167969 -0.488281 C 3.59375 -2.679688 4.082031 -4.8125 4.691406 -6.945312 C 6.03125 -11.640625 7.738281 -16.269531 9.75 -20.71875 C 13.164062 -28.335938 16.210938 -36.5 21.085938 -43.386719 C 17.792969 -38.695312 15.601562 -33.332031 13.164062 -28.152344 Z M 17.183594 -34.1875 L 18.648438 -36.988281 C 18.34375 -36.929688 17.792969 -35.585938 17.183594 -34.1875 Z M 10.90625 -20.902344 C 10.480469 -19.742188 9.992188 -18.648438 9.507812 -17.550781 C 9.992188 -18.707031 10.421875 -19.925781 10.96875 -21.144531 C 10.90625 -21.023438 10.90625 -20.960938 10.90625 -20.902344 Z M 16.390625 -32.417969 L 17 -33.757812 C 16.820312 -33.273438 16.574219 -32.785156 16.390625 -32.417969 Z M 3.109375 5.972656 C 3.046875 5.972656 2.984375 5.910156 2.925781 5.851562 Z M 3.109375 5.972656 "/></g></g></g></svg>