<svg xmlns="http://www.w3.org/2000/svg" xmlns:xlink="http://www.w3.org/1999/xlink" width="500" zoomAndPan="magnify" viewBox="0 0 375 374.999991" height="500" preserveAspectRatio="xMidYMid meet" version="1.0"><defs><g/><clipPath id="id1"><path d="M 13.320312 22.828125 L 359.820312 22.828125 L 359.820312 265.078125 L 13.320312 265.078125 Z M 13.320312 22.828125 " clip-rule="nonzero"/></clipPath></defs><g clip-path="url(#id1)"><path fill="rgb(0%, 50.19989%, 21.569824%)" d="M 356.742188 34.878906 L 356.394531 31.96875 C 356.046875 28.785156 353.554688 26.289062 350.4375 25.875 C 276.191406 16.25 221.824219 29.890625 188.925781 66.527344 C 171.609375 85.777344 163.574219 108.425781 165.722656 132.039062 C 167.382812 150.808594 175.488281 169.089844 188.648438 184.121094 L 167.316406 205.449219 L 130.882812 160.710938 C 142.105469 149.492188 149.03125 135.15625 150.347656 120.40625 C 151.871094 103.648438 146.121094 87.578125 133.933594 73.9375 C 110.523438 47.898438 74.4375 38.480469 23.53125 45.128906 L 21.453125 45.402344 C 18.335938 45.820312 15.914062 48.242188 15.496094 51.359375 C 8.78125 102.886719 18.40625 140.628906 43.964844 163.691406 C 56.152344 174.632812 70.28125 180.378906 85.171875 180.378906 C 86.90625 180.378906 88.636719 180.3125 90.367188 180.171875 C 100.824219 179.273438 111.007812 175.53125 120.082031 169.507812 L 157.410156 215.351562 L 119.386719 253.234375 C 116.6875 255.9375 116.6875 260.300781 119.386719 263 C 120.773438 264.386719 122.503906 265.007812 124.304688 265.007812 C 126.105469 265.007812 127.835938 264.316406 129.222656 263 L 198.34375 193.882812 C 213.375 206.902344 231.519531 214.9375 250.21875 216.601562 C 252.644531 216.808594 255.136719 216.945312 257.5625 216.945312 C 278.476562 216.945312 298.492188 208.914062 315.738281 193.398438 C 352.792969 159.882812 366.230469 108.078125 356.742188 34.878906 Z M 89.121094 166.390625 C 76.308594 167.5 63.910156 163.066406 53.246094 153.441406 C 32.050781 134.328125 23.808594 102.398438 28.589844 58.425781 C 72.914062 53.230469 103.941406 61.332031 123.472656 83.078125 C 133.101562 93.8125 137.535156 106.210938 136.425781 119.089844 C 135.457031 130.242188 130.332031 141.042969 121.949219 149.839844 L 87.320312 107.246094 C 84.894531 104.269531 80.53125 103.855469 77.554688 106.277344 C 74.578125 108.703125 74.160156 113.066406 76.585938 116.042969 L 111.285156 158.632812 C 104.425781 162.996094 96.878906 165.699219 89.121094 166.390625 Z M 338.941406 130.585938 C 332.570312 151.917969 321.972656 169.089844 306.457031 183.011719 C 290.113281 197.695312 271.136719 204.480469 251.464844 202.75 C 235.953125 201.363281 220.851562 194.785156 208.179688 184.050781 L 293.089844 99.144531 C 295.792969 96.445312 295.792969 92.082031 293.089844 89.378906 C 290.390625 86.679688 286.027344 86.679688 283.324219 89.378906 L 198.34375 174.285156 C 187.46875 161.613281 180.820312 146.375 179.4375 130.792969 C 177.703125 111.125 184.492188 92.082031 199.175781 75.808594 C 222.585938 49.835938 258.738281 36.746094 306.875 36.746094 C 318.300781 36.746094 330.492188 37.507812 343.304688 38.964844 C 347.738281 75.042969 346.28125 105.863281 338.941406 130.585938 Z M 338.941406 130.585938 " fill-opacity="1" fill-rule="nonzero"/></g><g fill="rgb(32.939148%, 32.939148%, 32.939148%)" fill-opacity="1"><g transform="translate(105.411559, 339.988835)"><g><path d="M 5.726562 -4.875 L 5.667969 -4.8125 C 5.726562 -4.875 5.726562 -4.875 5.726562 -4.9375 L 5.726562 -5.242188 C 6.398438 -8.835938 7.679688 -12.371094 8.957031 -15.84375 C 10.296875 -19.5 11.578125 -23.09375 13.285156 -26.570312 C 14.867188 -29.859375 16.695312 -33.089844 18.769531 -36.074219 C 20.597656 -38.816406 22.789062 -41.804688 25.59375 -43.632812 C 26.445312 -43.875 27.300781 -44.789062 28.398438 -44.605469 C 29.492188 -44.421875 29.492188 -43.265625 29.25 -42.167969 C 29.554688 -43.023438 29.738281 -43.9375 29.007812 -44.546875 C 28.03125 -45.277344 26.140625 -44.117188 25.351562 -43.570312 C 24.984375 -43.449219 24.617188 -43.203125 24.3125 -42.960938 C 24.496094 -43.144531 24.742188 -43.328125 25.046875 -43.507812 L 24.742188 -43.386719 L 25.59375 -43.875 C 26.570312 -44.421875 28.761719 -45.640625 29.492188 -44.058594 C 30.042969 -42.777344 29.1875 -40.644531 28.761719 -39.425781 C 27.96875 -37.355469 26.996094 -35.40625 25.960938 -33.453125 C 26.140625 -33.882812 26.875 -35.527344 26.875 -35.527344 C 26.445312 -35.585938 24.496094 -31.078125 24.132812 -30.957031 L 24.191406 -30.957031 C 23.949219 -30.773438 23.765625 -30.589844 23.765625 -30.53125 C 23.644531 -29.796875 24.496094 -29.980469 24.984375 -30.042969 C 27.054688 -30.285156 29.738281 -32.054688 31.078125 -33.578125 C 32.539062 -35.222656 33.089844 -37.71875 33.089844 -39.914062 L 33.089844 -39.976562 C 33.027344 -44.117188 30.164062 -49.359375 25.226562 -49.054688 C 22.484375 -48.933594 19.925781 -46.25 18.160156 -44.421875 C 16.878906 -42.960938 15.660156 -41.375 14.5625 -39.792969 C 14.078125 -39.0625 13.589844 -38.390625 13.164062 -37.660156 C 12.675781 -36.988281 11.699219 -35.953125 11.457031 -35.160156 C 11.457031 -35.160156 11.761719 -35.527344 12.003906 -35.769531 C 11.335938 -34.734375 10.726562 -33.636719 10.117188 -32.601562 C 10.054688 -32.664062 10.480469 -33.515625 10.480469 -33.515625 C 9.933594 -33.636719 7.433594 -28.640625 7.128906 -28.09375 C 6.03125 -26.082031 5.058594 -24.070312 4.386719 -21.9375 C 3.65625 -19.5625 2.679688 -17.304688 1.949219 -14.992188 C 1.585938 -13.832031 1.21875 -12.734375 0.976562 -11.578125 C 0.851562 -11.03125 0.730469 -10.542969 0.671875 -9.992188 C 0.671875 -9.933594 0.546875 -8.957031 0.671875 -9.078125 C 0.546875 -8.652344 0.546875 -8.105469 0.488281 -7.679688 C 0.488281 -7.679688 0.488281 -8.714844 0.546875 -8.835938 C 0.304688 -8.53125 0.488281 -7.375 0.425781 -7.25 C 0.121094 -4.9375 -0.367188 -2.5 0.425781 -0.242188 C 1.460938 2.863281 4.023438 5.421875 6.824219 7.070312 C 8.289062 7.984375 10.238281 9.019531 12.066406 8.898438 C 14.199219 8.773438 16.269531 7.007812 17.855469 5.726562 C 22.484375 1.828125 26.691406 -3.65625 27.484375 -9.871094 C 27.542969 -10.296875 27.847656 -12.429688 27.117188 -12.492188 C 26.445312 -12.554688 25.960938 -11.089844 25.714844 -10.726562 C 23.886719 -7.738281 21.753906 -4.9375 19.378906 -2.375 C 16.941406 0.304688 13.894531 3.167969 10.175781 4.023438 C 9.6875 4.144531 9.140625 4.203125 8.59375 4.203125 C 7.859375 4.144531 7.191406 3.960938 6.640625 3.414062 C 6.335938 3.109375 6.03125 2.070312 5.667969 1.890625 C 5.667969 1.585938 5.605469 1.28125 5.546875 1.097656 L 5.363281 0.730469 C 5.300781 -1.097656 5.363281 -2.804688 5.667969 -4.691406 L 5.667969 -4.753906 C 5.667969 -4.8125 5.726562 -4.8125 5.726562 -4.875 Z M 16.453125 -34.671875 C 14.078125 -30.773438 12.066406 -26.75 10.054688 -22.609375 C 8.898438 -20.171875 7.738281 -17.671875 6.824219 -15.050781 C 8.105469 -19.132812 9.628906 -23.035156 11.457031 -26.933594 C 13.648438 -31.625 16.574219 -36.195312 20.046875 -39.976562 C 18.648438 -38.269531 17.429688 -36.320312 16.453125 -34.671875 Z M 22.730469 -41.375 C 21.875 -40.523438 21.085938 -39.546875 20.351562 -38.632812 C 21.511719 -40.15625 22.730469 -41.679688 24.253906 -42.898438 C 23.703125 -42.414062 23.15625 -41.804688 22.730469 -41.375 Z M 28.945312 -40.890625 C 29.066406 -41.253906 29.1875 -41.679688 29.25 -42.167969 C 29.128906 -41.621094 28.882812 -41.070312 28.882812 -40.644531 C 28.945312 -40.765625 28.945312 -40.828125 28.945312 -40.890625 Z M 28.945312 -40.890625 "/></g></g></g><g fill="rgb(32.939148%, 32.939148%, 32.939148%)" fill-opacity="1"><g transform="translate(135.819356, 339.988835)"><g><path d="M 28.03125 -15.171875 C 28.03125 -15.171875 28.09375 -15.113281 28.03125 -15.234375 C 27.726562 -15.660156 27.300781 -15.355469 26.875 -15.234375 C 25.105469 -14.867188 23.277344 -14.441406 21.449219 -14.136719 C 22.121094 -16.332031 22.789062 -18.648438 23.035156 -20.902344 C 23.15625 -21.753906 23.21875 -22.667969 23.035156 -23.523438 C 22.914062 -24.070312 22.730469 -24.617188 22.425781 -25.105469 C 22.425781 -25.105469 21.695312 -26.019531 21.875 -25.53125 L 21.816406 -25.59375 L 21.570312 -26.082031 L 21.816406 -25.835938 C 21.875 -26.203125 20.839844 -26.875 20.839844 -26.875 C 19.316406 -28.398438 17.246094 -29.554688 15.171875 -28.398438 C 13.894531 -27.664062 12.859375 -26.445312 12.003906 -25.226562 C 11.699219 -24.800781 11.394531 -24.3125 11.152344 -23.828125 C 10.90625 -23.339844 10.542969 -21.753906 10.175781 -21.511719 C 9.871094 -21.265625 8.957031 -21.207031 8.53125 -20.960938 C 7.921875 -20.71875 7.375 -20.414062 6.886719 -20.046875 C 5.726562 -19.316406 4.8125 -18.28125 3.960938 -17.246094 C 2.5 -15.296875 1.765625 -13.101562 0.730469 -11.152344 C -1.21875 -7.433594 0.914062 -2.558594 4.507812 -0.792969 C 5.667969 -0.242188 7.007812 0 8.226562 -0.121094 C 9.507812 -0.304688 10.726562 -0.976562 11.699219 -1.707031 C 12.613281 -2.375 14.625 -3.59375 14.992188 -4.632812 C 14.992188 -4.691406 14.867188 -4.632812 14.6875 -4.449219 L 16.453125 -6.519531 C 16.515625 -6.460938 16.027344 -5.851562 16.027344 -5.851562 C 16.453125 -5.667969 18.648438 -8.898438 18.890625 -9.140625 C 19.316406 -9.871094 19.742188 -10.664062 20.230469 -11.394531 C 20.65625 -11.945312 20.535156 -11.882812 21.144531 -12.125 C 21.085938 -12.066406 21.875 -12.308594 22 -12.308594 C 22.667969 -12.429688 29.796875 -12.917969 28.03125 -15.171875 Z M 6.945312 -2.863281 L 6.886719 -2.863281 C 1.828125 -2.132812 7.679688 -12.859375 7.800781 -13.46875 L 7.433594 -12.917969 C 8.347656 -14.746094 9.203125 -16.210938 9.628906 -16.695312 C 10.296875 -13.648438 13.589844 -12.492188 16.269531 -12.125 C 14.503906 -8.59375 11.210938 -3.65625 6.945312 -2.863281 Z M 18.953125 -19.742188 C 18.523438 -18.039062 18.160156 -15.78125 17.246094 -14.257812 C 16.941406 -13.648438 17.125 -13.832031 16.515625 -13.710938 C 16.148438 -13.589844 15.355469 -13.710938 14.992188 -13.773438 C 14.320312 -13.832031 13.527344 -13.953125 13.039062 -14.382812 C 12.1875 -15.113281 12.308594 -16.269531 12.429688 -17.304688 C 12.554688 -18.34375 12.859375 -19.316406 13.222656 -20.292969 C 13.40625 -20.65625 14.5625 -22.609375 14.382812 -22.972656 C 14.320312 -23.15625 13.648438 -22.058594 13.589844 -22 C 13.953125 -22.667969 14.320312 -23.035156 14.625 -23.460938 C 14.5625 -23.460938 14.625 -23.523438 14.6875 -23.644531 L 14.6875 -23.582031 L 14.746094 -23.703125 C 14.746094 -23.703125 14.746094 -23.765625 14.808594 -23.765625 C 15.722656 -24.984375 17.976562 -27.726562 19.195312 -25.835938 C 20.109375 -24.253906 19.257812 -21.265625 18.953125 -19.742188 Z M 14.746094 -23.703125 L 14.808594 -23.765625 C 14.808594 -23.703125 14.746094 -23.703125 14.746094 -23.703125 Z M 14.746094 -23.703125 "/></g></g></g><g fill="rgb(32.939148%, 32.939148%, 32.939148%)" fill-opacity="1"><g transform="translate(159.645908, 339.988835)"><g><path d="M 25.226562 -14.503906 C 24.921875 -15.964844 24.070312 -14.992188 23.703125 -14.441406 C 22.851562 -13.40625 21.511719 -12.429688 20.476562 -11.457031 C 19.074219 -10.238281 17.671875 -8.957031 16.210938 -7.800781 C 15.476562 -7.191406 14.5625 -6.335938 13.648438 -6.03125 C 13.527344 -5.972656 13.101562 -5.910156 13.101562 -5.851562 L 13.039062 -5.910156 C 13.039062 -5.910156 12.980469 -6.886719 13.039062 -6.945312 C 13.101562 -7.738281 13.34375 -8.53125 13.589844 -9.261719 C 13.648438 -9.382812 14.320312 -11.457031 14.199219 -11.457031 L 13.894531 -11.089844 C 14.257812 -11.820312 14.746094 -12.554688 15.171875 -13.34375 C 14.199219 -12.429688 13.527344 -11.394531 13.039062 -10.117188 C 12.796875 -9.507812 12.125 -8.410156 12.003906 -7.496094 C 12.125 -8.835938 13.039062 -10.601562 13.46875 -11.394531 C 14.078125 -12.675781 14.746094 -14.136719 15.539062 -15.355469 C 17 -17.550781 20.171875 -19.5625 19.195312 -22.609375 C 18.34375 -25.472656 16.085938 -25.53125 14.320312 -23.886719 C 13.46875 -23.09375 6.214844 -13.832031 6.398438 -13.710938 C 6.398438 -13.710938 7.007812 -14.441406 7.800781 -15.476562 L 4.203125 -10.238281 C 4.144531 -10.238281 4.8125 -11.273438 4.753906 -11.335938 C 4.691406 -11.394531 4.265625 -10.96875 4.203125 -10.726562 C 4.328125 -12.003906 4.753906 -13.285156 4.875 -14.5625 C 4.9375 -15.050781 4.875 -15.417969 4.996094 -15.90625 C 5.242188 -16.695312 5.484375 -17.550781 5.851562 -18.21875 C 6.09375 -18.707031 6.582031 -19.132812 6.703125 -19.621094 C 6.945312 -20.414062 6.886719 -20.71875 7.433594 -21.390625 C 7.921875 -22 8.652344 -22.609375 9.078125 -23.15625 C 10.117188 -24.679688 8.347656 -25.714844 7.375 -25.898438 C 6.582031 -26.019531 5.789062 -26.082031 5.058594 -25.65625 C 4.265625 -25.167969 4.449219 -24.742188 4.265625 -24.070312 C 4.082031 -23.21875 3.472656 -22.242188 3.167969 -21.449219 C 2.679688 -20.171875 2.253906 -18.890625 1.828125 -17.609375 C 1.339844 -16.332031 0.851562 -15.113281 0.488281 -13.832031 C 0.183594 -12.796875 0.242188 -11.820312 0.121094 -10.847656 C 0 -9.75 -0.183594 -9.019531 0.367188 -8.042969 C 0.976562 -7.007812 2.621094 -5.421875 3.71875 -6.765625 L 3.960938 -6.277344 C 4.996094 -8.53125 6.582031 -10.542969 7.859375 -12.734375 C 8.410156 -13.710938 9.382812 -14.382812 10.175781 -15.417969 C 11.273438 -16.878906 12.25 -18.34375 13.46875 -19.742188 C 13.285156 -19.4375 12.492188 -18.039062 12.554688 -17.976562 C 12.675781 -18.039062 12.734375 -18.160156 12.859375 -18.28125 L 12.003906 -16.574219 C 11.945312 -16.636719 12.25 -17.0625 12.125 -17.0625 C 11.699219 -17.183594 10.421875 -13.773438 10.296875 -13.46875 C 9.871094 -12.125 9.8125 -10.90625 9.6875 -9.507812 C 9.628906 -8.835938 9.507812 -8.164062 9.507812 -7.496094 C 9.507812 -6.824219 9.566406 -6.15625 9.871094 -5.484375 C 10.054688 -5.117188 10.296875 -4.632812 10.601562 -4.328125 C 10.664062 -4.328125 11.335938 -3.71875 11.03125 -4.203125 L 11.394531 -3.839844 L 11.210938 -3.960938 C 11.152344 -3.65625 13.40625 -2.4375 13.773438 -2.316406 C 15.476562 -1.765625 17.304688 -3.71875 18.402344 -4.875 C 19.867188 -6.460938 21.085938 -8.289062 22.425781 -9.992188 C 23.15625 -10.96875 25.472656 -13.039062 25.226562 -14.503906 Z M 25.226562 -14.503906 "/></g></g></g><g fill="rgb(32.939148%, 32.939148%, 32.939148%)" fill-opacity="1"><g transform="translate(180.425585, 339.988835)"><g><path d="M 25.226562 -14.503906 C 24.921875 -15.964844 24.070312 -14.992188 23.703125 -14.441406 C 22.851562 -13.40625 21.511719 -12.429688 20.476562 -11.457031 C 19.074219 -10.238281 17.671875 -8.957031 16.210938 -7.800781 C 15.476562 -7.191406 14.5625 -6.335938 13.648438 -6.03125 C 13.527344 -5.972656 13.101562 -5.910156 13.101562 -5.851562 L 13.039062 -5.910156 C 13.039062 -5.910156 12.980469 -6.886719 13.039062 -6.945312 C 13.101562 -7.738281 13.34375 -8.53125 13.589844 -9.261719 C 13.648438 -9.382812 14.320312 -11.457031 14.199219 -11.457031 L 13.894531 -11.089844 C 14.257812 -11.820312 14.746094 -12.554688 15.171875 -13.34375 C 14.199219 -12.429688 13.527344 -11.394531 13.039062 -10.117188 C 12.796875 -9.507812 12.125 -8.410156 12.003906 -7.496094 C 12.125 -8.835938 13.039062 -10.601562 13.46875 -11.394531 C 14.078125 -12.675781 14.746094 -14.136719 15.539062 -15.355469 C 17 -17.550781 20.171875 -19.5625 19.195312 -22.609375 C 18.34375 -25.472656 16.085938 -25.53125 14.320312 -23.886719 C 13.46875 -23.09375 6.214844 -13.832031 6.398438 -13.710938 C 6.398438 -13.710938 7.007812 -14.441406 7.800781 -15.476562 L 4.203125 -10.238281 C 4.144531 -10.238281 4.8125 -11.273438 4.753906 -11.335938 C 4.691406 -11.394531 4.265625 -10.96875 4.203125 -10.726562 C 4.328125 -12.003906 4.753906 -13.285156 4.875 -14.5625 C 4.9375 -15.050781 4.875 -15.417969 4.996094 -15.90625 C 5.242188 -16.695312 5.484375 -17.550781 5.851562 -18.21875 C 6.09375 -18.707031 6.582031 -19.132812 6.703125 -19.621094 C 6.945312 -20.414062 6.886719 -20.71875 7.433594 -21.390625 C 7.921875 -22 8.652344 -22.609375 9.078125 -23.15625 C 10.117188 -24.679688 8.347656 -25.714844 7.375 -25.898438 C 6.582031 -26.019531 5.789062 -26.082031 5.058594 -25.65625 C 4.265625 -25.167969 4.449219 -24.742188 4.265625 -24.070312 C 4.082031 -23.21875 3.472656 -22.242188 3.167969 -21.449219 C 2.679688 -20.171875 2.253906 -18.890625 1.828125 -17.609375 C 1.339844 -16.332031 0.851562 -15.113281 0.488281 -13.832031 C 0.183594 -12.796875 0.242188 -11.820312 0.121094 -10.847656 C 0 -9.75 -0.183594 -9.019531 0.367188 -8.042969 C 0.976562 -7.007812 2.621094 -5.421875 3.71875 -6.765625 L 3.960938 -6.277344 C 4.996094 -8.53125 6.582031 -10.542969 7.859375 -12.734375 C 8.410156 -13.710938 9.382812 -14.382812 10.175781 -15.417969 C 11.273438 -16.878906 12.25 -18.34375 13.46875 -19.742188 C 13.285156 -19.4375 12.492188 -18.039062 12.554688 -17.976562 C 12.675781 -18.039062 12.734375 -18.160156 12.859375 -18.28125 L 12.003906 -16.574219 C 11.945312 -16.636719 12.25 -17.0625 12.125 -17.0625 C 11.699219 -17.183594 10.421875 -13.773438 10.296875 -13.46875 C 9.871094 -12.125 9.8125 -10.90625 9.6875 -9.507812 C 9.628906 -8.835938 9.507812 -8.164062 9.507812 -7.496094 C 9.507812 -6.824219 9.566406 -6.15625 9.871094 -5.484375 C 10.054688 -5.117188 10.296875 -4.632812 10.601562 -4.328125 C 10.664062 -4.328125 11.335938 -3.71875 11.03125 -4.203125 L 11.394531 -3.839844 L 11.210938 -3.960938 C 11.152344 -3.65625 13.40625 -2.4375 13.773438 -2.316406 C 15.476562 -1.765625 17.304688 -3.71875 18.402344 -4.875 C 19.867188 -6.460938 21.085938 -8.289062 22.425781 -9.992188 C 23.15625 -10.96875 25.472656 -13.039062 25.226562 -14.503906 Z M 25.226562 -14.503906 "/></g></g></g><g fill="rgb(32.939148%, 32.939148%, 32.939148%)" fill-opacity="1"><g transform="translate(201.205262, 339.988835)"><g><path d="M 23.339844 -15.050781 C 23.339844 -14.992188 23.339844 -14.992188 23.277344 -15.050781 L 23.277344 -15.113281 C 22.304688 -16.757812 21.023438 -14.503906 20.476562 -13.710938 C 19.4375 -12.308594 18.464844 -10.96875 17.367188 -9.6875 C 16.453125 -8.59375 15.476562 -7.496094 14.746094 -6.335938 C 14.746094 -6.214844 14.625 -5.910156 14.625 -5.910156 C 14.382812 -5.546875 14.015625 -5.242188 13.710938 -4.875 C 13.164062 -4.328125 12.613281 -3.71875 12.003906 -3.167969 C 11.089844 -2.316406 5.972656 2.5 5.300781 -0.609375 C 4.9375 -2.132812 5.421875 -4.023438 5.726562 -5.484375 C 5.910156 -6.277344 6.09375 -7.007812 6.214844 -7.800781 C 6.335938 -8.410156 6.15625 -9.019531 6.460938 -9.628906 C 6.640625 -9.992188 6.703125 -9.933594 7.128906 -10.054688 L 8.164062 -10.421875 C 8.835938 -10.664062 9.507812 -10.90625 10.117188 -11.273438 C 11.03125 -11.820312 11.882812 -12.492188 12.675781 -13.164062 C 14.5625 -14.746094 16.574219 -16.636719 17.367188 -19.011719 C 17.792969 -20.351562 17.855469 -21.816406 17 -22.972656 C 16.210938 -24.007812 14.867188 -24.558594 13.648438 -24.800781 C 10.359375 -25.410156 7.859375 -23.523438 5.972656 -21.023438 C 3.65625 -18.160156 2.011719 -14.625 1.21875 -11.03125 C 0.792969 -9.261719 0.546875 -7.496094 0.242188 -5.667969 C -0.0625 -3.839844 -0.242188 -2.132812 0.730469 -0.425781 C 0.671875 -1.035156 0.546875 -1.585938 0.546875 -2.132812 C 0.546875 -2.4375 0.671875 -2.742188 0.671875 -2.984375 C 0.671875 -3.109375 0.546875 -3.472656 0.546875 -3.65625 C 0.546875 -4.203125 0.671875 -4.632812 0.792969 -5.179688 C 0.851562 -5.726562 0.792969 -6.277344 0.851562 -6.824219 C 0.914062 -7.433594 1.15625 -7.921875 1.402344 -8.46875 C 1.585938 -8.957031 1.644531 -9.382812 1.828125 -9.871094 C 2.011719 -10.296875 2.132812 -10.785156 2.316406 -11.273438 C 2.375 -11.578125 2.679688 -11.945312 2.863281 -12.308594 C 2.679688 -11.761719 2.316406 -11.273438 2.195312 -10.785156 C 2.011719 -10.054688 2.132812 -9.261719 2.070312 -8.53125 C 1.949219 -7.738281 1.707031 -6.945312 1.585938 -6.09375 C 1.460938 -5.300781 1.097656 -4.570312 0.976562 -3.777344 C 0.851562 -3.046875 0.609375 -2.5 0.671875 -1.765625 C 0.671875 -1.339844 0.730469 -0.914062 0.792969 -0.546875 C 0.851562 -0.0625 1.15625 0.242188 1.460938 0.609375 C 2.5 1.828125 3.898438 2.804688 5.484375 3.230469 C 6.582031 3.535156 7.554688 3.472656 8.59375 2.925781 C 10.054688 2.132812 11.335938 0.914062 12.429688 -0.242188 C 13.46875 -1.402344 14.257812 -2.679688 15.171875 -3.898438 C 16.027344 -4.996094 17.0625 -6.03125 17.914062 -7.128906 L 21.207031 -11.394531 L 23.09375 -13.894531 C 23.398438 -14.257812 23.582031 -14.5625 23.339844 -15.050781 Z M 8.226562 -14.382812 C 8.289062 -14.503906 8.289062 -14.5625 8.289062 -14.5625 C 9.203125 -16.515625 9.871094 -18.585938 11.152344 -20.476562 L 12.25 -21.9375 C 12.492188 -22.242188 12.917969 -22.789062 13.34375 -22.914062 C 14.257812 -23.09375 14.503906 -21.511719 14.441406 -20.902344 L 14.199219 -19.621094 C 14.136719 -19.257812 14.257812 -19.011719 14.199219 -18.707031 C 14.078125 -18.34375 13.773438 -18.160156 13.589844 -17.855469 L 12.554688 -16.515625 C 11.152344 -14.867188 9.382812 -13.46875 7.433594 -12.429688 C 7.738281 -13.101562 7.921875 -13.773438 8.226562 -14.382812 Z M 8.226562 -14.382812 "/></g></g></g><g fill="rgb(32.939148%, 32.939148%, 32.939148%)" fill-opacity="1"><g transform="translate(220.156815, 339.988835)"><g><path d="M 22.058594 -11.273438 C 22.609375 -12.066406 24.800781 -14.382812 23.886719 -15.417969 C 22.667969 -16.636719 19.5 -11.578125 19.011719 -10.96875 C 18.039062 -9.6875 17 -8.46875 16.027344 -7.25 C 15.476562 -6.582031 14.929688 -5.910156 14.320312 -5.300781 C 14.199219 -5.179688 13.039062 -3.71875 13.164062 -3.71875 C 13.34375 -3.777344 13.527344 -3.898438 13.710938 -4.023438 C 12.675781 -2.925781 11.273438 -1.949219 9.992188 -0.976562 C 9.140625 -0.367188 7.496094 0.976562 6.460938 0.242188 C 6.03125 0 5.910156 -0.609375 5.789062 -1.035156 C 5.363281 -2.925781 5.667969 -5.179688 5.972656 -7.128906 C 6.640625 -11.210938 7.984375 -15.234375 9.628906 -19.074219 C 10.421875 -20.839844 11.210938 -22.609375 12.613281 -23.949219 C 12.734375 -24.070312 12.980469 -23.828125 13.039062 -23.886719 C 13.164062 -23.949219 12.675781 -24.132812 12.613281 -24.070312 C 11.945312 -23.703125 11.515625 -22.972656 11.152344 -22.304688 C 10.054688 -20.535156 9.203125 -18.585938 8.46875 -16.636719 C 9.019531 -18.160156 9.628906 -19.683594 10.359375 -21.207031 C 10.785156 -22 11.273438 -23.277344 12.066406 -23.886719 C 14.136719 -25.53125 13.34375 -20.109375 13.101562 -19.316406 C 13.101562 -19.378906 13.34375 -20.71875 13.285156 -20.71875 C 13.164062 -20.71875 12.308594 -17.609375 12.308594 -17.609375 L 12.613281 -17.855469 C 12.308594 -17.367188 11.699219 -17 12.492188 -16.453125 C 13.46875 -15.78125 15.355469 -16.941406 15.78125 -17.792969 C 16.210938 -18.707031 16.332031 -19.925781 16.390625 -20.839844 C 16.515625 -22.425781 16.085938 -23.339844 15.539062 -24.558594 C 14.929688 -25.835938 14.382812 -26.628906 12.734375 -26.875 C 11.394531 -27.054688 10.175781 -26.507812 9.140625 -25.714844 C 7.617188 -24.617188 6.460938 -23.21875 5.484375 -21.632812 C 5.242188 -21.207031 3.046875 -16.757812 3.109375 -16.695312 L 3.351562 -17 C 3.046875 -16.332031 2.863281 -15.660156 2.621094 -15.050781 C 2.558594 -15.050781 2.742188 -15.601562 2.679688 -15.601562 C 2.316406 -15.660156 1.21875 -12.308594 1.15625 -12.003906 C 0.730469 -10.726562 0.425781 -9.445312 0.367188 -8.105469 C 0.304688 -6.640625 0.0625 -5.179688 0 -3.65625 C 0 -2.863281 0 -2.011719 0.121094 -1.21875 C 0.121094 -0.976562 0.609375 0.304688 0.609375 -0.0625 L 0.914062 0.976562 C 0.851562 0.914062 0.609375 0.304688 0.609375 0.304688 C 0.304688 0.671875 1.949219 3.046875 2.316406 3.414062 C 2.804688 3.960938 3.535156 4.203125 4.265625 4.328125 C 6.703125 4.632812 9.019531 3.230469 10.785156 1.765625 C 13.832031 -0.792969 16.820312 -3.960938 19.074219 -7.25 C 19.988281 -8.652344 21.023438 -9.933594 22.058594 -11.273438 Z M 4.203125 -15.722656 C 4.082031 -15.113281 3.898438 -14.441406 3.65625 -13.894531 C 3.472656 -13.46875 2.925781 -13.101562 2.863281 -12.796875 C 2.984375 -13.832031 3.777344 -14.867188 4.265625 -16.027344 C 4.265625 -15.90625 4.203125 -15.78125 4.203125 -15.722656 Z M 1.949219 -8.59375 C 1.707031 -8.164062 1.707031 -7.375 1.707031 -6.703125 C 1.644531 -7.433594 1.644531 -8.226562 1.890625 -8.957031 C 1.890625 -8.957031 2.070312 -8.714844 1.949219 -8.59375 Z M 6.335938 -10.054688 C 6.582031 -11.03125 6.886719 -12.003906 7.191406 -12.980469 Z M 2.070312 -9.75 C 2.011719 -9.566406 1.890625 -9.324219 1.890625 -9.203125 C 1.890625 -9.507812 1.890625 -9.8125 2.195312 -9.933594 Z M 7.433594 -13.710938 C 7.375 -13.648438 7.375 -13.648438 7.375 -13.589844 C 7.375 -13.710938 7.375 -13.832031 7.433594 -13.953125 Z M 7.433594 -13.710938 "/></g></g></g><g fill="rgb(32.939148%, 32.939148%, 32.939148%)" fill-opacity="1"><g transform="translate(239.778682, 339.988835)"><g><path d="M 24.742188 -31.6875 C 24.679688 -32.539062 23.765625 -31.871094 23.277344 -31.871094 C 20.839844 -31.75 18.402344 -31.75 16.027344 -31.625 C 16.027344 -31.6875 16.148438 -31.929688 16.332031 -32.296875 C 16.085938 -31.871094 15.90625 -31.625 15.722656 -31.625 C 17.550781 -35.34375 19.5 -39.0625 21.816406 -42.472656 C 21.753906 -42.351562 20.839844 -40.828125 20.902344 -40.828125 C 21.085938 -40.765625 23.339844 -43.875 23.398438 -44.300781 C 23.398438 -44.546875 22.851562 -43.9375 22.851562 -43.996094 C 23.21875 -44.363281 23.828125 -44.667969 24.007812 -45.15625 C 24.4375 -46.375 23.15625 -46.921875 22.242188 -47.105469 C 20.351562 -47.46875 18.21875 -47.226562 17 -45.640625 C 15.84375 -44.242188 14.992188 -42.59375 14.257812 -40.949219 C 13.894531 -40.21875 13.40625 -40.035156 12.917969 -39.367188 C 12.1875 -38.328125 11.699219 -37.109375 11.152344 -35.953125 C 10.664062 -34.917969 10.175781 -33.820312 9.75 -32.722656 C 9.507812 -32.175781 9.507812 -31.75 8.957031 -31.566406 C 8.410156 -31.320312 7.375 -31.503906 6.765625 -31.445312 C 4.386719 -31.140625 2.070312 -31.261719 -0.304688 -31.015625 C -1.523438 -30.957031 -2.742188 -30.957031 -3.898438 -30.53125 C -4.144531 -30.46875 -5.484375 -30.164062 -5.605469 -29.980469 C -5.972656 -29.3125 -4.507812 -29.25 -4.203125 -29.1875 C -1.890625 -28.882812 1.035156 -28.640625 3.351562 -29.066406 C 4.9375 -29.371094 6.582031 -29.25 8.289062 -29.371094 C 7.433594 -27.542969 6.765625 -25.59375 6.09375 -23.644531 L 5.363281 -21.511719 C 5.117188 -20.839844 4.328125 -19.5625 4.328125 -18.828125 C 4.328125 -18.707031 4.507812 -19.011719 4.632812 -19.316406 C 4.328125 -18.402344 3.960938 -17.488281 3.71875 -16.574219 C 3.71875 -16.636719 3.898438 -17.367188 3.839844 -17.367188 C 3.535156 -17.367188 2.316406 -13.648438 2.195312 -13.34375 C 1.585938 -11.515625 0.914062 -9.6875 0.609375 -7.738281 C 0.242188 -5.789062 -0.242188 -3.898438 -0.671875 -2.011719 C -0.914062 -1.035156 -1.15625 -0.121094 -1.28125 0.851562 C -1.402344 1.339844 -1.523438 1.890625 -1.523438 2.375 C -1.523438 2.5 -1.523438 3.289062 -1.402344 3.046875 L -1.523438 4.265625 L -1.523438 3.351562 C -1.890625 3.777344 -1.523438 5.726562 -1.460938 6.09375 C -1.21875 7.3125 -0.609375 8.410156 0.488281 9.140625 C 1.460938 9.871094 2.984375 10.542969 4.144531 9.992188 C 5.667969 9.261719 6.945312 7.554688 7.921875 6.335938 C 10.054688 3.839844 12.003906 1.21875 13.953125 -1.402344 C 15.722656 -3.839844 17.550781 -6.214844 19.074219 -8.773438 C 19.925781 -10.238281 21.570312 -11.578125 22.121094 -13.222656 C 22.425781 -14.015625 22.242188 -14.992188 21.265625 -14.808594 C 20.476562 -14.625 19.378906 -12.492188 18.890625 -11.882812 C 16.695312 -9.140625 14.625 -6.335938 12.429688 -3.59375 L 8.898438 0.730469 C 8.347656 1.339844 7.800781 2.011719 7.191406 2.621094 C 6.945312 2.925781 5.421875 4.144531 5.484375 4.507812 C 5.484375 4.632812 6.15625 4.082031 6.398438 3.898438 C 6.09375 4.265625 5.726562 4.570312 5.421875 4.875 C 5.484375 4.8125 4.203125 5.546875 4.023438 5.421875 C 2.863281 4.9375 3.898438 1.402344 4.082031 0.546875 C 5.179688 -4.386719 6.824219 -9.382812 8.46875 -14.136719 C 9.445312 -16.757812 10.421875 -19.257812 11.515625 -21.816406 C 12.066406 -23.09375 12.613281 -24.4375 13.222656 -25.714844 L 14.078125 -28.03125 L 13.40625 -26.691406 C 13.832031 -27.789062 14.441406 -29.433594 14.808594 -29.492188 L 14.625 -29.128906 C 14.746094 -29.3125 14.867188 -29.433594 14.992188 -29.492188 C 15.660156 -29.921875 17.367188 -29.492188 18.160156 -29.492188 C 18.707031 -29.492188 19.378906 -29.433594 19.925781 -29.617188 C 20.292969 -29.738281 20.171875 -29.921875 20.597656 -30.042969 C 21.328125 -30.164062 22.242188 -29.675781 23.035156 -29.921875 C 23.765625 -30.101562 24.800781 -30.773438 24.742188 -31.625 Z M 13.164062 -28.152344 C 10.421875 -22.363281 8.347656 -16.148438 6.15625 -10.117188 C 5.117188 -7.375 4.144531 -4.507812 3.472656 -1.644531 L 3.167969 -0.488281 C 3.59375 -2.679688 4.082031 -4.8125 4.691406 -6.945312 C 6.03125 -11.640625 7.738281 -16.269531 9.75 -20.71875 C 13.164062 -28.335938 16.210938 -36.5 21.085938 -43.386719 C 17.792969 -38.695312 15.601562 -33.332031 13.164062 -28.152344 Z M 17.183594 -34.1875 L 18.648438 -36.988281 C 18.34375 -36.929688 17.792969 -35.585938 17.183594 -34.1875 Z M 10.90625 -20.902344 C 10.480469 -19.742188 9.992188 -18.648438 9.507812 -17.550781 C 9.992188 -18.707031 10.421875 -19.925781 10.96875 -21.144531 C 10.90625 -21.023438 10.90625 -20.960938 10.90625 -20.902344 Z M 16.390625 -32.417969 L 17 -33.757812 C 16.820312 -33.273438 16.574219 -32.785156 16.390625 -32.417969 Z M 3.109375 5.972656 C 3.046875 5.972656 2.984375 5.910156 2.925781 5.851562 Z M 3.109375 5.972656 "/></g></g></g></svg>