<svg xmlns="http://www.w3.org/2000/svg" xmlns:xlink="http://www.w3.org/1999/xlink" width="200" zoomAndPan="magnify" viewBox="0 0 150 149.999998" height="200" preserveAspectRatio="xMidYMid meet" version="1.0"><defs><g/><clipPath id="id1"><path d="M 5.328125 9.132812 L 144.078125 9.132812 L 144.078125 105.882812 L 5.328125 105.882812 Z M 5.328125 9.132812 " clip-rule="nonzero"/></clipPath></defs><g clip-path="url(#id1)"><path fill="rgb(0%, 50.19989%, 21.569824%)" d="M 142.84375 13.945312 L 142.703125 12.78125 C 142.566406 11.507812 141.566406 10.515625 140.316406 10.347656 C 110.589844 6.503906 88.820312 11.953125 75.644531 26.582031 C 68.710938 34.273438 65.496094 43.316406 66.355469 52.75 C 67.019531 60.246094 70.265625 67.546875 75.535156 73.546875 L 66.992188 82.066406 L 52.40625 64.199219 C 56.898438 59.71875 59.671875 53.992188 60.199219 48.101562 C 60.808594 41.410156 58.507812 34.992188 53.625 29.542969 C 44.253906 19.144531 29.804688 15.382812 9.421875 18.035156 L 8.589844 18.148438 C 7.339844 18.3125 6.371094 19.28125 6.203125 20.527344 C 3.511719 41.105469 7.367188 56.179688 17.601562 65.390625 C 22.480469 69.757812 28.140625 72.054688 34.101562 72.054688 C 34.796875 72.054688 35.488281 72.027344 36.183594 71.972656 C 40.371094 71.613281 44.445312 70.117188 48.078125 67.710938 L 63.027344 86.023438 L 47.800781 101.152344 C 46.71875 102.230469 46.71875 103.972656 47.800781 105.050781 C 48.355469 105.605469 49.050781 105.851562 49.769531 105.851562 C 50.492188 105.851562 51.1875 105.578125 51.742188 105.050781 L 79.417969 77.449219 C 85.433594 82.648438 92.703125 85.855469 100.1875 86.519531 C 101.160156 86.601562 102.15625 86.660156 103.128906 86.660156 C 111.503906 86.660156 119.519531 83.449219 126.425781 77.253906 C 141.261719 63.867188 146.640625 43.179688 142.84375 13.945312 Z M 35.683594 66.46875 C 30.550781 66.910156 25.589844 65.140625 21.316406 61.296875 C 12.832031 53.660156 9.53125 40.910156 11.445312 23.347656 C 29.195312 21.273438 41.617188 24.507812 49.4375 33.195312 C 53.292969 37.480469 55.066406 42.433594 54.625 47.578125 C 54.234375 52.03125 52.183594 56.34375 48.828125 59.855469 L 34.960938 42.847656 C 33.992188 41.65625 32.246094 41.492188 31.050781 42.460938 C 29.859375 43.429688 29.691406 45.171875 30.664062 46.359375 L 44.558594 63.371094 C 41.8125 65.113281 38.789062 66.191406 35.683594 66.46875 Z M 135.714844 52.167969 C 133.164062 60.6875 128.921875 67.546875 122.707031 73.105469 C 116.164062 78.96875 108.5625 81.679688 100.6875 80.988281 C 94.476562 80.433594 88.429688 77.808594 83.355469 73.519531 L 117.355469 39.609375 C 118.4375 38.53125 118.4375 36.789062 117.355469 35.710938 C 116.273438 34.632812 114.527344 34.632812 113.445312 35.710938 L 79.417969 69.621094 C 75.0625 64.558594 72.402344 58.472656 71.847656 52.25 C 71.152344 44.394531 73.871094 36.789062 79.75 30.289062 C 89.125 19.917969 103.601562 14.691406 122.875 14.691406 C 127.449219 14.691406 132.332031 14.996094 137.460938 15.574219 C 139.238281 29.984375 138.65625 42.292969 135.714844 52.167969 Z M 135.714844 52.167969 " fill-opacity="1" fill-rule="nonzero"/></g><g fill="rgb(32.939148%, 32.939148%, 32.939148%)" fill-opacity="1"><g transform="translate(17.984295, 136.57587)"><g><path d="M 3.910156 -3.328125 L 3.867188 -3.285156 C 3.910156 -3.328125 3.910156 -3.328125 3.910156 -3.371094 L 3.910156 -3.578125 C 4.367188 -6.03125 5.242188 -8.445312 6.113281 -10.816406 C 7.03125 -13.3125 7.902344 -15.765625 9.070312 -18.136719 C 10.152344 -20.382812 11.398438 -22.589844 12.8125 -24.628906 C 14.0625 -26.5 15.558594 -28.539062 17.472656 -29.785156 C 18.054688 -29.953125 18.636719 -30.574219 19.386719 -30.453125 C 20.132812 -30.328125 20.132812 -29.535156 19.96875 -28.789062 C 20.175781 -29.371094 20.300781 -29.992188 19.800781 -30.410156 C 19.136719 -30.910156 17.847656 -30.117188 17.304688 -29.746094 C 17.054688 -29.660156 16.804688 -29.496094 16.597656 -29.328125 C 16.722656 -29.453125 16.890625 -29.578125 17.097656 -29.703125 L 16.890625 -29.621094 L 17.472656 -29.953125 C 18.136719 -30.328125 19.636719 -31.160156 20.132812 -30.078125 C 20.507812 -29.203125 19.925781 -27.746094 19.636719 -26.914062 C 19.09375 -25.5 18.429688 -24.167969 17.722656 -22.839844 C 17.847656 -23.128906 18.34375 -24.253906 18.34375 -24.253906 C 18.054688 -24.292969 16.722656 -21.214844 16.472656 -21.132812 L 16.515625 -21.132812 C 16.347656 -21.007812 16.222656 -20.882812 16.222656 -20.839844 C 16.140625 -20.34375 16.722656 -20.46875 17.054688 -20.507812 C 18.46875 -20.675781 20.300781 -21.882812 21.214844 -22.921875 C 22.214844 -24.042969 22.589844 -25.75 22.589844 -27.25 L 22.589844 -27.289062 C 22.546875 -30.117188 20.59375 -33.695312 17.222656 -33.488281 C 15.351562 -33.40625 13.601562 -31.574219 12.398438 -30.328125 C 11.523438 -29.328125 10.691406 -28.246094 9.941406 -27.164062 C 9.609375 -26.664062 9.277344 -26.207031 8.984375 -25.707031 C 8.652344 -25.25 7.988281 -24.542969 7.820312 -24.003906 C 7.820312 -24.003906 8.027344 -24.253906 8.195312 -24.417969 C 7.738281 -23.710938 7.320312 -22.964844 6.90625 -22.257812 C 6.863281 -22.296875 7.15625 -22.878906 7.15625 -22.878906 C 6.78125 -22.964844 5.074219 -19.550781 4.867188 -19.175781 C 4.117188 -17.804688 3.453125 -16.433594 2.996094 -14.976562 C 2.496094 -13.355469 1.832031 -11.816406 1.332031 -10.234375 C 1.082031 -9.441406 0.832031 -8.695312 0.664062 -7.902344 C 0.582031 -7.53125 0.5 -7.195312 0.457031 -6.824219 C 0.457031 -6.78125 0.375 -6.113281 0.457031 -6.199219 C 0.375 -5.90625 0.375 -5.53125 0.332031 -5.242188 C 0.332031 -5.242188 0.332031 -5.949219 0.375 -6.03125 C 0.207031 -5.824219 0.332031 -5.035156 0.292969 -4.949219 C 0.0820312 -3.371094 -0.25 -1.707031 0.292969 -0.167969 C 1 1.957031 2.746094 3.703125 4.660156 4.824219 C 5.65625 5.449219 6.988281 6.15625 8.238281 6.074219 C 9.691406 5.992188 11.105469 4.785156 12.1875 3.910156 C 15.351562 1.246094 18.222656 -2.496094 18.761719 -6.738281 C 18.804688 -7.03125 19.011719 -8.488281 18.511719 -8.527344 C 18.054688 -8.570312 17.722656 -7.570312 17.554688 -7.320312 C 16.308594 -5.285156 14.851562 -3.371094 13.230469 -1.621094 C 11.566406 0.207031 9.484375 2.164062 6.945312 2.746094 C 6.613281 2.828125 6.238281 2.871094 5.867188 2.871094 C 5.367188 2.828125 4.910156 2.703125 4.535156 2.328125 C 4.328125 2.121094 4.117188 1.414062 3.867188 1.289062 C 3.867188 1.082031 3.828125 0.875 3.785156 0.75 L 3.660156 0.5 C 3.621094 -0.75 3.660156 -1.914062 3.867188 -3.203125 L 3.867188 -3.246094 C 3.867188 -3.285156 3.910156 -3.285156 3.910156 -3.328125 Z M 11.230469 -23.671875 C 9.609375 -21.007812 8.238281 -18.261719 6.863281 -15.433594 C 6.074219 -13.769531 5.285156 -12.0625 4.660156 -10.273438 C 5.53125 -13.0625 6.574219 -15.726562 7.820312 -18.386719 C 9.320312 -21.589844 11.316406 -24.710938 13.6875 -27.289062 C 12.730469 -26.125 11.898438 -24.792969 11.230469 -23.671875 Z M 15.515625 -28.246094 C 14.933594 -27.664062 14.394531 -27 13.894531 -26.375 C 14.683594 -27.414062 15.515625 -28.453125 16.558594 -29.285156 C 16.183594 -28.953125 15.808594 -28.539062 15.515625 -28.246094 Z M 19.761719 -27.914062 C 19.84375 -28.164062 19.925781 -28.453125 19.96875 -28.789062 C 19.886719 -28.414062 19.71875 -28.039062 19.71875 -27.746094 C 19.761719 -27.832031 19.761719 -27.871094 19.761719 -27.914062 Z M 19.761719 -27.914062 "/></g></g></g><g fill="rgb(32.939148%, 32.939148%, 32.939148%)" fill-opacity="1"><g transform="translate(38.742786, 136.57587)"><g><path d="M 19.136719 -10.359375 C 19.136719 -10.359375 19.175781 -10.316406 19.136719 -10.398438 C 18.929688 -10.691406 18.636719 -10.484375 18.34375 -10.398438 C 17.140625 -10.152344 15.890625 -9.859375 14.644531 -9.652344 C 15.101562 -11.148438 15.558594 -12.730469 15.726562 -14.269531 C 15.808594 -14.851562 15.851562 -15.476562 15.726562 -16.058594 C 15.640625 -16.433594 15.515625 -16.804688 15.308594 -17.140625 C 15.308594 -17.140625 14.808594 -17.761719 14.933594 -17.429688 L 14.894531 -17.472656 L 14.726562 -17.804688 L 14.894531 -17.636719 C 14.933594 -17.886719 14.226562 -18.34375 14.226562 -18.34375 C 13.1875 -19.386719 11.773438 -20.175781 10.359375 -19.386719 C 9.484375 -18.886719 8.777344 -18.054688 8.195312 -17.222656 C 7.988281 -16.929688 7.777344 -16.597656 7.613281 -16.265625 C 7.445312 -15.933594 7.195312 -14.851562 6.945312 -14.683594 C 6.738281 -14.519531 6.113281 -14.476562 5.824219 -14.308594 C 5.40625 -14.144531 5.035156 -13.9375 4.699219 -13.6875 C 3.910156 -13.1875 3.285156 -12.480469 2.703125 -11.773438 C 1.707031 -10.441406 1.207031 -8.945312 0.5 -7.613281 C -0.832031 -5.074219 0.625 -1.746094 3.078125 -0.539062 C 3.867188 -0.167969 4.785156 0 5.617188 -0.0820312 C 6.488281 -0.207031 7.320312 -0.664062 7.988281 -1.164062 C 8.609375 -1.621094 9.984375 -2.453125 10.234375 -3.160156 C 10.234375 -3.203125 10.152344 -3.160156 10.027344 -3.035156 L 11.230469 -4.453125 C 11.273438 -4.410156 10.941406 -3.992188 10.941406 -3.992188 C 11.230469 -3.867188 12.730469 -6.074219 12.894531 -6.238281 C 13.1875 -6.738281 13.476562 -7.28125 13.8125 -7.777344 C 14.101562 -8.152344 14.019531 -8.113281 14.433594 -8.277344 C 14.394531 -8.238281 14.933594 -8.402344 15.019531 -8.402344 C 15.476562 -8.488281 20.34375 -8.820312 19.136719 -10.359375 Z M 4.742188 -1.957031 L 4.699219 -1.957031 C 1.246094 -1.457031 5.242188 -8.777344 5.324219 -9.195312 L 5.074219 -8.820312 C 5.699219 -10.066406 6.28125 -11.066406 6.574219 -11.398438 C 7.03125 -9.320312 9.277344 -8.527344 11.105469 -8.277344 C 9.902344 -5.867188 7.65625 -2.496094 4.742188 -1.957031 Z M 12.9375 -13.476562 C 12.644531 -12.3125 12.398438 -10.773438 11.773438 -9.734375 C 11.566406 -9.320312 11.691406 -9.441406 11.273438 -9.359375 C 11.023438 -9.277344 10.484375 -9.359375 10.234375 -9.402344 C 9.777344 -9.441406 9.234375 -9.527344 8.902344 -9.816406 C 8.320312 -10.316406 8.402344 -11.105469 8.488281 -11.816406 C 8.570312 -12.523438 8.777344 -13.1875 9.027344 -13.851562 C 9.152344 -14.101562 9.941406 -15.433594 9.816406 -15.683594 C 9.777344 -15.808594 9.320312 -15.058594 9.277344 -15.019531 C 9.527344 -15.476562 9.777344 -15.726562 9.984375 -16.015625 C 9.941406 -16.015625 9.984375 -16.058594 10.027344 -16.140625 L 10.027344 -16.097656 L 10.066406 -16.183594 C 10.066406 -16.183594 10.066406 -16.222656 10.109375 -16.222656 C 10.734375 -17.054688 12.273438 -18.929688 13.105469 -17.636719 C 13.726562 -16.558594 13.144531 -14.519531 12.9375 -13.476562 Z M 10.066406 -16.183594 L 10.109375 -16.222656 C 10.109375 -16.183594 10.066406 -16.183594 10.066406 -16.183594 Z M 10.066406 -16.183594 "/></g></g></g><g fill="rgb(32.939148%, 32.939148%, 32.939148%)" fill-opacity="1"><g transform="translate(55.008458, 136.57587)"><g><path d="M 17.222656 -9.902344 C 17.015625 -10.898438 16.433594 -10.234375 16.183594 -9.859375 C 15.601562 -9.152344 14.683594 -8.488281 13.976562 -7.820312 C 13.019531 -6.988281 12.0625 -6.113281 11.066406 -5.324219 C 10.566406 -4.910156 9.941406 -4.328125 9.320312 -4.117188 C 9.234375 -4.078125 8.945312 -4.035156 8.945312 -3.992188 L 8.902344 -4.035156 C 8.902344 -4.035156 8.859375 -4.699219 8.902344 -4.742188 C 8.945312 -5.285156 9.109375 -5.824219 9.277344 -6.324219 C 9.320312 -6.40625 9.777344 -7.820312 9.691406 -7.820312 L 9.484375 -7.570312 C 9.734375 -8.070312 10.066406 -8.570312 10.359375 -9.109375 C 9.691406 -8.488281 9.234375 -7.777344 8.902344 -6.90625 C 8.734375 -6.488281 8.277344 -5.742188 8.195312 -5.117188 C 8.277344 -6.03125 8.902344 -7.238281 9.195312 -7.777344 C 9.609375 -8.652344 10.066406 -9.652344 10.609375 -10.484375 C 11.605469 -11.980469 13.769531 -13.355469 13.105469 -15.433594 C 12.523438 -17.390625 10.984375 -17.429688 9.777344 -16.308594 C 9.195312 -15.765625 4.242188 -9.441406 4.367188 -9.359375 C 4.367188 -9.359375 4.785156 -9.859375 5.324219 -10.566406 L 2.871094 -6.988281 C 2.828125 -6.988281 3.285156 -7.695312 3.246094 -7.738281 C 3.203125 -7.777344 2.910156 -7.488281 2.871094 -7.320312 C 2.953125 -8.195312 3.246094 -9.070312 3.328125 -9.941406 C 3.371094 -10.273438 3.328125 -10.523438 3.410156 -10.859375 C 3.578125 -11.398438 3.742188 -11.980469 3.992188 -12.4375 C 4.160156 -12.769531 4.492188 -13.0625 4.574219 -13.394531 C 4.742188 -13.9375 4.699219 -14.144531 5.074219 -14.601562 C 5.40625 -15.019531 5.90625 -15.433594 6.199219 -15.808594 C 6.90625 -16.847656 5.699219 -17.554688 5.035156 -17.679688 C 4.492188 -17.761719 3.953125 -17.804688 3.453125 -17.515625 C 2.910156 -17.179688 3.035156 -16.890625 2.910156 -16.433594 C 2.789062 -15.851562 2.371094 -15.183594 2.164062 -14.644531 C 1.832031 -13.769531 1.539062 -12.894531 1.246094 -12.023438 C 0.914062 -11.148438 0.582031 -10.316406 0.332031 -9.441406 C 0.125 -8.734375 0.167969 -8.070312 0.0820312 -7.40625 C 0 -6.65625 -0.125 -6.15625 0.25 -5.492188 C 0.664062 -4.785156 1.789062 -3.703125 2.539062 -4.617188 L 2.703125 -4.285156 C 3.410156 -5.824219 4.492188 -7.195312 5.367188 -8.695312 C 5.742188 -9.359375 6.40625 -9.816406 6.945312 -10.523438 C 7.695312 -11.523438 8.363281 -12.523438 9.195312 -13.476562 C 9.070312 -13.269531 8.527344 -12.3125 8.570312 -12.273438 C 8.652344 -12.3125 8.695312 -12.398438 8.777344 -12.480469 L 8.195312 -11.316406 C 8.152344 -11.355469 8.363281 -11.648438 8.277344 -11.648438 C 7.988281 -11.730469 7.113281 -9.402344 7.03125 -9.195312 C 6.738281 -8.277344 6.699219 -7.445312 6.613281 -6.488281 C 6.574219 -6.03125 6.488281 -5.574219 6.488281 -5.117188 C 6.488281 -4.660156 6.53125 -4.203125 6.738281 -3.742188 C 6.863281 -3.496094 7.03125 -3.160156 7.238281 -2.953125 C 7.28125 -2.953125 7.738281 -2.539062 7.53125 -2.871094 L 7.777344 -2.621094 L 7.65625 -2.703125 C 7.613281 -2.496094 9.152344 -1.664062 9.402344 -1.582031 C 10.566406 -1.207031 11.816406 -2.539062 12.5625 -3.328125 C 13.5625 -4.410156 14.394531 -5.65625 15.308594 -6.824219 C 15.808594 -7.488281 17.390625 -8.902344 17.222656 -9.902344 Z M 17.222656 -9.902344 "/></g></g></g><g fill="rgb(32.939148%, 32.939148%, 32.939148%)" fill-opacity="1"><g transform="translate(69.19412, 136.57587)"><g><path d="M 17.222656 -9.902344 C 17.015625 -10.898438 16.433594 -10.234375 16.183594 -9.859375 C 15.601562 -9.152344 14.683594 -8.488281 13.976562 -7.820312 C 13.019531 -6.988281 12.0625 -6.113281 11.066406 -5.324219 C 10.566406 -4.910156 9.941406 -4.328125 9.320312 -4.117188 C 9.234375 -4.078125 8.945312 -4.035156 8.945312 -3.992188 L 8.902344 -4.035156 C 8.902344 -4.035156 8.859375 -4.699219 8.902344 -4.742188 C 8.945312 -5.285156 9.109375 -5.824219 9.277344 -6.324219 C 9.320312 -6.40625 9.777344 -7.820312 9.691406 -7.820312 L 9.484375 -7.570312 C 9.734375 -8.070312 10.066406 -8.570312 10.359375 -9.109375 C 9.691406 -8.488281 9.234375 -7.777344 8.902344 -6.90625 C 8.734375 -6.488281 8.277344 -5.742188 8.195312 -5.117188 C 8.277344 -6.03125 8.902344 -7.238281 9.195312 -7.777344 C 9.609375 -8.652344 10.066406 -9.652344 10.609375 -10.484375 C 11.605469 -11.980469 13.769531 -13.355469 13.105469 -15.433594 C 12.523438 -17.390625 10.984375 -17.429688 9.777344 -16.308594 C 9.195312 -15.765625 4.242188 -9.441406 4.367188 -9.359375 C 4.367188 -9.359375 4.785156 -9.859375 5.324219 -10.566406 L 2.871094 -6.988281 C 2.828125 -6.988281 3.285156 -7.695312 3.246094 -7.738281 C 3.203125 -7.777344 2.910156 -7.488281 2.871094 -7.320312 C 2.953125 -8.195312 3.246094 -9.070312 3.328125 -9.941406 C 3.371094 -10.273438 3.328125 -10.523438 3.410156 -10.859375 C 3.578125 -11.398438 3.742188 -11.980469 3.992188 -12.4375 C 4.160156 -12.769531 4.492188 -13.0625 4.574219 -13.394531 C 4.742188 -13.9375 4.699219 -14.144531 5.074219 -14.601562 C 5.40625 -15.019531 5.90625 -15.433594 6.199219 -15.808594 C 6.90625 -16.847656 5.699219 -17.554688 5.035156 -17.679688 C 4.492188 -17.761719 3.953125 -17.804688 3.453125 -17.515625 C 2.910156 -17.179688 3.035156 -16.890625 2.910156 -16.433594 C 2.789062 -15.851562 2.371094 -15.183594 2.164062 -14.644531 C 1.832031 -13.769531 1.539062 -12.894531 1.246094 -12.023438 C 0.914062 -11.148438 0.582031 -10.316406 0.332031 -9.441406 C 0.125 -8.734375 0.167969 -8.070312 0.0820312 -7.40625 C 0 -6.65625 -0.125 -6.15625 0.25 -5.492188 C 0.664062 -4.785156 1.789062 -3.703125 2.539062 -4.617188 L 2.703125 -4.285156 C 3.410156 -5.824219 4.492188 -7.195312 5.367188 -8.695312 C 5.742188 -9.359375 6.40625 -9.816406 6.945312 -10.523438 C 7.695312 -11.523438 8.363281 -12.523438 9.195312 -13.476562 C 9.070312 -13.269531 8.527344 -12.3125 8.570312 -12.273438 C 8.652344 -12.3125 8.695312 -12.398438 8.777344 -12.480469 L 8.195312 -11.316406 C 8.152344 -11.355469 8.363281 -11.648438 8.277344 -11.648438 C 7.988281 -11.730469 7.113281 -9.402344 7.03125 -9.195312 C 6.738281 -8.277344 6.699219 -7.445312 6.613281 -6.488281 C 6.574219 -6.03125 6.488281 -5.574219 6.488281 -5.117188 C 6.488281 -4.660156 6.53125 -4.203125 6.738281 -3.742188 C 6.863281 -3.496094 7.03125 -3.160156 7.238281 -2.953125 C 7.28125 -2.953125 7.738281 -2.539062 7.53125 -2.871094 L 7.777344 -2.621094 L 7.65625 -2.703125 C 7.613281 -2.496094 9.152344 -1.664062 9.402344 -1.582031 C 10.566406 -1.207031 11.816406 -2.539062 12.5625 -3.328125 C 13.5625 -4.410156 14.394531 -5.65625 15.308594 -6.824219 C 15.808594 -7.488281 17.390625 -8.902344 17.222656 -9.902344 Z M 17.222656 -9.902344 "/></g></g></g><g fill="rgb(32.939148%, 32.939148%, 32.939148%)" fill-opacity="1"><g transform="translate(83.379782, 136.57587)"><g><path d="M 15.933594 -10.273438 C 15.933594 -10.234375 15.933594 -10.234375 15.890625 -10.273438 L 15.890625 -10.316406 C 15.226562 -11.441406 14.351562 -9.902344 13.976562 -9.359375 C 13.269531 -8.402344 12.605469 -7.488281 11.855469 -6.613281 C 11.230469 -5.867188 10.566406 -5.117188 10.066406 -4.328125 C 10.066406 -4.242188 9.984375 -4.035156 9.984375 -4.035156 C 9.816406 -3.785156 9.566406 -3.578125 9.359375 -3.328125 C 8.984375 -2.953125 8.609375 -2.539062 8.195312 -2.164062 C 7.570312 -1.582031 4.078125 1.707031 3.621094 -0.414062 C 3.371094 -1.457031 3.703125 -2.746094 3.910156 -3.742188 C 4.035156 -4.285156 4.160156 -4.785156 4.242188 -5.324219 C 4.328125 -5.742188 4.203125 -6.15625 4.410156 -6.574219 C 4.535156 -6.824219 4.574219 -6.78125 4.867188 -6.863281 L 5.574219 -7.113281 C 6.03125 -7.28125 6.488281 -7.445312 6.90625 -7.695312 C 7.53125 -8.070312 8.113281 -8.527344 8.652344 -8.984375 C 9.941406 -10.066406 11.316406 -11.355469 11.855469 -12.980469 C 12.148438 -13.894531 12.1875 -14.894531 11.605469 -15.683594 C 11.066406 -16.390625 10.152344 -16.765625 9.320312 -16.929688 C 7.070312 -17.347656 5.367188 -16.058594 4.078125 -14.351562 C 2.496094 -12.398438 1.371094 -9.984375 0.832031 -7.53125 C 0.539062 -6.324219 0.375 -5.117188 0.167969 -3.867188 C -0.0429688 -2.621094 -0.167969 -1.457031 0.5 -0.292969 C 0.457031 -0.707031 0.375 -1.082031 0.375 -1.457031 C 0.375 -1.664062 0.457031 -1.871094 0.457031 -2.039062 C 0.457031 -2.121094 0.375 -2.371094 0.375 -2.496094 C 0.375 -2.871094 0.457031 -3.160156 0.539062 -3.535156 C 0.582031 -3.910156 0.539062 -4.285156 0.582031 -4.660156 C 0.625 -5.074219 0.789062 -5.40625 0.957031 -5.78125 C 1.082031 -6.113281 1.125 -6.40625 1.246094 -6.738281 C 1.371094 -7.03125 1.457031 -7.363281 1.582031 -7.695312 C 1.621094 -7.902344 1.832031 -8.152344 1.957031 -8.402344 C 1.832031 -8.027344 1.582031 -7.695312 1.496094 -7.363281 C 1.371094 -6.863281 1.457031 -6.324219 1.414062 -5.824219 C 1.332031 -5.285156 1.164062 -4.742188 1.082031 -4.160156 C 1 -3.621094 0.75 -3.121094 0.664062 -2.578125 C 0.582031 -2.078125 0.414062 -1.707031 0.457031 -1.207031 C 0.457031 -0.914062 0.5 -0.625 0.539062 -0.375 C 0.582031 -0.0429688 0.789062 0.167969 1 0.414062 C 1.707031 1.246094 2.664062 1.914062 3.742188 2.203125 C 4.492188 2.414062 5.160156 2.371094 5.867188 1.996094 C 6.863281 1.457031 7.738281 0.625 8.488281 -0.167969 C 9.195312 -0.957031 9.734375 -1.832031 10.359375 -2.664062 C 10.941406 -3.410156 11.648438 -4.117188 12.230469 -4.867188 L 14.476562 -7.777344 L 15.765625 -9.484375 C 15.972656 -9.734375 16.097656 -9.941406 15.933594 -10.273438 Z M 5.617188 -9.816406 C 5.65625 -9.902344 5.65625 -9.941406 5.65625 -9.941406 C 6.28125 -11.273438 6.738281 -12.6875 7.613281 -13.976562 L 8.363281 -14.976562 C 8.527344 -15.183594 8.820312 -15.558594 9.109375 -15.640625 C 9.734375 -15.765625 9.902344 -14.683594 9.859375 -14.269531 L 9.691406 -13.394531 C 9.652344 -13.144531 9.734375 -12.980469 9.691406 -12.769531 C 9.609375 -12.523438 9.402344 -12.398438 9.277344 -12.1875 L 8.570312 -11.273438 C 7.613281 -10.152344 6.40625 -9.195312 5.074219 -8.488281 C 5.285156 -8.945312 5.40625 -9.402344 5.617188 -9.816406 Z M 5.617188 -9.816406 "/></g></g></g><g fill="rgb(32.939148%, 32.939148%, 32.939148%)" fill-opacity="1"><g transform="translate(96.317438, 136.57587)"><g><path d="M 15.058594 -7.695312 C 15.433594 -8.238281 16.929688 -9.816406 16.308594 -10.523438 C 15.476562 -11.355469 13.3125 -7.902344 12.980469 -7.488281 C 12.3125 -6.613281 11.605469 -5.78125 10.941406 -4.949219 C 10.566406 -4.492188 10.191406 -4.035156 9.777344 -3.621094 C 9.691406 -3.535156 8.902344 -2.539062 8.984375 -2.539062 C 9.109375 -2.578125 9.234375 -2.664062 9.359375 -2.746094 C 8.652344 -1.996094 7.695312 -1.332031 6.824219 -0.664062 C 6.238281 -0.25 5.117188 0.664062 4.410156 0.167969 C 4.117188 0 4.035156 -0.414062 3.953125 -0.707031 C 3.660156 -1.996094 3.867188 -3.535156 4.078125 -4.867188 C 4.535156 -7.65625 5.449219 -10.398438 6.574219 -13.019531 C 7.113281 -14.226562 7.65625 -15.433594 8.609375 -16.347656 C 8.695312 -16.433594 8.859375 -16.265625 8.902344 -16.308594 C 8.984375 -16.347656 8.652344 -16.472656 8.609375 -16.433594 C 8.152344 -16.183594 7.863281 -15.683594 7.613281 -15.226562 C 6.863281 -14.019531 6.28125 -12.6875 5.78125 -11.355469 C 6.15625 -12.398438 6.574219 -13.4375 7.070312 -14.476562 C 7.363281 -15.019531 7.695312 -15.890625 8.238281 -16.308594 C 9.652344 -17.429688 9.109375 -13.726562 8.945312 -13.1875 C 8.945312 -13.230469 9.109375 -14.144531 9.070312 -14.144531 C 8.984375 -14.144531 8.402344 -12.023438 8.402344 -12.023438 L 8.609375 -12.1875 C 8.402344 -11.855469 7.988281 -11.605469 8.527344 -11.230469 C 9.195312 -10.773438 10.484375 -11.566406 10.773438 -12.148438 C 11.066406 -12.769531 11.148438 -13.601562 11.191406 -14.226562 C 11.273438 -15.308594 10.984375 -15.933594 10.609375 -16.765625 C 10.191406 -17.636719 9.816406 -18.179688 8.695312 -18.34375 C 7.777344 -18.46875 6.945312 -18.097656 6.238281 -17.554688 C 5.199219 -16.804688 4.410156 -15.851562 3.742188 -14.769531 C 3.578125 -14.476562 2.078125 -11.441406 2.121094 -11.398438 L 2.289062 -11.605469 C 2.078125 -11.148438 1.957031 -10.691406 1.789062 -10.273438 C 1.746094 -10.273438 1.871094 -10.648438 1.832031 -10.648438 C 1.582031 -10.691406 0.832031 -8.402344 0.789062 -8.195312 C 0.5 -7.320312 0.292969 -6.449219 0.25 -5.53125 C 0.207031 -4.535156 0.0429688 -3.535156 0 -2.496094 C 0 -1.957031 0 -1.371094 0.0820312 -0.832031 C 0.0820312 -0.664062 0.414062 0.207031 0.414062 -0.0429688 L 0.625 0.664062 C 0.582031 0.625 0.414062 0.207031 0.414062 0.207031 C 0.207031 0.457031 1.332031 2.078125 1.582031 2.328125 C 1.914062 2.703125 2.414062 2.871094 2.910156 2.953125 C 4.574219 3.160156 6.15625 2.203125 7.363281 1.207031 C 9.441406 -0.539062 11.480469 -2.703125 13.019531 -4.949219 C 13.644531 -5.90625 14.351562 -6.78125 15.058594 -7.695312 Z M 2.871094 -10.734375 C 2.789062 -10.316406 2.664062 -9.859375 2.496094 -9.484375 C 2.371094 -9.195312 1.996094 -8.945312 1.957031 -8.734375 C 2.039062 -9.441406 2.578125 -10.152344 2.910156 -10.941406 C 2.910156 -10.859375 2.871094 -10.773438 2.871094 -10.734375 Z M 1.332031 -5.867188 C 1.164062 -5.574219 1.164062 -5.035156 1.164062 -4.574219 C 1.125 -5.074219 1.125 -5.617188 1.289062 -6.113281 C 1.289062 -6.113281 1.414062 -5.949219 1.332031 -5.867188 Z M 4.328125 -6.863281 C 4.492188 -7.53125 4.699219 -8.195312 4.910156 -8.859375 Z M 1.414062 -6.65625 C 1.371094 -6.53125 1.289062 -6.363281 1.289062 -6.28125 C 1.289062 -6.488281 1.289062 -6.699219 1.496094 -6.78125 Z M 5.074219 -9.359375 C 5.035156 -9.320312 5.035156 -9.320312 5.035156 -9.277344 C 5.035156 -9.359375 5.035156 -9.441406 5.074219 -9.527344 Z M 5.074219 -9.359375 "/></g></g></g><g fill="rgb(32.939148%, 32.939148%, 32.939148%)" fill-opacity="1"><g transform="translate(109.712697, 136.57587)"><g><path d="M 16.890625 -21.632812 C 16.847656 -22.214844 16.222656 -21.757812 15.890625 -21.757812 C 14.226562 -21.671875 12.5625 -21.671875 10.941406 -21.589844 C 10.941406 -21.632812 11.023438 -21.796875 11.148438 -22.046875 C 10.984375 -21.757812 10.859375 -21.589844 10.734375 -21.589844 C 11.980469 -24.128906 13.3125 -26.664062 14.894531 -28.996094 C 14.851562 -28.914062 14.226562 -27.871094 14.269531 -27.871094 C 14.394531 -27.832031 15.933594 -29.953125 15.972656 -30.242188 C 15.972656 -30.410156 15.601562 -29.992188 15.601562 -30.035156 C 15.851562 -30.285156 16.265625 -30.492188 16.390625 -30.824219 C 16.683594 -31.65625 15.808594 -32.03125 15.183594 -32.15625 C 13.894531 -32.40625 12.4375 -32.238281 11.605469 -31.160156 C 10.816406 -30.203125 10.234375 -29.078125 9.734375 -27.957031 C 9.484375 -27.457031 9.152344 -27.332031 8.820312 -26.875 C 8.320312 -26.167969 7.988281 -25.335938 7.613281 -24.542969 C 7.28125 -23.835938 6.945312 -23.089844 6.65625 -22.339844 C 6.488281 -21.964844 6.488281 -21.671875 6.113281 -21.550781 C 5.742188 -21.382812 5.035156 -21.507812 4.617188 -21.464844 C 2.996094 -21.257812 1.414062 -21.339844 -0.207031 -21.175781 C -1.039062 -21.132812 -1.871094 -21.132812 -2.664062 -20.839844 C -2.828125 -20.800781 -3.742188 -20.59375 -3.828125 -20.46875 C -4.078125 -20.007812 -3.078125 -19.96875 -2.871094 -19.925781 C -1.289062 -19.71875 0.707031 -19.550781 2.289062 -19.84375 C 3.371094 -20.050781 4.492188 -19.96875 5.65625 -20.050781 C 5.074219 -18.804688 4.617188 -17.472656 4.160156 -16.140625 L 3.660156 -14.683594 C 3.496094 -14.226562 2.953125 -13.355469 2.953125 -12.855469 C 2.953125 -12.769531 3.078125 -12.980469 3.160156 -13.1875 C 2.953125 -12.5625 2.703125 -11.9375 2.539062 -11.316406 C 2.539062 -11.355469 2.664062 -11.855469 2.621094 -11.855469 C 2.414062 -11.855469 1.582031 -9.320312 1.496094 -9.109375 C 1.082031 -7.863281 0.625 -6.613281 0.414062 -5.285156 C 0.167969 -3.953125 -0.167969 -2.664062 -0.457031 -1.371094 C -0.625 -0.707031 -0.789062 -0.0820312 -0.875 0.582031 C -0.957031 0.914062 -1.039062 1.289062 -1.039062 1.621094 C -1.039062 1.707031 -1.039062 2.246094 -0.957031 2.078125 L -1.039062 2.910156 L -1.039062 2.289062 C -1.289062 2.578125 -1.039062 3.910156 -1 4.160156 C -0.832031 4.992188 -0.414062 5.742188 0.332031 6.238281 C 1 6.738281 2.039062 7.195312 2.828125 6.824219 C 3.867188 6.324219 4.742188 5.160156 5.40625 4.328125 C 6.863281 2.621094 8.195312 0.832031 9.527344 -0.957031 C 10.734375 -2.621094 11.980469 -4.242188 13.019531 -5.992188 C 13.601562 -6.988281 14.726562 -7.902344 15.101562 -9.027344 C 15.308594 -9.566406 15.183594 -10.234375 14.519531 -10.109375 C 13.976562 -9.984375 13.230469 -8.527344 12.894531 -8.113281 C 11.398438 -6.238281 9.984375 -4.328125 8.488281 -2.453125 L 6.074219 0.5 C 5.699219 0.914062 5.324219 1.371094 4.910156 1.789062 C 4.742188 1.996094 3.703125 2.828125 3.742188 3.078125 C 3.742188 3.160156 4.203125 2.789062 4.367188 2.664062 C 4.160156 2.910156 3.910156 3.121094 3.703125 3.328125 C 3.742188 3.285156 2.871094 3.785156 2.746094 3.703125 C 1.957031 3.371094 2.664062 0.957031 2.789062 0.375 C 3.535156 -2.996094 4.660156 -6.40625 5.78125 -9.652344 C 6.449219 -11.441406 7.113281 -13.144531 7.863281 -14.894531 C 8.238281 -15.765625 8.609375 -16.683594 9.027344 -17.554688 L 9.609375 -19.136719 L 9.152344 -18.222656 C 9.441406 -18.96875 9.859375 -20.09375 10.109375 -20.132812 L 9.984375 -19.886719 C 10.066406 -20.007812 10.152344 -20.09375 10.234375 -20.132812 C 10.691406 -20.425781 11.855469 -20.132812 12.398438 -20.132812 C 12.769531 -20.132812 13.230469 -20.09375 13.601562 -20.21875 C 13.851562 -20.300781 13.769531 -20.425781 14.0625 -20.507812 C 14.558594 -20.59375 15.183594 -20.257812 15.726562 -20.425781 C 16.222656 -20.550781 16.929688 -21.007812 16.890625 -21.589844 Z M 8.984375 -19.21875 C 7.113281 -15.265625 5.699219 -11.023438 4.203125 -6.90625 C 3.496094 -5.035156 2.828125 -3.078125 2.371094 -1.125 L 2.164062 -0.332031 C 2.453125 -1.832031 2.789062 -3.285156 3.203125 -4.742188 C 4.117188 -7.945312 5.285156 -11.105469 6.65625 -14.144531 C 8.984375 -19.34375 11.066406 -24.917969 14.394531 -29.621094 C 12.148438 -26.417969 10.648438 -22.753906 8.984375 -19.21875 Z M 11.730469 -23.335938 L 12.730469 -25.25 C 12.523438 -25.210938 12.148438 -24.292969 11.730469 -23.335938 Z M 7.445312 -14.269531 C 7.15625 -13.476562 6.824219 -12.730469 6.488281 -11.980469 C 6.824219 -12.769531 7.113281 -13.601562 7.488281 -14.433594 C 7.445312 -14.351562 7.445312 -14.308594 7.445312 -14.269531 Z M 11.191406 -22.132812 L 11.605469 -23.046875 C 11.480469 -22.714844 11.316406 -22.382812 11.191406 -22.132812 Z M 2.121094 4.078125 C 2.078125 4.078125 2.039062 4.035156 1.996094 3.992188 Z M 2.121094 4.078125 "/></g></g></g></svg>