<svg xmlns="http://www.w3.org/2000/svg" xmlns:xlink="http://www.w3.org/1999/xlink" width="500" zoomAndPan="magnify" viewBox="0 0 375 374.999991" height="500" preserveAspectRatio="xMidYMid meet" version="1.0"><defs><g/><clipPath id="id1"><path d="M 126 20 L 248 20 L 248 202 L 126 202 Z M 126 20 " clip-rule="nonzero"/></clipPath><clipPath id="id2"><path d="M 94.761719 106.753906 L 190.289062 16.75 L 280.292969 112.28125 L 184.765625 202.28125 Z M 94.761719 106.753906 " clip-rule="nonzero"/></clipPath><clipPath id="id3"><path d="M 94.761719 106.753906 L 190.289062 16.75 L 280.292969 112.28125 L 184.765625 202.28125 Z M 94.761719 106.753906 " clip-rule="nonzero"/></clipPath><clipPath id="id4"><path d="M 207 142 L 372 142 L 372 266 L 207 266 Z M 207 142 " clip-rule="nonzero"/></clipPath><clipPath id="id5"><path d="M 251.933594 117.949219 L 375.058594 163.417969 L 329.59375 286.539062 L 206.46875 241.074219 Z M 251.933594 117.949219 " clip-rule="nonzero"/></clipPath><clipPath id="id6"><path d="M 251.933594 117.949219 L 375.058594 163.417969 L 329.59375 286.539062 L 206.46875 241.074219 Z M 251.933594 117.949219 " clip-rule="nonzero"/></clipPath><clipPath id="id7"><path d="M 3 135 L 168 135 L 168 260 L 3 260 Z M 3 135 " clip-rule="nonzero"/></clipPath><clipPath id="id8"><path d="M 0 156.394531 L 123.46875 111.871094 L 167.992188 235.339844 L 44.523438 279.859375 Z M 0 156.394531 " clip-rule="nonzero"/></clipPath><clipPath id="id9"><path d="M 123.65625 111.804688 L 0.1875 156.324219 L 44.710938 279.792969 L 168.179688 235.273438 Z M 123.65625 111.804688 " clip-rule="nonzero"/></clipPath></defs><g clip-path="url(#id1)"><g clip-path="url(#id2)"><g clip-path="url(#id3)"><path fill="rgb(0%, 50.19989%, 21.569824%)" d="M 193.210938 22.835938 L 191.597656 21.503906 C 190.671875 20.753906 189.355469 20.695312 188.386719 21.390625 C 146.804688 51.515625 126.121094 83.769531 126.90625 117.253906 C 127.300781 134.628906 133.804688 149.382812 145.636719 159.910156 C 155.585938 168.75 168.742188 174.0625 182.921875 174.984375 L 182.222656 198.472656 C 182.179688 199.921875 183.3125 201.125 184.761719 201.167969 C 185.503906 201.191406 186.140625 200.914062 186.636719 200.445312 C 187.136719 199.976562 187.433594 199.335938 187.472656 198.613281 L 188.171875 175.125 C 202.289062 174.988281 215.628906 170.464844 226.027344 162.285156 C 227.320312 161.285156 228.5625 160.191406 229.726562 159.089844 C 239.929688 149.480469 245.984375 136.34375 247.265625 120.820312 C 248.574219 104.945312 245.53125 89.886719 237.9375 74.789062 C 229.261719 57.5 214.203125 40.023438 193.210938 22.835938 Z M 233.261719 77.175781 C 240.398438 91.371094 243.28125 105.53125 242.039062 120.40625 C 240.855469 134.613281 235.371094 146.59375 226.125 155.308594 C 225.054688 156.316406 223.96875 157.265625 222.789062 158.199219 C 213.359375 165.605469 201.222656 169.71875 188.347656 169.910156 L 189.128906 143.714844 L 224.148438 110.71875 C 225.199219 109.726562 225.25 108.058594 224.257812 107.007812 C 223.269531 105.957031 221.597656 105.90625 220.546875 106.898438 L 189.347656 136.292969 L 190.355469 102.449219 L 211.792969 82.253906 C 212.84375 81.265625 212.894531 79.59375 211.902344 78.542969 C 210.914062 77.492188 209.242188 77.441406 208.191406 78.433594 L 190.578125 95.03125 L 191.40625 67.164062 C 191.449219 65.714844 190.316406 64.511719 188.871094 64.46875 C 187.421875 64.425781 186.21875 65.558594 186.175781 67.007812 L 185.335938 95.132812 L 168.507812 77.269531 C 167.515625 76.21875 165.847656 76.167969 164.796875 77.160156 C 163.746094 78.148438 163.695312 79.820312 164.6875 80.871094 L 185.117188 102.554688 L 184.097656 136.117188 L 154.683594 104.898438 C 153.695312 103.847656 152.023438 103.796875 150.972656 104.789062 C 149.921875 105.777344 149.875 107.449219 150.863281 108.5 L 183.859375 143.519531 L 183.078125 169.71875 C 170.144531 168.8125 158.160156 163.980469 149.132812 155.96875 C 138.40625 146.417969 132.53125 132.984375 132.148438 117.113281 C 131.574219 92.15625 143.851562 67.75 168.746094 44.296875 C 174.992188 38.410156 182.019531 32.585938 189.839844 26.839844 L 189.878906 26.875 C 210.289062 43.601562 224.902344 60.527344 233.261719 77.175781 Z M 233.261719 77.175781 " fill-opacity="1" fill-rule="nonzero"/></g></g></g><g fill="rgb(32.939148%, 32.939148%, 32.939148%)" fill-opacity="1"><g transform="translate(125.90336, 339.988835)"><g><path d="M 45.277344 10.296875 C 43.570312 10.90625 40.765625 11.210938 39.0625 10.296875 C 37.292969 9.324219 37.964844 6.640625 38.328125 5.058594 C 39.0625 1.765625 40.339844 -1.460938 41.621094 -4.632812 C 42.351562 -6.277344 43.023438 -7.984375 43.753906 -9.6875 C 43.9375 -10.054688 45.519531 -14.015625 45.460938 -14.015625 C 45.335938 -14.015625 45.15625 -13.832031 45.03125 -13.589844 C 47.164062 -18.039062 50.761719 -22.972656 49.785156 -28.273438 C 49.359375 -30.53125 47.773438 -32.785156 45.277344 -32.722656 C 43.144531 -32.722656 41.195312 -31.140625 39.730469 -29.796875 C 36.988281 -27.359375 34.734375 -24.496094 32.601562 -21.570312 C 32.359375 -21.265625 31.382812 -19.804688 30.285156 -18.097656 C 30.835938 -19.011719 31.566406 -19.867188 32.175781 -20.71875 C 29.617188 -17.125 27.359375 -13.34375 25.167969 -9.566406 C 26.875 -15.296875 29.675781 -20.597656 32.054688 -26.019531 C 32.96875 -28.03125 34.492188 -29.859375 35.34375 -31.929688 C 36.257812 -34.1875 35.710938 -37.050781 34.1875 -38.9375 C 30.835938 -43.023438 26.019531 -35.953125 24.007812 -33.820312 C 19.925781 -29.492188 16.515625 -24.375 13.34375 -19.4375 C 13.773438 -20.78125 14.015625 -22.058594 14.503906 -23.398438 C 15.113281 -25.105469 15.78125 -26.75 16.332031 -28.457031 C 16.941406 -30.226562 17.488281 -32.054688 18.039062 -33.820312 C 18.585938 -35.585938 19.195312 -37.964844 18.769531 -39.851562 C 18.464844 -41.195312 17.914062 -43.082031 16.941406 -44.117188 C 15.417969 -45.765625 13.285156 -45.640625 11.335938 -45.03125 C 9.566406 -44.484375 8.042969 -43.632812 6.640625 -42.472656 C 5.910156 -41.804688 5.242188 -41.132812 4.570312 -40.402344 L 3.960938 -39.546875 C 3.59375 -39.0625 3.65625 -38.574219 3.472656 -38.148438 C 2.863281 -36.804688 1.828125 -35.769531 1.402344 -34.308594 C 0.976562 -32.664062 0.851562 -30.347656 1.828125 -28.882812 C 2.316406 -28.214844 3.109375 -27.726562 3.839844 -28.335938 C 4.265625 -28.761719 4.082031 -29.1875 4.144531 -29.675781 C 4.203125 -30.042969 4.386719 -31.015625 4.632812 -31.625 C 5.726562 -34.613281 7.375 -37.597656 9.566406 -39.914062 C 10.480469 -40.949219 11.578125 -41.925781 12.917969 -42.289062 C 14.746094 -42.71875 14.808594 -41.253906 14.5625 -39.792969 L 14.199219 -37.539062 L 14.199219 -38.148438 C 12.429688 -31.566406 9.019531 -25.472656 6.703125 -19.132812 C 5.546875 -16.027344 4.203125 -13.101562 2.925781 -10.054688 C 1.644531 -7.007812 0.183594 -3.414062 0 -0.0625 C -0.0625 1.097656 0.183594 2.253906 1.097656 2.984375 C 2.132812 3.839844 3.71875 3.898438 4.507812 2.804688 C 5.117188 1.949219 5.421875 0.425781 5.789062 -0.546875 C 6.398438 -2.132812 6.945312 -3.71875 7.617188 -5.242188 C 8.226562 -6.886719 9.261719 -8.347656 10.175781 -9.871094 C 12.125 -13.039062 14.078125 -16.210938 16.148438 -19.316406 C 18.097656 -22.304688 20.046875 -25.226562 22.179688 -28.03125 C 24.3125 -30.773438 26.445312 -33.578125 29.25 -35.648438 C 29.675781 -35.953125 31.140625 -37.109375 31.75 -36.867188 C 32.234375 -36.683594 31.75 -35.769531 31.566406 -35.28125 C 30.53125 -32.480469 29.1875 -29.617188 27.664062 -27.054688 C 24.132812 -21.085938 20.476562 -14.382812 19.132812 -7.496094 C 18.648438 -5.179688 18.648438 -2.863281 20.476562 -1.097656 C 22.363281 0.671875 23.035156 -0.851562 23.644531 -2.558594 C 24.132812 -3.960938 25.167969 -5.179688 25.898438 -6.460938 C 26.933594 -8.164062 27.910156 -9.933594 29.007812 -11.699219 C 29.675781 -12.675781 30.164062 -14.015625 30.957031 -14.746094 C 32.234375 -16.027344 33.148438 -17.488281 34.1875 -18.953125 C 36.320312 -22 38.453125 -24.921875 41.195312 -27.421875 C 41.863281 -28.03125 43.386719 -29.617188 44.421875 -29.371094 C 45.703125 -29.066406 44.300781 -27.054688 44.363281 -26.265625 L 44.789062 -27.117188 C 44.421875 -26.019531 44.058594 -24.984375 43.632812 -23.949219 C 43.570312 -24.007812 43.8125 -24.742188 43.8125 -24.742188 C 43.570312 -24.800781 42.289062 -21.875 42.109375 -21.570312 C 41.195312 -19.683594 40.097656 -17.792969 39.425781 -15.78125 C 38.757812 -13.953125 38.085938 -12.25 37.292969 -10.480469 L 35.953125 -7.433594 C 35.710938 -6.765625 34.976562 -5.300781 35.160156 -4.570312 C 35.222656 -4.570312 35.28125 -4.570312 35.28125 -4.632812 L 34.976562 -3.535156 C 35.039062 -3.777344 35.101562 -4.328125 35.101562 -4.386719 C 34.855469 -4.203125 34.796875 -2.984375 34.796875 -2.984375 C 33.332031 2.132812 32.722656 7.554688 36.257812 12.125 C 37.964844 14.320312 39.976562 15.296875 42.65625 14.5625 C 43.9375 14.257812 45.15625 13.648438 46.191406 12.796875 C 46.800781 12.25 48.6875 10.601562 48.445312 9.628906 C 48.261719 8.652344 45.886719 10.117188 45.277344 10.296875 Z M 37.171875 -7.984375 C 37.71875 -9.078125 38.207031 -10.238281 38.695312 -11.394531 C 39.0625 -12.308594 39.304688 -13.953125 39.914062 -14.6875 C 40.097656 -14.625 40.097656 -14.441406 39.914062 -14.078125 C 39.488281 -11.882812 38.269531 -9.445312 37.292969 -7.375 C 36.5 -5.605469 35.710938 -3.777344 35.101562 -1.949219 C 35.710938 -3.960938 36.195312 -5.972656 37.171875 -7.984375 Z M 10.175781 -26.203125 C 11.03125 -28.214844 11.699219 -30.347656 12.554688 -32.359375 C 12.917969 -33.210938 13.34375 -34.1875 13.648438 -35.160156 C 12.917969 -32.296875 12.003906 -29.433594 10.664062 -26.691406 C 9.382812 -24.070312 8.226562 -21.390625 7.128906 -18.648438 C 8.105469 -21.207031 9.078125 -23.703125 10.175781 -26.203125 Z M 29.675781 -17.183594 C 28.09375 -14.625 26.386719 -12.003906 26.386719 -12.003906 C 26.570312 -11.945312 28.824219 -15.722656 29.675781 -17.183594 Z M 38.9375 -28.824219 L 36.683594 -26.445312 C 37.414062 -27.300781 38.148438 -28.09375 38.9375 -28.824219 Z M 34.613281 0 C 34.429688 -0.0625 34.429688 -0.183594 34.613281 -0.425781 C 34.734375 -0.367188 34.734375 -0.242188 34.613281 0 Z M 36.074219 -25.714844 L 36.195312 -25.898438 L 36.195312 -25.835938 C 36.320312 -26.082031 36.5 -26.265625 36.5625 -26.324219 L 36.683594 -26.445312 L 36.5625 -26.265625 L 36.378906 -26.082031 L 36.320312 -26.019531 C 36.320312 -26.019531 36.378906 -26.019531 36.378906 -26.082031 L 36.320312 -26.019531 L 36.257812 -25.898438 Z M 29.796875 -17.367188 L 30.042969 -17.734375 L 30.042969 -17.671875 Z M 29.675781 -17.183594 L 29.796875 -17.367188 C 29.796875 -17.304688 29.738281 -17.246094 29.675781 -17.183594 Z M 36.5 -26.265625 L 36.5625 -26.324219 C 36.5625 -26.324219 36.5625 -26.265625 36.5 -26.265625 Z M 36.5 -26.265625 "/></g></g></g><g fill="rgb(32.939148%, 32.939148%, 32.939148%)" fill-opacity="1"><g transform="translate(176.664267, 339.988835)"><g><path d="M 23.339844 -15.050781 C 23.339844 -14.992188 23.339844 -14.992188 23.277344 -15.050781 L 23.277344 -15.113281 C 22.304688 -16.757812 21.023438 -14.503906 20.476562 -13.710938 C 19.4375 -12.308594 18.464844 -10.96875 17.367188 -9.6875 C 16.453125 -8.59375 15.476562 -7.496094 14.746094 -6.335938 C 14.746094 -6.214844 14.625 -5.910156 14.625 -5.910156 C 14.382812 -5.546875 14.015625 -5.242188 13.710938 -4.875 C 13.164062 -4.328125 12.613281 -3.71875 12.003906 -3.167969 C 11.089844 -2.316406 5.972656 2.5 5.300781 -0.609375 C 4.9375 -2.132812 5.421875 -4.023438 5.726562 -5.484375 C 5.910156 -6.277344 6.09375 -7.007812 6.214844 -7.800781 C 6.335938 -8.410156 6.15625 -9.019531 6.460938 -9.628906 C 6.640625 -9.992188 6.703125 -9.933594 7.128906 -10.054688 L 8.164062 -10.421875 C 8.835938 -10.664062 9.507812 -10.90625 10.117188 -11.273438 C 11.03125 -11.820312 11.882812 -12.492188 12.675781 -13.164062 C 14.5625 -14.746094 16.574219 -16.636719 17.367188 -19.011719 C 17.792969 -20.351562 17.855469 -21.816406 17 -22.972656 C 16.210938 -24.007812 14.867188 -24.558594 13.648438 -24.800781 C 10.359375 -25.410156 7.859375 -23.523438 5.972656 -21.023438 C 3.65625 -18.160156 2.011719 -14.625 1.21875 -11.03125 C 0.792969 -9.261719 0.546875 -7.496094 0.242188 -5.667969 C -0.0625 -3.839844 -0.242188 -2.132812 0.730469 -0.425781 C 0.671875 -1.035156 0.546875 -1.585938 0.546875 -2.132812 C 0.546875 -2.4375 0.671875 -2.742188 0.671875 -2.984375 C 0.671875 -3.109375 0.546875 -3.472656 0.546875 -3.65625 C 0.546875 -4.203125 0.671875 -4.632812 0.792969 -5.179688 C 0.851562 -5.726562 0.792969 -6.277344 0.851562 -6.824219 C 0.914062 -7.433594 1.15625 -7.921875 1.402344 -8.46875 C 1.585938 -8.957031 1.644531 -9.382812 1.828125 -9.871094 C 2.011719 -10.296875 2.132812 -10.785156 2.316406 -11.273438 C 2.375 -11.578125 2.679688 -11.945312 2.863281 -12.308594 C 2.679688 -11.761719 2.316406 -11.273438 2.195312 -10.785156 C 2.011719 -10.054688 2.132812 -9.261719 2.070312 -8.53125 C 1.949219 -7.738281 1.707031 -6.945312 1.585938 -6.09375 C 1.460938 -5.300781 1.097656 -4.570312 0.976562 -3.777344 C 0.851562 -3.046875 0.609375 -2.5 0.671875 -1.765625 C 0.671875 -1.339844 0.730469 -0.914062 0.792969 -0.546875 C 0.851562 -0.0625 1.15625 0.242188 1.460938 0.609375 C 2.5 1.828125 3.898438 2.804688 5.484375 3.230469 C 6.582031 3.535156 7.554688 3.472656 8.59375 2.925781 C 10.054688 2.132812 11.335938 0.914062 12.429688 -0.242188 C 13.46875 -1.402344 14.257812 -2.679688 15.171875 -3.898438 C 16.027344 -4.996094 17.0625 -6.03125 17.914062 -7.128906 L 21.207031 -11.394531 L 23.09375 -13.894531 C 23.398438 -14.257812 23.582031 -14.5625 23.339844 -15.050781 Z M 8.226562 -14.382812 C 8.289062 -14.503906 8.289062 -14.5625 8.289062 -14.5625 C 9.203125 -16.515625 9.871094 -18.585938 11.152344 -20.476562 L 12.25 -21.9375 C 12.492188 -22.242188 12.917969 -22.789062 13.34375 -22.914062 C 14.257812 -23.09375 14.503906 -21.511719 14.441406 -20.902344 L 14.199219 -19.621094 C 14.136719 -19.257812 14.257812 -19.011719 14.199219 -18.707031 C 14.078125 -18.34375 13.773438 -18.160156 13.589844 -17.855469 L 12.554688 -16.515625 C 11.152344 -14.867188 9.382812 -13.46875 7.433594 -12.429688 C 7.738281 -13.101562 7.921875 -13.773438 8.226562 -14.382812 Z M 8.226562 -14.382812 "/></g></g></g><g fill="rgb(32.939148%, 32.939148%, 32.939148%)" fill-opacity="1"><g transform="translate(195.615819, 339.988835)"><g><path d="M 23.339844 -15.050781 C 23.339844 -14.992188 23.339844 -14.992188 23.277344 -15.050781 L 23.277344 -15.113281 C 22.304688 -16.757812 21.023438 -14.503906 20.476562 -13.710938 C 19.4375 -12.308594 18.464844 -10.96875 17.367188 -9.6875 C 16.453125 -8.59375 15.476562 -7.496094 14.746094 -6.335938 C 14.746094 -6.214844 14.625 -5.910156 14.625 -5.910156 C 14.382812 -5.546875 14.015625 -5.242188 13.710938 -4.875 C 13.164062 -4.328125 12.613281 -3.71875 12.003906 -3.167969 C 11.089844 -2.316406 5.972656 2.5 5.300781 -0.609375 C 4.9375 -2.132812 5.421875 -4.023438 5.726562 -5.484375 C 5.910156 -6.277344 6.09375 -7.007812 6.214844 -7.800781 C 6.335938 -8.410156 6.15625 -9.019531 6.460938 -9.628906 C 6.640625 -9.992188 6.703125 -9.933594 7.128906 -10.054688 L 8.164062 -10.421875 C 8.835938 -10.664062 9.507812 -10.90625 10.117188 -11.273438 C 11.03125 -11.820312 11.882812 -12.492188 12.675781 -13.164062 C 14.5625 -14.746094 16.574219 -16.636719 17.367188 -19.011719 C 17.792969 -20.351562 17.855469 -21.816406 17 -22.972656 C 16.210938 -24.007812 14.867188 -24.558594 13.648438 -24.800781 C 10.359375 -25.410156 7.859375 -23.523438 5.972656 -21.023438 C 3.65625 -18.160156 2.011719 -14.625 1.21875 -11.03125 C 0.792969 -9.261719 0.546875 -7.496094 0.242188 -5.667969 C -0.0625 -3.839844 -0.242188 -2.132812 0.730469 -0.425781 C 0.671875 -1.035156 0.546875 -1.585938 0.546875 -2.132812 C 0.546875 -2.4375 0.671875 -2.742188 0.671875 -2.984375 C 0.671875 -3.109375 0.546875 -3.472656 0.546875 -3.65625 C 0.546875 -4.203125 0.671875 -4.632812 0.792969 -5.179688 C 0.851562 -5.726562 0.792969 -6.277344 0.851562 -6.824219 C 0.914062 -7.433594 1.15625 -7.921875 1.402344 -8.46875 C 1.585938 -8.957031 1.644531 -9.382812 1.828125 -9.871094 C 2.011719 -10.296875 2.132812 -10.785156 2.316406 -11.273438 C 2.375 -11.578125 2.679688 -11.945312 2.863281 -12.308594 C 2.679688 -11.761719 2.316406 -11.273438 2.195312 -10.785156 C 2.011719 -10.054688 2.132812 -9.261719 2.070312 -8.53125 C 1.949219 -7.738281 1.707031 -6.945312 1.585938 -6.09375 C 1.460938 -5.300781 1.097656 -4.570312 0.976562 -3.777344 C 0.851562 -3.046875 0.609375 -2.5 0.671875 -1.765625 C 0.671875 -1.339844 0.730469 -0.914062 0.792969 -0.546875 C 0.851562 -0.0625 1.15625 0.242188 1.460938 0.609375 C 2.5 1.828125 3.898438 2.804688 5.484375 3.230469 C 6.582031 3.535156 7.554688 3.472656 8.59375 2.925781 C 10.054688 2.132812 11.335938 0.914062 12.429688 -0.242188 C 13.46875 -1.402344 14.257812 -2.679688 15.171875 -3.898438 C 16.027344 -4.996094 17.0625 -6.03125 17.914062 -7.128906 L 21.207031 -11.394531 L 23.09375 -13.894531 C 23.398438 -14.257812 23.582031 -14.5625 23.339844 -15.050781 Z M 8.226562 -14.382812 C 8.289062 -14.503906 8.289062 -14.5625 8.289062 -14.5625 C 9.203125 -16.515625 9.871094 -18.585938 11.152344 -20.476562 L 12.25 -21.9375 C 12.492188 -22.242188 12.917969 -22.789062 13.34375 -22.914062 C 14.257812 -23.09375 14.503906 -21.511719 14.441406 -20.902344 L 14.199219 -19.621094 C 14.136719 -19.257812 14.257812 -19.011719 14.199219 -18.707031 C 14.078125 -18.34375 13.773438 -18.160156 13.589844 -17.855469 L 12.554688 -16.515625 C 11.152344 -14.867188 9.382812 -13.46875 7.433594 -12.429688 C 7.738281 -13.101562 7.921875 -13.773438 8.226562 -14.382812 Z M 8.226562 -14.382812 "/></g></g></g><g fill="rgb(32.939148%, 32.939148%, 32.939148%)" fill-opacity="1"><g transform="translate(214.567371, 339.988835)"><g><path d="M 24.742188 -31.6875 C 24.679688 -32.539062 23.765625 -31.871094 23.277344 -31.871094 C 20.839844 -31.75 18.402344 -31.75 16.027344 -31.625 C 16.027344 -31.6875 16.148438 -31.929688 16.332031 -32.296875 C 16.085938 -31.871094 15.90625 -31.625 15.722656 -31.625 C 17.550781 -35.34375 19.5 -39.0625 21.816406 -42.472656 C 21.753906 -42.351562 20.839844 -40.828125 20.902344 -40.828125 C 21.085938 -40.765625 23.339844 -43.875 23.398438 -44.300781 C 23.398438 -44.546875 22.851562 -43.9375 22.851562 -43.996094 C 23.21875 -44.363281 23.828125 -44.667969 24.007812 -45.15625 C 24.4375 -46.375 23.15625 -46.921875 22.242188 -47.105469 C 20.351562 -47.46875 18.21875 -47.226562 17 -45.640625 C 15.84375 -44.242188 14.992188 -42.59375 14.257812 -40.949219 C 13.894531 -40.21875 13.40625 -40.035156 12.917969 -39.367188 C 12.1875 -38.328125 11.699219 -37.109375 11.152344 -35.953125 C 10.664062 -34.917969 10.175781 -33.820312 9.75 -32.722656 C 9.507812 -32.175781 9.507812 -31.75 8.957031 -31.566406 C 8.410156 -31.320312 7.375 -31.503906 6.765625 -31.445312 C 4.386719 -31.140625 2.070312 -31.261719 -0.304688 -31.015625 C -1.523438 -30.957031 -2.742188 -30.957031 -3.898438 -30.53125 C -4.144531 -30.46875 -5.484375 -30.164062 -5.605469 -29.980469 C -5.972656 -29.3125 -4.507812 -29.25 -4.203125 -29.1875 C -1.890625 -28.882812 1.035156 -28.640625 3.351562 -29.066406 C 4.9375 -29.371094 6.582031 -29.25 8.289062 -29.371094 C 7.433594 -27.542969 6.765625 -25.59375 6.09375 -23.644531 L 5.363281 -21.511719 C 5.117188 -20.839844 4.328125 -19.5625 4.328125 -18.828125 C 4.328125 -18.707031 4.507812 -19.011719 4.632812 -19.316406 C 4.328125 -18.402344 3.960938 -17.488281 3.71875 -16.574219 C 3.71875 -16.636719 3.898438 -17.367188 3.839844 -17.367188 C 3.535156 -17.367188 2.316406 -13.648438 2.195312 -13.34375 C 1.585938 -11.515625 0.914062 -9.6875 0.609375 -7.738281 C 0.242188 -5.789062 -0.242188 -3.898438 -0.671875 -2.011719 C -0.914062 -1.035156 -1.15625 -0.121094 -1.28125 0.851562 C -1.402344 1.339844 -1.523438 1.890625 -1.523438 2.375 C -1.523438 2.5 -1.523438 3.289062 -1.402344 3.046875 L -1.523438 4.265625 L -1.523438 3.351562 C -1.890625 3.777344 -1.523438 5.726562 -1.460938 6.09375 C -1.21875 7.3125 -0.609375 8.410156 0.488281 9.140625 C 1.460938 9.871094 2.984375 10.542969 4.144531 9.992188 C 5.667969 9.261719 6.945312 7.554688 7.921875 6.335938 C 10.054688 3.839844 12.003906 1.21875 13.953125 -1.402344 C 15.722656 -3.839844 17.550781 -6.214844 19.074219 -8.773438 C 19.925781 -10.238281 21.570312 -11.578125 22.121094 -13.222656 C 22.425781 -14.015625 22.242188 -14.992188 21.265625 -14.808594 C 20.476562 -14.625 19.378906 -12.492188 18.890625 -11.882812 C 16.695312 -9.140625 14.625 -6.335938 12.429688 -3.59375 L 8.898438 0.730469 C 8.347656 1.339844 7.800781 2.011719 7.191406 2.621094 C 6.945312 2.925781 5.421875 4.144531 5.484375 4.507812 C 5.484375 4.632812 6.15625 4.082031 6.398438 3.898438 C 6.09375 4.265625 5.726562 4.570312 5.421875 4.875 C 5.484375 4.8125 4.203125 5.546875 4.023438 5.421875 C 2.863281 4.9375 3.898438 1.402344 4.082031 0.546875 C 5.179688 -4.386719 6.824219 -9.382812 8.46875 -14.136719 C 9.445312 -16.757812 10.421875 -19.257812 11.515625 -21.816406 C 12.066406 -23.09375 12.613281 -24.4375 13.222656 -25.714844 L 14.078125 -28.03125 L 13.40625 -26.691406 C 13.832031 -27.789062 14.441406 -29.433594 14.808594 -29.492188 L 14.625 -29.128906 C 14.746094 -29.3125 14.867188 -29.433594 14.992188 -29.492188 C 15.660156 -29.921875 17.367188 -29.492188 18.160156 -29.492188 C 18.707031 -29.492188 19.378906 -29.433594 19.925781 -29.617188 C 20.292969 -29.738281 20.171875 -29.921875 20.597656 -30.042969 C 21.328125 -30.164062 22.242188 -29.675781 23.035156 -29.921875 C 23.765625 -30.101562 24.800781 -30.773438 24.742188 -31.625 Z M 13.164062 -28.152344 C 10.421875 -22.363281 8.347656 -16.148438 6.15625 -10.117188 C 5.117188 -7.375 4.144531 -4.507812 3.472656 -1.644531 L 3.167969 -0.488281 C 3.59375 -2.679688 4.082031 -4.8125 4.691406 -6.945312 C 6.03125 -11.640625 7.738281 -16.269531 9.75 -20.71875 C 13.164062 -28.335938 16.210938 -36.5 21.085938 -43.386719 C 17.792969 -38.695312 15.601562 -33.332031 13.164062 -28.152344 Z M 17.183594 -34.1875 L 18.648438 -36.988281 C 18.34375 -36.929688 17.792969 -35.585938 17.183594 -34.1875 Z M 10.90625 -20.902344 C 10.480469 -19.742188 9.992188 -18.648438 9.507812 -17.550781 C 9.992188 -18.707031 10.421875 -19.925781 10.96875 -21.144531 C 10.90625 -21.023438 10.90625 -20.960938 10.90625 -20.902344 Z M 16.390625 -32.417969 L 17 -33.757812 C 16.820312 -33.273438 16.574219 -32.785156 16.390625 -32.417969 Z M 3.109375 5.972656 C 3.046875 5.972656 2.984375 5.910156 2.925781 5.851562 Z M 3.109375 5.972656 "/></g></g></g><g clip-path="url(#id4)"><g clip-path="url(#id5)"><g clip-path="url(#id6)"><path fill="rgb(0%, 50.19989%, 21.569824%)" d="M 370.910156 168.742188 L 371.382812 166.703125 C 371.644531 165.542969 371.109375 164.335938 370.054688 163.78125 C 324.566406 139.957031 286.476562 135.800781 256.84375 151.410156 C 241.460938 159.5 231.148438 171.890625 226.988281 187.175781 C 223.503906 200.019531 224.605469 214.164062 230.089844 227.269531 L 208.746094 237.101562 C 207.429688 237.707031 206.859375 239.257812 207.464844 240.574219 C 207.773438 241.25 208.308594 241.699219 208.949219 241.933594 C 209.589844 242.171875 210.296875 242.152344 210.960938 241.867188 L 232.304688 232.035156 C 238.710938 244.613281 248.703125 254.542969 260.652344 260.214844 C 262.125 260.925781 263.660156 261.550781 265.160156 262.105469 C 278.3125 266.960938 292.765625 266.535156 307.238281 260.769531 C 322.035156 254.871094 334.164062 245.441406 344.304688 231.921875 C 355.917969 216.457031 364.863281 195.191406 370.910156 168.742188 Z M 340.085938 228.796875 C 330.550781 241.507812 319.15625 250.394531 305.28125 255.90625 C 292.035156 261.171875 278.863281 261.597656 266.945312 257.195312 C 265.566406 256.6875 264.230469 256.136719 262.871094 255.496094 C 252.042969 250.347656 242.953125 241.3125 237.050781 229.871094 L 260.855469 218.902344 L 305.992188 235.570312 C 307.347656 236.070312 308.863281 235.371094 309.363281 234.019531 C 309.863281 232.664062 309.164062 231.148438 307.808594 230.648438 L 267.597656 215.796875 L 298.347656 201.632812 L 325.976562 211.835938 C 327.332031 212.335938 328.847656 211.636719 329.347656 210.28125 C 329.847656 208.929688 329.152344 207.410156 327.796875 206.910156 L 305.09375 198.527344 L 330.414062 186.863281 C 331.730469 186.257812 332.300781 184.707031 331.695312 183.390625 C 331.089844 182.074219 329.539062 181.503906 328.222656 182.109375 L 302.667969 193.882812 L 311.167969 170.855469 C 311.667969 169.503906 310.96875 167.984375 309.613281 167.484375 C 308.261719 166.984375 306.742188 167.683594 306.242188 169.039062 L 295.921875 196.988281 L 265.417969 211.019531 L 280.273438 170.78125 C 280.777344 169.425781 280.078125 167.910156 278.722656 167.410156 C 277.367188 166.910156 275.851562 167.609375 275.351562 168.964844 L 258.683594 214.101562 L 234.878906 225.066406 C 229.929688 213.082031 228.921875 200.199219 232.078125 188.550781 C 235.851562 174.691406 245.261719 163.449219 259.304688 156.042969 C 281.394531 144.414062 308.714844 144.542969 340.800781 156.390625 C 348.851562 159.363281 357.195312 163.0625 365.824219 167.507812 L 365.804688 167.554688 C 359.917969 193.28125 351.265625 213.898438 340.085938 228.796875 Z M 340.085938 228.796875 " fill-opacity="1" fill-rule="nonzero"/></g></g></g><g clip-path="url(#id7)"><g clip-path="url(#id8)"><g clip-path="url(#id9)"><path fill="rgb(0%, 50.19989%, 21.569824%)" d="M 4.296875 161.679688 L 3.839844 159.640625 C 3.585938 158.476562 4.128906 157.277344 5.1875 156.726562 C 50.859375 133.253906 88.976562 129.386719 118.492188 145.226562 C 133.8125 153.429688 144.03125 165.902344 148.070312 181.214844 C 151.457031 194.085938 150.25 208.222656 144.664062 221.289062 L 165.929688 231.28125 C 167.242188 231.898438 167.800781 233.453125 167.1875 234.765625 C 166.871094 235.4375 166.332031 235.882812 165.691406 236.113281 C 165.050781 236.34375 164.34375 236.320312 163.679688 236.027344 L 142.410156 226.035156 C 135.90625 238.566406 125.84375 248.417969 113.847656 253.996094 C 112.371094 254.699219 110.832031 255.308594 109.324219 255.851562 C 96.140625 260.605469 81.6875 260.070312 67.261719 254.191406 C 52.511719 248.183594 40.453125 238.664062 30.417969 225.066406 C 18.917969 209.511719 10.140625 188.175781 4.296875 161.679688 Z M 34.660156 221.972656 C 44.09375 234.753906 55.425781 243.726562 69.253906 249.34375 C 82.460938 254.710938 95.628906 255.238281 107.578125 250.929688 C 108.960938 250.429688 110.300781 249.890625 111.664062 249.261719 C 122.535156 244.195312 131.691406 235.230469 137.683594 223.832031 L 113.964844 212.683594 L 68.699219 229.007812 C 67.34375 229.496094 65.828125 228.785156 65.339844 227.429688 C 64.851562 226.070312 65.5625 224.558594 66.917969 224.070312 L 107.242188 209.527344 L 76.601562 195.128906 L 48.894531 205.117188 C 47.539062 205.609375 46.027344 204.898438 45.535156 203.539062 C 45.046875 202.179688 45.757812 200.667969 47.117188 200.179688 L 69.882812 191.96875 L 44.652344 180.113281 C 43.339844 179.496094 42.78125 177.941406 43.394531 176.628906 C 44.011719 175.320312 45.566406 174.757812 46.878906 175.375 L 72.34375 187.34375 L 64.019531 164.253906 C 63.527344 162.898438 64.238281 161.382812 65.597656 160.894531 C 66.957031 160.40625 68.46875 161.117188 68.957031 162.472656 L 79.0625 190.5 L 109.460938 204.765625 L 94.910156 164.417969 C 94.421875 163.058594 95.132812 161.546875 96.492188 161.054688 C 97.847656 160.566406 99.359375 161.277344 99.851562 162.636719 L 116.171875 207.898438 L 139.890625 219.046875 C 144.933594 207.097656 146.039062 194.226562 142.972656 182.550781 C 139.304688 168.667969 129.980469 157.351562 115.996094 149.835938 C 93.996094 138.042969 66.675781 137.960938 34.5 149.5625 C 26.425781 152.472656 18.050781 156.105469 9.390625 160.484375 L 9.40625 160.535156 C 15.101562 186.304688 23.589844 206.988281 34.660156 221.972656 Z M 34.660156 221.972656 " fill-opacity="1" fill-rule="nonzero"/></g></g></g></svg>