<svg xmlns="http://www.w3.org/2000/svg" xmlns:xlink="http://www.w3.org/1999/xlink" width="200" zoomAndPan="magnify" viewBox="0 0 150 149.999998" height="200" preserveAspectRatio="xMidYMid meet" version="1.0"><defs><g/><clipPath id="id1"><path d="M 50 2 L 100 2 L 100 75 L 50 75 Z M 50 2 " clip-rule="nonzero"/></clipPath><clipPath id="id2"><path d="M 37.90625 36.792969 L 76.117188 0.792969 L 112.117188 39.003906 L 73.90625 75.003906 Z M 37.90625 36.792969 " clip-rule="nonzero"/></clipPath><clipPath id="id3"><path d="M 37.90625 36.792969 L 76.117188 0.792969 L 112.117188 39.003906 L 73.90625 75.003906 Z M 37.90625 36.792969 " clip-rule="nonzero"/></clipPath><clipPath id="id4"><path d="M 82 53 L 149 53 L 149 103 L 82 103 Z M 82 53 " clip-rule="nonzero"/></clipPath><clipPath id="id5"><path d="M 100.738281 43.808594 L 149.988281 61.996094 L 131.800781 111.246094 L 82.550781 93.058594 Z M 100.738281 43.808594 " clip-rule="nonzero"/></clipPath><clipPath id="id6"><path d="M 100.738281 43.808594 L 149.988281 61.996094 L 131.800781 111.246094 L 82.550781 93.058594 Z M 100.738281 43.808594 " clip-rule="nonzero"/></clipPath><clipPath id="id7"><path d="M 1 53 L 67 53 L 67 103 L 1 103 Z M 1 53 " clip-rule="nonzero"/></clipPath><clipPath id="id8"><path d="M 0 61.644531 L 49.386719 43.835938 L 67.195312 93.222656 L 17.808594 111.03125 Z M 0 61.644531 " clip-rule="nonzero"/></clipPath><clipPath id="id9"><path d="M 49.464844 43.808594 L 0.078125 61.617188 L 17.886719 111.003906 L 67.273438 93.195312 Z M 49.464844 43.808594 " clip-rule="nonzero"/></clipPath></defs><g clip-path="url(#id1)"><g clip-path="url(#id2)"><g clip-path="url(#id3)"><path fill="rgb(0%, 50.19989%, 21.569824%)" d="M 77.285156 3.226562 L 76.640625 2.695312 C 76.269531 2.394531 75.742188 2.371094 75.355469 2.648438 C 58.722656 14.699219 50.449219 27.601562 50.765625 40.996094 C 50.921875 47.945312 53.523438 53.84375 58.253906 58.058594 C 62.234375 61.59375 67.5 63.71875 73.167969 64.085938 L 72.890625 73.484375 C 72.871094 74.0625 73.324219 74.542969 73.90625 74.558594 C 74.203125 74.570312 74.457031 74.457031 74.65625 74.269531 C 74.855469 74.082031 74.972656 73.828125 74.988281 73.539062 L 75.269531 64.140625 C 80.917969 64.085938 86.253906 62.277344 90.414062 59.007812 C 90.929688 58.605469 91.425781 58.167969 91.890625 57.730469 C 95.972656 53.882812 98.394531 48.628906 98.90625 42.421875 C 99.429688 36.070312 98.214844 30.046875 95.175781 24.007812 C 91.707031 17.09375 85.683594 10.101562 77.285156 3.226562 Z M 93.304688 24.960938 C 96.160156 30.640625 97.3125 36.304688 96.816406 42.253906 C 96.34375 47.9375 94.148438 52.730469 90.449219 56.214844 C 90.023438 56.617188 89.589844 57 89.117188 57.371094 C 85.34375 60.335938 80.488281 61.980469 75.339844 62.058594 L 75.652344 51.578125 L 89.660156 38.378906 C 90.082031 37.984375 90.101562 37.316406 89.703125 36.894531 C 89.308594 36.476562 88.640625 36.457031 88.21875 36.851562 L 75.738281 48.609375 L 76.144531 35.074219 L 84.71875 26.996094 C 85.136719 26.597656 85.160156 25.929688 84.761719 25.511719 C 84.367188 25.089844 83.699219 25.070312 83.277344 25.464844 L 76.230469 32.105469 L 76.5625 20.957031 C 76.582031 20.378906 76.128906 19.898438 75.546875 19.878906 C 74.96875 19.863281 74.488281 20.316406 74.472656 20.894531 L 74.136719 32.144531 L 67.402344 25 C 67.007812 24.582031 66.339844 24.558594 65.917969 24.957031 C 65.5 25.351562 65.480469 26.019531 65.875 26.441406 L 74.046875 35.113281 L 73.640625 48.539062 L 61.875 36.050781 C 61.480469 35.632812 60.8125 35.613281 60.390625 36.007812 C 59.96875 36.402344 59.949219 37.070312 60.347656 37.492188 L 73.542969 51.5 L 73.230469 61.980469 C 68.058594 61.617188 63.265625 59.683594 59.65625 56.480469 C 55.363281 52.660156 53.011719 47.285156 52.859375 40.9375 C 52.628906 30.957031 57.542969 21.191406 67.5 11.8125 C 70 9.457031 72.808594 7.125 75.9375 4.828125 L 75.953125 4.84375 C 84.117188 11.535156 89.960938 18.304688 93.304688 24.960938 Z M 93.304688 24.960938 " fill-opacity="1" fill-rule="nonzero"/></g></g></g><g fill="rgb(32.939148%, 32.939148%, 32.939148%)" fill-opacity="1"><g transform="translate(33.650661, 136.573763)"><g><path d="M 30.914062 7.03125 C 29.75 7.449219 27.835938 7.65625 26.671875 7.03125 C 25.464844 6.367188 25.921875 4.535156 26.171875 3.453125 C 26.671875 1.207031 27.542969 -1 28.417969 -3.164062 C 28.917969 -4.285156 29.375 -5.449219 29.875 -6.617188 C 30 -6.863281 31.082031 -9.570312 31.039062 -9.570312 C 30.957031 -9.570312 30.832031 -9.445312 30.746094 -9.277344 C 32.203125 -12.316406 34.660156 -15.6875 33.992188 -19.304688 C 33.703125 -20.84375 32.621094 -22.382812 30.914062 -22.34375 C 29.457031 -22.34375 28.125 -21.261719 27.128906 -20.347656 C 25.253906 -18.679688 23.714844 -16.726562 22.257812 -14.730469 C 22.09375 -14.519531 21.425781 -13.523438 20.679688 -12.355469 C 21.054688 -12.980469 21.550781 -13.5625 21.96875 -14.144531 C 20.222656 -11.691406 18.679688 -9.113281 17.183594 -6.53125 C 18.347656 -10.441406 20.261719 -14.0625 21.886719 -17.765625 C 22.507812 -19.140625 23.550781 -20.386719 24.132812 -21.800781 C 24.757812 -23.339844 24.382812 -25.296875 23.339844 -26.585938 C 21.054688 -29.375 17.765625 -24.546875 16.394531 -23.089844 C 13.605469 -20.136719 11.277344 -16.644531 9.113281 -13.273438 C 9.402344 -14.1875 9.570312 -15.0625 9.902344 -15.976562 C 10.320312 -17.140625 10.777344 -18.265625 11.152344 -19.429688 C 11.566406 -20.636719 11.941406 -21.886719 12.316406 -23.089844 C 12.691406 -24.296875 13.105469 -25.921875 12.816406 -27.210938 C 12.605469 -28.125 12.230469 -29.414062 11.566406 -30.125 C 10.527344 -31.246094 9.070312 -31.164062 7.738281 -30.746094 C 6.53125 -30.371094 5.492188 -29.789062 4.535156 -29 C 4.035156 -28.542969 3.578125 -28.085938 3.121094 -27.585938 L 2.703125 -27.003906 C 2.453125 -26.671875 2.496094 -26.335938 2.371094 -26.046875 C 1.957031 -25.128906 1.25 -24.421875 0.957031 -23.425781 C 0.664062 -22.300781 0.582031 -20.71875 1.25 -19.722656 C 1.582031 -19.265625 2.121094 -18.929688 2.621094 -19.347656 C 2.914062 -19.636719 2.789062 -19.929688 2.828125 -20.261719 C 2.871094 -20.511719 2.996094 -21.179688 3.164062 -21.59375 C 3.910156 -23.632812 5.035156 -25.671875 6.53125 -27.253906 C 7.15625 -27.960938 7.90625 -28.625 8.820312 -28.875 C 10.070312 -29.167969 10.109375 -28.167969 9.945312 -27.167969 L 9.695312 -25.628906 L 9.695312 -26.046875 C 8.488281 -21.550781 6.15625 -17.390625 4.578125 -13.066406 C 3.785156 -10.941406 2.871094 -8.945312 1.996094 -6.863281 C 1.125 -4.785156 0.125 -2.328125 0 -0.0429688 C -0.0429688 0.75 0.125 1.539062 0.75 2.039062 C 1.457031 2.621094 2.539062 2.664062 3.078125 1.914062 C 3.496094 1.332031 3.703125 0.292969 3.953125 -0.375 C 4.367188 -1.457031 4.742188 -2.539062 5.199219 -3.578125 C 5.617188 -4.703125 6.324219 -5.699219 6.949219 -6.742188 C 8.28125 -8.902344 9.609375 -11.066406 11.027344 -13.1875 C 12.355469 -15.226562 13.6875 -17.226562 15.144531 -19.140625 C 16.601562 -21.011719 18.058594 -22.925781 19.972656 -24.339844 C 20.261719 -24.546875 21.261719 -25.339844 21.675781 -25.171875 C 22.011719 -25.046875 21.675781 -24.421875 21.550781 -24.089844 C 20.84375 -22.175781 19.929688 -20.222656 18.890625 -18.472656 C 16.476562 -14.394531 13.980469 -9.820312 13.066406 -5.117188 C 12.730469 -3.535156 12.730469 -1.957031 13.980469 -0.75 C 15.269531 0.457031 15.726562 -0.582031 16.144531 -1.746094 C 16.476562 -2.703125 17.183594 -3.535156 17.683594 -4.410156 C 18.390625 -5.574219 19.054688 -6.78125 19.804688 -7.988281 C 20.261719 -8.652344 20.59375 -9.570312 21.136719 -10.070312 C 22.011719 -10.941406 22.632812 -11.941406 23.339844 -12.941406 C 24.796875 -15.019531 26.253906 -17.015625 28.125 -18.722656 C 28.582031 -19.140625 29.625 -20.222656 30.332031 -20.054688 C 31.207031 -19.847656 30.25 -18.472656 30.289062 -17.933594 L 30.582031 -18.515625 C 30.332031 -17.765625 30.082031 -17.058594 29.789062 -16.351562 C 29.75 -16.394531 29.914062 -16.890625 29.914062 -16.890625 C 29.75 -16.933594 28.875 -14.9375 28.75 -14.730469 C 28.125 -13.4375 27.378906 -12.148438 26.917969 -10.777344 C 26.460938 -9.527344 26.003906 -8.363281 25.464844 -7.15625 L 24.546875 -5.074219 C 24.382812 -4.617188 23.882812 -3.621094 24.007812 -3.121094 C 24.046875 -3.121094 24.089844 -3.121094 24.089844 -3.164062 L 23.882812 -2.414062 C 23.925781 -2.578125 23.964844 -2.953125 23.964844 -2.996094 C 23.800781 -2.871094 23.757812 -2.039062 23.757812 -2.039062 C 22.757812 1.457031 22.34375 5.160156 24.757812 8.28125 C 25.921875 9.777344 27.292969 10.441406 29.125 9.945312 C 30 9.734375 30.832031 9.320312 31.539062 8.738281 C 31.953125 8.363281 33.242188 7.238281 33.078125 6.574219 C 32.953125 5.90625 31.328125 6.90625 30.914062 7.03125 Z M 25.378906 -5.449219 C 25.753906 -6.199219 26.085938 -6.988281 26.421875 -7.78125 C 26.671875 -8.40625 26.835938 -9.527344 27.253906 -10.027344 C 27.378906 -9.984375 27.378906 -9.859375 27.253906 -9.609375 C 26.960938 -8.113281 26.128906 -6.449219 25.464844 -5.035156 C 24.921875 -3.828125 24.382812 -2.578125 23.964844 -1.332031 C 24.382812 -2.703125 24.714844 -4.078125 25.378906 -5.449219 Z M 6.949219 -17.890625 C 7.53125 -19.265625 7.988281 -20.71875 8.570312 -22.09375 C 8.820312 -22.675781 9.113281 -23.339844 9.320312 -24.007812 C 8.820312 -22.050781 8.195312 -20.097656 7.28125 -18.222656 C 6.40625 -16.433594 5.617188 -14.605469 4.867188 -12.730469 C 5.535156 -14.480469 6.199219 -16.183594 6.949219 -17.890625 Z M 20.261719 -11.734375 C 19.179688 -9.984375 18.015625 -8.195312 18.015625 -8.195312 C 18.140625 -8.15625 19.679688 -10.734375 20.261719 -11.734375 Z M 26.585938 -19.679688 L 25.046875 -18.058594 C 25.546875 -18.640625 26.046875 -19.179688 26.585938 -19.679688 Z M 23.632812 0 C 23.507812 -0.0429688 23.507812 -0.125 23.632812 -0.292969 C 23.714844 -0.25 23.714844 -0.167969 23.632812 0 Z M 24.632812 -17.558594 L 24.714844 -17.683594 L 24.714844 -17.640625 C 24.796875 -17.808594 24.921875 -17.933594 24.964844 -17.972656 L 25.046875 -18.058594 L 24.964844 -17.933594 L 24.796875 -17.765625 C 24.796875 -17.765625 24.839844 -17.765625 24.839844 -17.808594 L 24.796875 -17.765625 L 24.757812 -17.683594 Z M 20.347656 -11.859375 L 20.511719 -12.109375 L 20.511719 -12.066406 Z M 20.261719 -11.734375 L 20.347656 -11.859375 C 20.347656 -11.816406 20.304688 -11.773438 20.261719 -11.734375 Z M 24.921875 -17.933594 L 24.964844 -17.972656 C 24.964844 -17.972656 24.964844 -17.933594 24.921875 -17.933594 Z M 24.921875 -17.933594 "/></g></g></g><g fill="rgb(32.939148%, 32.939148%, 32.939148%)" fill-opacity="1"><g transform="translate(68.309092, 136.573763)"><g><path d="M 15.933594 -10.277344 C 15.933594 -10.234375 15.933594 -10.234375 15.894531 -10.277344 L 15.894531 -10.320312 C 15.226562 -11.441406 14.355469 -9.902344 13.980469 -9.363281 C 13.273438 -8.40625 12.605469 -7.488281 11.859375 -6.617188 C 11.234375 -5.867188 10.566406 -5.117188 10.070312 -4.328125 C 10.070312 -4.242188 9.984375 -4.035156 9.984375 -4.035156 C 9.820312 -3.785156 9.570312 -3.578125 9.363281 -3.328125 C 8.988281 -2.953125 8.613281 -2.539062 8.195312 -2.164062 C 7.574219 -1.582031 4.078125 1.707031 3.621094 -0.417969 C 3.371094 -1.457031 3.703125 -2.746094 3.910156 -3.746094 C 4.035156 -4.285156 4.160156 -4.785156 4.242188 -5.324219 C 4.328125 -5.742188 4.203125 -6.15625 4.410156 -6.574219 C 4.535156 -6.824219 4.578125 -6.78125 4.867188 -6.863281 L 5.574219 -7.113281 C 6.03125 -7.28125 6.492188 -7.449219 6.90625 -7.695312 C 7.53125 -8.070312 8.113281 -8.53125 8.652344 -8.988281 C 9.945312 -10.070312 11.316406 -11.359375 11.859375 -12.980469 C 12.148438 -13.898438 12.191406 -14.894531 11.609375 -15.6875 C 11.066406 -16.394531 10.152344 -16.765625 9.320312 -16.933594 C 7.074219 -17.351562 5.367188 -16.058594 4.078125 -14.355469 C 2.496094 -12.398438 1.371094 -9.984375 0.832031 -7.53125 C 0.539062 -6.324219 0.375 -5.117188 0.167969 -3.871094 C -0.0429688 -2.621094 -0.167969 -1.457031 0.5 -0.292969 C 0.457031 -0.707031 0.375 -1.082031 0.375 -1.457031 C 0.375 -1.664062 0.457031 -1.871094 0.457031 -2.039062 C 0.457031 -2.121094 0.375 -2.371094 0.375 -2.496094 C 0.375 -2.871094 0.457031 -3.164062 0.539062 -3.535156 C 0.582031 -3.910156 0.539062 -4.285156 0.582031 -4.660156 C 0.625 -5.074219 0.789062 -5.410156 0.957031 -5.785156 C 1.082031 -6.117188 1.125 -6.40625 1.25 -6.742188 C 1.371094 -7.03125 1.457031 -7.363281 1.582031 -7.695312 C 1.621094 -7.90625 1.832031 -8.15625 1.957031 -8.40625 C 1.832031 -8.03125 1.582031 -7.695312 1.496094 -7.363281 C 1.371094 -6.863281 1.457031 -6.324219 1.414062 -5.824219 C 1.332031 -5.285156 1.164062 -4.742188 1.082031 -4.160156 C 1 -3.621094 0.75 -3.121094 0.664062 -2.578125 C 0.582031 -2.082031 0.417969 -1.707031 0.457031 -1.207031 C 0.457031 -0.914062 0.5 -0.625 0.539062 -0.375 C 0.582031 -0.0429688 0.789062 0.167969 1 0.417969 C 1.707031 1.25 2.664062 1.914062 3.746094 2.207031 C 4.492188 2.414062 5.160156 2.371094 5.867188 1.996094 C 6.863281 1.457031 7.738281 0.625 8.488281 -0.167969 C 9.195312 -0.957031 9.734375 -1.832031 10.359375 -2.664062 C 10.941406 -3.410156 11.648438 -4.117188 12.230469 -4.867188 L 14.480469 -7.78125 L 15.769531 -9.488281 C 15.976562 -9.734375 16.101562 -9.945312 15.933594 -10.277344 Z M 5.617188 -9.820312 C 5.660156 -9.902344 5.660156 -9.945312 5.660156 -9.945312 C 6.28125 -11.277344 6.742188 -12.691406 7.613281 -13.980469 L 8.363281 -14.976562 C 8.53125 -15.1875 8.820312 -15.5625 9.113281 -15.644531 C 9.734375 -15.769531 9.902344 -14.6875 9.859375 -14.269531 L 9.695312 -13.398438 C 9.652344 -13.148438 9.734375 -12.980469 9.695312 -12.773438 C 9.609375 -12.523438 9.402344 -12.398438 9.277344 -12.191406 L 8.570312 -11.277344 C 7.613281 -10.152344 6.40625 -9.195312 5.074219 -8.488281 C 5.285156 -8.945312 5.410156 -9.402344 5.617188 -9.820312 Z M 5.617188 -9.820312 "/></g></g></g><g fill="rgb(32.939148%, 32.939148%, 32.939148%)" fill-opacity="1"><g transform="translate(81.248795, 136.573763)"><g><path d="M 15.933594 -10.277344 C 15.933594 -10.234375 15.933594 -10.234375 15.894531 -10.277344 L 15.894531 -10.320312 C 15.226562 -11.441406 14.355469 -9.902344 13.980469 -9.363281 C 13.273438 -8.40625 12.605469 -7.488281 11.859375 -6.617188 C 11.234375 -5.867188 10.566406 -5.117188 10.070312 -4.328125 C 10.070312 -4.242188 9.984375 -4.035156 9.984375 -4.035156 C 9.820312 -3.785156 9.570312 -3.578125 9.363281 -3.328125 C 8.988281 -2.953125 8.613281 -2.539062 8.195312 -2.164062 C 7.574219 -1.582031 4.078125 1.707031 3.621094 -0.417969 C 3.371094 -1.457031 3.703125 -2.746094 3.910156 -3.746094 C 4.035156 -4.285156 4.160156 -4.785156 4.242188 -5.324219 C 4.328125 -5.742188 4.203125 -6.15625 4.410156 -6.574219 C 4.535156 -6.824219 4.578125 -6.78125 4.867188 -6.863281 L 5.574219 -7.113281 C 6.03125 -7.28125 6.492188 -7.449219 6.90625 -7.695312 C 7.53125 -8.070312 8.113281 -8.53125 8.652344 -8.988281 C 9.945312 -10.070312 11.316406 -11.359375 11.859375 -12.980469 C 12.148438 -13.898438 12.191406 -14.894531 11.609375 -15.6875 C 11.066406 -16.394531 10.152344 -16.765625 9.320312 -16.933594 C 7.074219 -17.351562 5.367188 -16.058594 4.078125 -14.355469 C 2.496094 -12.398438 1.371094 -9.984375 0.832031 -7.53125 C 0.539062 -6.324219 0.375 -5.117188 0.167969 -3.871094 C -0.0429688 -2.621094 -0.167969 -1.457031 0.5 -0.292969 C 0.457031 -0.707031 0.375 -1.082031 0.375 -1.457031 C 0.375 -1.664062 0.457031 -1.871094 0.457031 -2.039062 C 0.457031 -2.121094 0.375 -2.371094 0.375 -2.496094 C 0.375 -2.871094 0.457031 -3.164062 0.539062 -3.535156 C 0.582031 -3.910156 0.539062 -4.285156 0.582031 -4.660156 C 0.625 -5.074219 0.789062 -5.410156 0.957031 -5.785156 C 1.082031 -6.117188 1.125 -6.40625 1.25 -6.742188 C 1.371094 -7.03125 1.457031 -7.363281 1.582031 -7.695312 C 1.621094 -7.90625 1.832031 -8.15625 1.957031 -8.40625 C 1.832031 -8.03125 1.582031 -7.695312 1.496094 -7.363281 C 1.371094 -6.863281 1.457031 -6.324219 1.414062 -5.824219 C 1.332031 -5.285156 1.164062 -4.742188 1.082031 -4.160156 C 1 -3.621094 0.75 -3.121094 0.664062 -2.578125 C 0.582031 -2.082031 0.417969 -1.707031 0.457031 -1.207031 C 0.457031 -0.914062 0.5 -0.625 0.539062 -0.375 C 0.582031 -0.0429688 0.789062 0.167969 1 0.417969 C 1.707031 1.25 2.664062 1.914062 3.746094 2.207031 C 4.492188 2.414062 5.160156 2.371094 5.867188 1.996094 C 6.863281 1.457031 7.738281 0.625 8.488281 -0.167969 C 9.195312 -0.957031 9.734375 -1.832031 10.359375 -2.664062 C 10.941406 -3.410156 11.648438 -4.117188 12.230469 -4.867188 L 14.480469 -7.78125 L 15.769531 -9.488281 C 15.976562 -9.734375 16.101562 -9.945312 15.933594 -10.277344 Z M 5.617188 -9.820312 C 5.660156 -9.902344 5.660156 -9.945312 5.660156 -9.945312 C 6.28125 -11.277344 6.742188 -12.691406 7.613281 -13.980469 L 8.363281 -14.976562 C 8.53125 -15.1875 8.820312 -15.5625 9.113281 -15.644531 C 9.734375 -15.769531 9.902344 -14.6875 9.859375 -14.269531 L 9.695312 -13.398438 C 9.652344 -13.148438 9.734375 -12.980469 9.695312 -12.773438 C 9.609375 -12.523438 9.402344 -12.398438 9.277344 -12.191406 L 8.570312 -11.277344 C 7.613281 -10.152344 6.40625 -9.195312 5.074219 -8.488281 C 5.285156 -8.945312 5.410156 -9.402344 5.617188 -9.820312 Z M 5.617188 -9.820312 "/></g></g></g><g fill="rgb(32.939148%, 32.939148%, 32.939148%)" fill-opacity="1"><g transform="translate(94.188499, 136.573763)"><g><path d="M 16.890625 -21.636719 C 16.851562 -22.21875 16.226562 -21.761719 15.894531 -21.761719 C 14.230469 -21.675781 12.566406 -21.675781 10.941406 -21.59375 C 10.941406 -21.636719 11.027344 -21.800781 11.152344 -22.050781 C 10.984375 -21.761719 10.859375 -21.59375 10.734375 -21.59375 C 11.984375 -24.132812 13.3125 -26.671875 14.894531 -29 C 14.855469 -28.917969 14.230469 -27.875 14.269531 -27.875 C 14.394531 -27.835938 15.933594 -29.957031 15.976562 -30.25 C 15.976562 -30.414062 15.601562 -30 15.601562 -30.039062 C 15.851562 -30.289062 16.269531 -30.496094 16.394531 -30.832031 C 16.683594 -31.664062 15.8125 -32.039062 15.1875 -32.160156 C 13.898438 -32.410156 12.441406 -32.246094 11.609375 -31.164062 C 10.816406 -30.207031 10.234375 -29.082031 9.734375 -27.960938 C 9.488281 -27.460938 9.152344 -27.335938 8.820312 -26.878906 C 8.320312 -26.171875 7.988281 -25.339844 7.613281 -24.546875 C 7.28125 -23.839844 6.949219 -23.089844 6.65625 -22.34375 C 6.492188 -21.96875 6.492188 -21.675781 6.117188 -21.550781 C 5.742188 -21.386719 5.035156 -21.511719 4.617188 -21.46875 C 2.996094 -21.261719 1.414062 -21.34375 -0.207031 -21.179688 C -1.039062 -21.136719 -1.871094 -21.136719 -2.664062 -20.84375 C -2.828125 -20.804688 -3.746094 -20.59375 -3.828125 -20.46875 C -4.078125 -20.011719 -3.078125 -19.972656 -2.871094 -19.929688 C -1.289062 -19.722656 0.707031 -19.554688 2.289062 -19.847656 C 3.371094 -20.054688 4.492188 -19.972656 5.660156 -20.054688 C 5.074219 -18.804688 4.617188 -17.476562 4.160156 -16.144531 L 3.660156 -14.6875 C 3.496094 -14.230469 2.953125 -13.355469 2.953125 -12.855469 C 2.953125 -12.773438 3.078125 -12.980469 3.164062 -13.1875 C 2.953125 -12.566406 2.703125 -11.941406 2.539062 -11.316406 C 2.539062 -11.359375 2.664062 -11.859375 2.621094 -11.859375 C 2.414062 -11.859375 1.582031 -9.320312 1.496094 -9.113281 C 1.082031 -7.863281 0.625 -6.617188 0.417969 -5.285156 C 0.167969 -3.953125 -0.167969 -2.664062 -0.457031 -1.371094 C -0.625 -0.707031 -0.789062 -0.0820312 -0.875 0.582031 C -0.957031 0.914062 -1.039062 1.289062 -1.039062 1.621094 C -1.039062 1.707031 -1.039062 2.246094 -0.957031 2.082031 L -1.039062 2.914062 L -1.039062 2.289062 C -1.289062 2.578125 -1.039062 3.910156 -1 4.160156 C -0.832031 4.992188 -0.417969 5.742188 0.332031 6.242188 C 1 6.742188 2.039062 7.199219 2.828125 6.824219 C 3.871094 6.324219 4.742188 5.160156 5.410156 4.328125 C 6.863281 2.621094 8.195312 0.832031 9.527344 -0.957031 C 10.734375 -2.621094 11.984375 -4.242188 13.023438 -5.992188 C 13.605469 -6.988281 14.730469 -7.90625 15.101562 -9.027344 C 15.3125 -9.570312 15.1875 -10.234375 14.519531 -10.109375 C 13.980469 -9.984375 13.230469 -8.53125 12.898438 -8.113281 C 11.398438 -6.242188 9.984375 -4.328125 8.488281 -2.453125 L 6.074219 0.5 C 5.699219 0.914062 5.324219 1.371094 4.910156 1.789062 C 4.742188 1.996094 3.703125 2.828125 3.746094 3.078125 C 3.746094 3.164062 4.203125 2.789062 4.367188 2.664062 C 4.160156 2.914062 3.910156 3.121094 3.703125 3.328125 C 3.746094 3.285156 2.871094 3.785156 2.746094 3.703125 C 1.957031 3.371094 2.664062 0.957031 2.789062 0.375 C 3.535156 -2.996094 4.660156 -6.40625 5.785156 -9.652344 C 6.449219 -11.441406 7.113281 -13.148438 7.863281 -14.894531 C 8.238281 -15.769531 8.613281 -16.683594 9.027344 -17.558594 L 9.609375 -19.140625 L 9.152344 -18.222656 C 9.445312 -18.972656 9.859375 -20.097656 10.109375 -20.136719 L 9.984375 -19.886719 C 10.070312 -20.011719 10.152344 -20.097656 10.234375 -20.136719 C 10.691406 -20.429688 11.859375 -20.136719 12.398438 -20.136719 C 12.773438 -20.136719 13.230469 -20.097656 13.605469 -20.222656 C 13.855469 -20.304688 13.773438 -20.429688 14.0625 -20.511719 C 14.5625 -20.59375 15.1875 -20.261719 15.726562 -20.429688 C 16.226562 -20.554688 16.933594 -21.011719 16.890625 -21.59375 Z M 8.988281 -19.222656 C 7.113281 -15.269531 5.699219 -11.027344 4.203125 -6.90625 C 3.496094 -5.035156 2.828125 -3.078125 2.371094 -1.125 L 2.164062 -0.332031 C 2.453125 -1.832031 2.789062 -3.285156 3.203125 -4.742188 C 4.117188 -7.945312 5.285156 -11.109375 6.65625 -14.144531 C 8.988281 -19.347656 11.066406 -24.921875 14.394531 -29.625 C 12.148438 -26.421875 10.652344 -22.757812 8.988281 -19.222656 Z M 11.734375 -23.339844 L 12.730469 -25.253906 C 12.523438 -25.214844 12.148438 -24.296875 11.734375 -23.339844 Z M 7.449219 -14.269531 C 7.15625 -13.480469 6.824219 -12.730469 6.492188 -11.984375 C 6.824219 -12.773438 7.113281 -13.605469 7.488281 -14.4375 C 7.449219 -14.355469 7.449219 -14.3125 7.449219 -14.269531 Z M 11.191406 -22.136719 L 11.609375 -23.050781 C 11.484375 -22.71875 11.316406 -22.382812 11.191406 -22.136719 Z M 2.121094 4.078125 C 2.082031 4.078125 2.039062 4.035156 1.996094 3.996094 Z M 2.121094 4.078125 "/></g></g></g><g clip-path="url(#id4)"><g clip-path="url(#id5)"><g clip-path="url(#id6)"><path fill="rgb(0%, 50.19989%, 21.569824%)" d="M 148.328125 64.125 L 148.515625 63.3125 C 148.621094 62.847656 148.40625 62.363281 147.984375 62.140625 C 129.789062 52.613281 114.554688 50.949219 102.703125 57.195312 C 96.546875 60.429688 92.421875 65.386719 90.757812 71.5 C 89.367188 76.636719 89.804688 82.296875 92 87.539062 L 83.464844 91.46875 C 82.9375 91.714844 82.707031 92.332031 82.949219 92.859375 C 83.074219 93.128906 83.289062 93.308594 83.542969 93.402344 C 83.800781 93.496094 84.082031 93.492188 84.347656 93.375 L 92.886719 89.445312 C 95.449219 94.476562 99.445312 98.445312 104.226562 100.714844 C 104.816406 101 105.429688 101.25 106.027344 101.472656 C 111.289062 103.414062 117.070312 103.242188 122.859375 100.9375 C 128.777344 98.578125 133.628906 94.808594 137.6875 89.398438 C 142.332031 83.210938 145.910156 74.707031 148.328125 64.125 Z M 136 88.148438 C 132.183594 93.230469 127.625 96.789062 122.078125 98.992188 C 116.777344 101.097656 111.511719 101.269531 106.742188 99.507812 C 106.191406 99.304688 105.65625 99.085938 105.113281 98.828125 C 100.78125 96.769531 97.144531 93.152344 94.785156 88.578125 L 104.304688 84.191406 L 122.359375 90.859375 C 122.902344 91.058594 123.507812 90.777344 123.710938 90.238281 C 123.910156 89.695312 123.628906 89.089844 123.089844 88.886719 L 107.003906 82.949219 L 119.304688 77.28125 L 130.355469 81.363281 C 130.898438 81.5625 131.503906 81.285156 131.703125 80.742188 C 131.902344 80.199219 131.625 79.59375 131.082031 79.394531 L 122 76.039062 L 132.128906 71.375 C 132.65625 71.132812 132.886719 70.511719 132.644531 69.984375 C 132.402344 69.460938 131.78125 69.230469 131.253906 69.472656 L 121.03125 74.183594 L 124.433594 64.972656 C 124.632812 64.429688 124.351562 63.824219 123.808594 63.625 C 123.269531 63.421875 122.660156 63.703125 122.460938 64.246094 L 118.332031 75.425781 L 106.132812 81.035156 L 112.074219 64.941406 C 112.273438 64.402344 111.996094 63.792969 111.453125 63.59375 C 110.910156 63.394531 110.304688 63.671875 110.105469 64.214844 L 103.4375 82.269531 L 93.914062 86.65625 C 91.9375 81.863281 91.53125 76.710938 92.796875 72.050781 C 94.304688 66.507812 98.070312 62.007812 103.6875 59.046875 C 112.523438 54.394531 123.449219 54.445312 136.285156 59.1875 C 139.503906 60.375 142.84375 61.855469 146.292969 63.632812 L 146.285156 63.652344 C 143.929688 73.941406 140.472656 82.1875 136 88.148438 Z M 136 88.148438 " fill-opacity="1" fill-rule="nonzero"/></g></g></g><g clip-path="url(#id7)"><g clip-path="url(#id8)"><g clip-path="url(#id9)"><path fill="rgb(0%, 50.19989%, 21.569824%)" d="M 1.71875 63.757812 L 1.539062 62.941406 C 1.4375 62.476562 1.652344 61.996094 2.078125 61.777344 C 20.34375 52.386719 35.59375 50.84375 47.398438 57.175781 C 53.527344 60.460938 57.613281 65.449219 59.230469 71.574219 C 60.585938 76.722656 60.101562 82.375 57.867188 87.601562 L 66.375 91.601562 C 66.898438 91.847656 67.121094 92.46875 66.875 92.992188 C 66.75 93.261719 66.535156 93.4375 66.277344 93.53125 C 66.023438 93.625 65.738281 93.613281 65.472656 93.5 L 56.964844 89.5 C 54.363281 94.511719 50.339844 98.453125 45.542969 100.6875 C 44.949219 100.964844 44.335938 101.210938 43.730469 101.425781 C 38.457031 103.328125 32.675781 103.113281 26.90625 100.765625 C 21.007812 98.359375 16.183594 94.550781 12.167969 89.113281 C 7.570312 82.890625 4.058594 74.355469 1.71875 63.757812 Z M 13.867188 87.875 C 17.640625 92.988281 22.171875 96.578125 27.703125 98.824219 C 32.988281 100.972656 38.253906 101.183594 43.035156 99.457031 C 43.585938 99.257812 44.121094 99.042969 44.667969 98.789062 C 49.015625 96.765625 52.679688 93.179688 55.074219 88.621094 L 45.585938 84.160156 L 27.480469 90.691406 C 26.9375 90.886719 26.332031 90.601562 26.136719 90.058594 C 25.941406 89.515625 26.226562 88.910156 26.769531 88.714844 L 42.898438 82.898438 L 30.644531 77.136719 L 19.558594 81.132812 C 19.015625 81.332031 18.414062 81.046875 18.214844 80.503906 C 18.019531 79.960938 18.304688 79.355469 18.847656 79.160156 L 27.953125 75.875 L 17.863281 71.132812 C 17.339844 70.886719 17.113281 70.261719 17.359375 69.738281 C 17.605469 69.214844 18.230469 68.992188 18.753906 69.238281 L 28.941406 74.023438 L 25.609375 64.789062 C 25.414062 64.246094 25.699219 63.640625 26.242188 63.445312 C 26.785156 63.25 27.390625 63.53125 27.585938 64.078125 L 31.628906 75.289062 L 43.785156 80.992188 L 37.964844 64.851562 C 37.769531 64.308594 38.054688 63.707031 38.597656 63.507812 C 39.140625 63.3125 39.746094 63.597656 39.941406 64.140625 L 46.46875 82.246094 L 55.957031 86.707031 C 57.976562 81.925781 58.417969 76.777344 57.191406 72.109375 C 55.722656 66.554688 51.992188 62.027344 46.398438 59.023438 C 37.601562 54.304688 26.671875 54.269531 13.800781 58.910156 C 10.570312 60.078125 7.222656 61.53125 3.757812 63.28125 L 3.765625 63.300781 C 6.042969 73.609375 9.4375 81.882812 13.867188 87.875 Z M 13.867188 87.875 " fill-opacity="1" fill-rule="nonzero"/></g></g></g></svg>