<svg xmlns="http://www.w3.org/2000/svg" xmlns:xlink="http://www.w3.org/1999/xlink" width="200" zoomAndPan="magnify" viewBox="0 0 150 149.999998" height="200" preserveAspectRatio="xMidYMid meet" version="1.0"><defs><g/><clipPath id="id1"><path d="M 49 39 L 92 39 L 92 105.316406 L 49 105.316406 Z M 49 39 " clip-rule="nonzero"/></clipPath><clipPath id="id2"><path d="M 32.667969 19 L 70 19 L 70 57 L 32.667969 57 Z M 32.667969 19 " clip-rule="nonzero"/></clipPath><clipPath id="id3"><path d="M 53 5.566406 L 98 5.566406 L 98 50 L 53 50 Z M 53 5.566406 " clip-rule="nonzero"/></clipPath><clipPath id="id4"><path d="M 87 36 L 117.417969 36 L 117.417969 67 L 87 67 Z M 87 36 " clip-rule="nonzero"/></clipPath><clipPath id="id5"><path d="M 54.742188 10.144531 L 95.242188 10.144531 L 95.242188 50.644531 L 54.742188 50.644531 Z M 54.742188 10.144531 " clip-rule="nonzero"/></clipPath></defs><path fill="rgb(21.958923%, 31.759644%, 15.289307%)" d="M 81.058594 33.699219 C 76.300781 33.699219 71.992188 35.609375 68.855469 38.699219 C 65.945312 36.507812 62.324219 35.207031 58.394531 35.207031 C 48.804688 35.207031 41.03125 42.960938 41.03125 52.53125 C 41.03125 62.097656 48.804688 69.851562 58.394531 69.851562 C 63.152344 69.851562 67.460938 67.941406 70.601562 64.851562 C 73.507812 67.042969 77.132812 68.347656 81.058594 68.347656 C 90.648438 68.347656 98.425781 60.589844 98.425781 51.023438 C 98.425781 41.453125 90.648438 33.699219 81.058594 33.699219 " fill-opacity="1" fill-rule="nonzero"/><g clip-path="url(#id1)"><path fill="rgb(57.649231%, 25.099182%, 16.079712%)" d="M 69.214844 105.308594 C 69.214844 105.308594 75.109375 78.714844 68.207031 66.148438 C 61.304688 53.582031 49.941406 43.863281 49.941406 43.863281 C 49.941406 43.863281 54 46.699219 61.304688 53.582031 C 68.613281 60.464844 64.960938 56.820312 64.148438 39.8125 C 64.148438 39.8125 67.394531 54.796875 69.425781 55.203125 C 71.453125 55.605469 71.046875 53.175781 75.917969 47.914062 C 75.917969 47.914062 71.046875 56.820312 71.859375 60.871094 C 72.671875 64.917969 81.5 52.257812 83.660156 44.539062 C 85.066406 39.507812 80.019531 58.277344 83.703125 57.851562 C 86.15625 57.566406 88.480469 50.273438 91.640625 50.027344 C 91.640625 50.027344 83.109375 59.621094 80.773438 66.285156 C 78.433594 72.949219 76.644531 83.515625 77.054688 89.828125 C 77.46875 96.140625 80.082031 105.308594 80.082031 105.308594 L 69.214844 105.308594 " fill-opacity="1" fill-rule="nonzero"/></g><g clip-path="url(#id2)"><path fill="rgb(37.649536%, 48.629761%, 20.388794%)" d="M 69.972656 38.21875 C 69.972656 48.484375 61.628906 56.804688 51.339844 56.804688 C 41.046875 56.804688 32.707031 48.484375 32.707031 38.21875 C 32.707031 27.953125 41.046875 19.632812 51.339844 19.632812 C 61.628906 19.632812 69.972656 27.953125 69.972656 38.21875 " fill-opacity="1" fill-rule="nonzero"/></g><path fill="rgb(37.649536%, 48.629761%, 20.388794%)" d="M 60.65625 57.183594 C 60.65625 63.5625 55.46875 68.738281 49.070312 68.738281 C 42.675781 68.738281 37.488281 63.5625 37.488281 57.183594 C 37.488281 50.804688 42.675781 45.628906 49.070312 45.628906 C 55.46875 45.628906 60.65625 50.804688 60.65625 57.183594 " fill-opacity="1" fill-rule="nonzero"/><g clip-path="url(#id3)"><path fill="rgb(37.649536%, 48.629761%, 20.388794%)" d="M 97.808594 27.417969 C 97.808594 39.488281 88.003906 49.273438 75.902344 49.273438 C 63.804688 49.273438 53.996094 39.488281 53.996094 27.417969 C 53.996094 15.347656 63.804688 5.566406 75.902344 5.566406 C 88.003906 5.566406 97.808594 15.347656 97.808594 27.417969 " fill-opacity="1" fill-rule="nonzero"/></g><path fill="rgb(37.649536%, 48.629761%, 20.388794%)" d="M 115.910156 36.839844 C 115.910156 47.859375 106.957031 56.792969 95.90625 56.792969 C 84.859375 56.792969 75.902344 47.859375 75.902344 36.839844 C 75.902344 25.816406 84.859375 16.882812 95.90625 16.882812 C 106.957031 16.882812 115.910156 25.816406 115.910156 36.839844 " fill-opacity="1" fill-rule="nonzero"/><g clip-path="url(#id4)"><path fill="rgb(37.649536%, 48.629761%, 20.388794%)" d="M 117.40625 51.777344 C 117.40625 60.070312 110.667969 66.792969 102.351562 66.792969 C 94.039062 66.792969 87.300781 60.070312 87.300781 51.777344 C 87.300781 43.480469 94.039062 36.757812 102.351562 36.757812 C 110.667969 36.757812 117.40625 43.480469 117.40625 51.777344 " fill-opacity="1" fill-rule="nonzero"/></g><g clip-path="url(#id5)"><path fill="rgb(0%, 0%, 0%)" d="M 74.992188 50.644531 C 74.328125 50.644531 73.667969 50.613281 73.007812 50.546875 C 72.347656 50.484375 71.691406 50.386719 71.042969 50.257812 C 70.390625 50.128906 69.75 49.964844 69.113281 49.773438 C 68.480469 49.582031 67.855469 49.359375 67.242188 49.105469 C 66.628906 48.851562 66.03125 48.566406 65.445312 48.253906 C 64.863281 47.941406 64.292969 47.601562 63.742188 47.234375 C 63.191406 46.863281 62.660156 46.46875 62.144531 46.050781 C 61.632812 45.628906 61.140625 45.183594 60.671875 44.714844 C 60.203125 44.246094 59.761719 43.753906 59.339844 43.242188 C 58.917969 42.730469 58.523438 42.199219 58.15625 41.644531 C 57.785156 41.09375 57.445312 40.527344 57.132812 39.941406 C 56.820312 39.355469 56.539062 38.757812 56.285156 38.144531 C 56.03125 37.53125 55.808594 36.910156 55.613281 36.273438 C 55.421875 35.640625 55.261719 34.996094 55.132812 34.347656 C 55.003906 33.695312 54.90625 33.039062 54.839844 32.378906 C 54.773438 31.71875 54.742188 31.058594 54.742188 30.394531 C 54.742188 29.730469 54.773438 29.070312 54.839844 28.410156 C 54.90625 27.75 55.003906 27.09375 55.132812 26.445312 C 55.261719 25.792969 55.421875 25.152344 55.613281 24.515625 C 55.808594 23.882812 56.03125 23.257812 56.285156 22.644531 C 56.539062 22.035156 56.820312 21.433594 57.132812 20.851562 C 57.445312 20.265625 57.785156 19.695312 58.15625 19.144531 C 58.523438 18.59375 58.917969 18.0625 59.339844 17.550781 C 59.761719 17.035156 60.203125 16.546875 60.671875 16.078125 C 61.140625 15.609375 61.632812 15.164062 62.144531 14.742188 C 62.660156 14.320312 63.191406 13.925781 63.742188 13.558594 C 64.292969 13.191406 64.863281 12.847656 65.445312 12.535156 C 66.03125 12.222656 66.628906 11.941406 67.242188 11.6875 C 67.855469 11.433594 68.480469 11.210938 69.113281 11.019531 C 69.75 10.824219 70.390625 10.664062 71.042969 10.535156 C 71.691406 10.40625 72.347656 10.308594 73.007812 10.242188 C 73.667969 10.179688 74.328125 10.144531 74.992188 10.144531 C 75.65625 10.144531 76.316406 10.179688 76.976562 10.242188 C 77.636719 10.308594 78.292969 10.40625 78.941406 10.535156 C 79.59375 10.664062 80.234375 10.824219 80.871094 11.019531 C 81.503906 11.210938 82.128906 11.433594 82.742188 11.6875 C 83.355469 11.941406 83.953125 12.222656 84.539062 12.535156 C 85.125 12.847656 85.691406 13.191406 86.242188 13.558594 C 86.792969 13.925781 87.328125 14.320312 87.839844 14.742188 C 88.351562 15.164062 88.84375 15.609375 89.3125 16.078125 C 89.78125 16.546875 90.226562 17.035156 90.644531 17.550781 C 91.066406 18.0625 91.460938 18.59375 91.828125 19.144531 C 92.199219 19.695312 92.539062 20.265625 92.851562 20.851562 C 93.164062 21.433594 93.449219 22.035156 93.699219 22.644531 C 93.953125 23.257812 94.179688 23.882812 94.371094 24.515625 C 94.5625 25.152344 94.722656 25.792969 94.851562 26.445312 C 94.984375 27.09375 95.078125 27.75 95.144531 28.410156 C 95.210938 29.070312 95.242188 29.730469 95.242188 30.394531 C 95.242188 31.058594 95.207031 31.71875 95.144531 32.378906 C 95.078125 33.039062 94.980469 33.695312 94.847656 34.34375 C 94.71875 34.996094 94.558594 35.636719 94.367188 36.269531 C 94.171875 36.90625 93.949219 37.527344 93.695312 38.140625 C 93.441406 38.753906 93.15625 39.351562 92.84375 39.9375 C 92.53125 40.519531 92.191406 41.089844 91.824219 41.640625 C 91.453125 42.191406 91.058594 42.722656 90.640625 43.234375 C 90.21875 43.75 89.773438 44.238281 89.304688 44.707031 C 88.835938 45.175781 88.34375 45.621094 87.832031 46.042969 C 87.320312 46.460938 86.789062 46.855469 86.238281 47.226562 C 85.6875 47.59375 85.117188 47.933594 84.535156 48.246094 C 83.949219 48.558594 83.351562 48.84375 82.738281 49.097656 C 82.125 49.351562 81.503906 49.574219 80.867188 49.769531 C 80.234375 49.960938 79.589844 50.121094 78.941406 50.253906 C 78.292969 50.382812 77.636719 50.480469 76.976562 50.546875 C 76.316406 50.613281 75.65625 50.644531 74.992188 50.644531 Z M 65.464844 45.800781 C 66.894531 46.6875 68.421875 47.363281 70.039062 47.824219 C 71.660156 48.285156 73.308594 48.515625 74.992188 48.515625 C 76.675781 48.515625 78.328125 48.285156 79.945312 47.824219 C 81.566406 47.363281 83.089844 46.6875 84.519531 45.800781 C 84 43.152344 81.601562 33.316406 74.992188 33.316406 C 68.382812 33.316406 65.988281 43.152344 65.464844 45.800781 Z M 78.84375 32.101562 C 83.644531 34.542969 85.695312 41.265625 86.417969 44.453125 C 86.898438 44.0625 87.359375 43.648438 87.796875 43.210938 C 88.234375 42.773438 88.648438 42.3125 89.039062 41.835938 C 89.429688 41.355469 89.796875 40.855469 90.136719 40.335938 C 90.476562 39.820312 90.789062 39.285156 91.074219 38.734375 C 91.359375 38.1875 91.617188 37.621094 91.84375 37.046875 C 92.070312 36.46875 92.269531 35.882812 92.4375 35.289062 C 92.605469 34.691406 92.742188 34.089844 92.847656 33.476562 C 92.953125 32.867188 93.027344 32.253906 93.066406 31.636719 C 93.109375 31.019531 93.121094 30.398438 93.101562 29.78125 C 93.078125 29.160156 93.027344 28.542969 92.941406 27.929688 C 92.859375 27.316406 92.742188 26.710938 92.597656 26.109375 C 92.449219 25.507812 92.273438 24.914062 92.066406 24.328125 C 91.859375 23.746094 91.621094 23.175781 91.355469 22.613281 C 91.089844 22.054688 90.796875 21.511719 90.476562 20.980469 C 90.152344 20.453125 89.804688 19.941406 89.433594 19.445312 C 89.058594 18.953125 88.660156 18.480469 88.238281 18.027344 C 87.8125 17.574219 87.371094 17.144531 86.902344 16.738281 C 86.4375 16.332031 85.949219 15.949219 85.445312 15.589844 C 84.9375 15.234375 84.414062 14.902344 83.875 14.597656 C 83.335938 14.296875 82.78125 14.019531 82.210938 13.773438 C 81.644531 13.527344 81.066406 13.308594 80.476562 13.121094 C 79.882812 12.933594 79.285156 12.777344 78.679688 12.652344 C 78.074219 12.527344 77.460938 12.429688 76.847656 12.367188 C 76.230469 12.304688 75.613281 12.273438 74.992188 12.273438 C 74.375 12.273438 73.753906 12.304688 73.140625 12.367188 C 72.523438 12.429688 71.910156 12.527344 71.304688 12.652344 C 70.699219 12.777344 70.101562 12.933594 69.511719 13.121094 C 68.917969 13.308594 68.339844 13.527344 67.773438 13.773438 C 67.203125 14.019531 66.648438 14.296875 66.109375 14.597656 C 65.570312 14.902344 65.046875 15.234375 64.542969 15.589844 C 64.035156 15.949219 63.550781 16.332031 63.082031 16.738281 C 62.617188 17.144531 62.171875 17.574219 61.75 18.027344 C 61.324219 18.480469 60.925781 18.953125 60.554688 19.445312 C 60.179688 19.941406 59.832031 20.453125 59.507812 20.980469 C 59.1875 21.511719 58.894531 22.054688 58.628906 22.613281 C 58.363281 23.175781 58.125 23.746094 57.917969 24.328125 C 57.710938 24.914062 57.535156 25.507812 57.386719 26.109375 C 57.242188 26.710938 57.125 27.316406 57.042969 27.929688 C 56.957031 28.542969 56.90625 29.160156 56.882812 29.78125 C 56.863281 30.398438 56.875 31.019531 56.917969 31.636719 C 56.960938 32.253906 57.035156 32.867188 57.140625 33.476562 C 57.246094 34.089844 57.382812 34.691406 57.546875 35.289062 C 57.714844 35.882812 57.914062 36.46875 58.140625 37.046875 C 58.367188 37.621094 58.625 38.1875 58.910156 38.734375 C 59.195312 39.285156 59.507812 39.820312 59.847656 40.335938 C 60.1875 40.855469 60.554688 41.355469 60.945312 41.835938 C 61.335938 42.3125 61.75 42.773438 62.1875 43.210938 C 62.628906 43.648438 63.085938 44.0625 63.566406 44.453125 C 64.289062 41.273438 66.339844 34.542969 71.140625 32.101562 C 70.753906 31.828125 70.402344 31.519531 70.082031 31.175781 C 69.761719 30.828125 69.480469 30.453125 69.238281 30.046875 C 68.996094 29.640625 68.800781 29.214844 68.652344 28.765625 C 68.5 28.320312 68.398438 27.863281 68.34375 27.394531 C 68.289062 26.925781 68.285156 26.457031 68.332031 25.984375 C 68.375 25.515625 68.46875 25.058594 68.613281 24.605469 C 68.753906 24.15625 68.941406 23.726562 69.175781 23.316406 C 69.410156 22.90625 69.683594 22.527344 69.996094 22.171875 C 70.308594 21.820312 70.65625 21.507812 71.039062 21.226562 C 71.417969 20.949219 71.824219 20.710938 72.253906 20.519531 C 72.683594 20.328125 73.132812 20.179688 73.59375 20.082031 C 74.054688 19.984375 74.519531 19.933594 74.992188 19.933594 C 75.464844 19.933594 75.929688 19.984375 76.390625 20.082031 C 76.855469 20.179688 77.300781 20.328125 77.730469 20.519531 C 78.160156 20.710938 78.566406 20.949219 78.945312 21.226562 C 79.328125 21.507812 79.675781 21.820312 79.988281 22.171875 C 80.304688 22.527344 80.578125 22.90625 80.808594 23.316406 C 81.042969 23.726562 81.230469 24.15625 81.375 24.605469 C 81.515625 25.058594 81.609375 25.515625 81.65625 25.984375 C 81.699219 26.457031 81.695312 26.925781 81.640625 27.394531 C 81.585938 27.863281 81.484375 28.320312 81.335938 28.765625 C 81.183594 29.214844 80.988281 29.640625 80.746094 30.046875 C 80.503906 30.453125 80.222656 30.828125 79.902344 31.175781 C 79.582031 31.519531 79.230469 31.828125 78.84375 32.101562 Z M 74.992188 22.0625 C 74.691406 22.0625 74.394531 22.089844 74.101562 22.148438 C 73.808594 22.207031 73.523438 22.292969 73.246094 22.410156 C 72.96875 22.523438 72.707031 22.664062 72.457031 22.828125 C 72.210938 22.996094 71.980469 23.183594 71.765625 23.398438 C 71.554688 23.609375 71.367188 23.839844 71.199219 24.089844 C 71.035156 24.335938 70.894531 24.601562 70.777344 24.878906 C 70.664062 25.152344 70.578125 25.4375 70.519531 25.734375 C 70.460938 26.027344 70.429688 26.324219 70.429688 26.621094 C 70.429688 26.921875 70.460938 27.21875 70.519531 27.511719 C 70.578125 27.804688 70.664062 28.089844 70.777344 28.367188 C 70.894531 28.644531 71.035156 28.90625 71.199219 29.15625 C 71.367188 29.40625 71.554688 29.636719 71.765625 29.847656 C 71.980469 30.058594 72.210938 30.25 72.457031 30.414062 C 72.707031 30.582031 72.96875 30.722656 73.246094 30.835938 C 73.523438 30.953125 73.808594 31.039062 74.101562 31.097656 C 74.394531 31.15625 74.691406 31.183594 74.992188 31.183594 C 75.292969 31.183594 75.589844 31.15625 75.882812 31.097656 C 76.175781 31.039062 76.460938 30.953125 76.738281 30.835938 C 77.015625 30.722656 77.277344 30.582031 77.527344 30.414062 C 77.777344 30.25 78.007812 30.058594 78.21875 29.847656 C 78.429688 29.636719 78.617188 29.40625 78.785156 29.15625 C 78.953125 28.90625 79.09375 28.644531 79.207031 28.367188 C 79.320312 28.089844 79.40625 27.804688 79.464844 27.511719 C 79.523438 27.21875 79.554688 26.921875 79.554688 26.621094 C 79.554688 26.324219 79.523438 26.027344 79.464844 25.734375 C 79.40625 25.441406 79.320312 25.15625 79.207031 24.878906 C 79.089844 24.601562 78.949219 24.339844 78.785156 24.089844 C 78.617188 23.839844 78.429688 23.609375 78.21875 23.398438 C 78.003906 23.1875 77.773438 22.996094 77.527344 22.832031 C 77.277344 22.664062 77.015625 22.523438 76.738281 22.410156 C 76.460938 22.292969 76.175781 22.207031 75.882812 22.148438 C 75.589844 22.089844 75.292969 22.0625 74.992188 22.0625 Z M 74.992188 22.0625 " fill-opacity="1" fill-rule="nonzero"/></g><g fill="rgb(32.939148%, 32.939148%, 32.939148%)" fill-opacity="1"><g transform="translate(22.44923, 136.57587)"><g><path d="M 22.171875 -31.367188 C 20.882812 -30.992188 19.59375 -29.410156 18.679688 -28.496094 C 18.097656 -27.957031 17.515625 -27.371094 16.972656 -26.75 C 16.597656 -26.332031 15.640625 -25.5 15.558594 -24.917969 C 15.601562 -24.875 15.601562 -24.875 15.640625 -24.875 L 15.058594 -24.128906 C 15.019531 -24.085938 15.476562 -24.753906 15.476562 -24.753906 C 15.265625 -24.710938 14.894531 -23.921875 14.894531 -23.921875 C 13.726562 -22.421875 12.4375 -21.050781 11.355469 -19.46875 C 10.152344 -17.679688 9.152344 -15.851562 8.195312 -13.9375 C 8.734375 -15.933594 9.441406 -17.886719 10.234375 -19.800781 C 10.441406 -20.300781 12.730469 -25.707031 12.8125 -25.667969 C 12.6875 -25.707031 10.648438 -21.132812 10.523438 -20.882812 C 11.480469 -23.214844 12.523438 -25.5 13.726562 -27.707031 C 13.644531 -27.539062 13.5625 -27.332031 13.601562 -27.332031 C 13.769531 -27.289062 14.601562 -28.914062 14.476562 -28.953125 L 14.351562 -28.871094 C 14.601562 -29.328125 14.726562 -29.578125 14.476562 -30.242188 C 14.226562 -30.910156 13.601562 -32.074219 12.730469 -31.699219 C 12.1875 -31.492188 11.730469 -30.492188 11.523438 -30.078125 C 11.398438 -29.867188 11.355469 -29.535156 11.230469 -29.371094 C 11.066406 -29.121094 10.773438 -28.996094 10.523438 -28.664062 C 9.984375 -27.832031 9.609375 -26.832031 9.234375 -25.917969 C 9.027344 -25.417969 6.738281 -20.46875 6.824219 -20.425781 C 6.90625 -20.46875 6.945312 -20.550781 6.988281 -20.632812 C 6.863281 -20.257812 6.699219 -19.886719 6.53125 -19.511719 C 6.488281 -19.550781 6.65625 -19.84375 6.613281 -19.84375 C 6.199219 -19.925781 4.949219 -16.472656 4.867188 -16.140625 C 4.699219 -15.351562 4.492188 -14.644531 4.160156 -13.851562 C 3.953125 -13.355469 3.742188 -12.855469 3.578125 -12.355469 C 3.578125 -12.3125 3.371094 -11.273438 3.535156 -11.648438 C 3.535156 -11.523438 3.496094 -11.441406 3.453125 -11.316406 C 3.453125 -11.355469 3.453125 -11.441406 3.410156 -11.480469 C 3.328125 -11.441406 3.121094 -10.316406 3.078125 -10.273438 C 2.910156 -9.859375 2.664062 -9.484375 2.496094 -9.070312 C 1.957031 -7.902344 1.621094 -6.613281 1.332031 -5.367188 L 0.457031 -1.125 C 0.292969 -0.332031 -0.375 1.457031 0.25 2.246094 C 0.25 2.164062 0.25 2.121094 0.292969 2.078125 C 0.292969 2.121094 0.292969 2.203125 0.332031 2.289062 C 0.707031 3.660156 2.953125 3.246094 3.703125 2.453125 C 3.703125 2.539062 3.742188 2.578125 3.785156 2.621094 C 4.078125 0.292969 4.910156 -2.078125 5.742188 -4.285156 C 6.074219 -5.242188 6.40625 -6.824219 7.070312 -7.570312 C 7.113281 -7.988281 7.320312 -8.113281 7.65625 -7.902344 C 7.902344 -7.863281 8.195312 -7.820312 8.445312 -7.820312 C 8.695312 -7.777344 9.027344 -7.777344 9.320312 -7.820312 C 11.066406 -8.113281 12.9375 -9.277344 14.433594 -10.191406 C 15.019531 -10.523438 15.433594 -11.023438 15.972656 -11.316406 C 16.558594 -11.648438 17.140625 -11.816406 17.722656 -12.273438 C 19.300781 -13.476562 20.59375 -14.851562 21.839844 -16.390625 C 23.089844 -17.886719 24.167969 -19.425781 24.917969 -21.257812 C 25.335938 -22.171875 25.667969 -23.171875 25.957031 -24.167969 C 26.042969 -24.542969 26.332031 -25.085938 26.25 -25.460938 C 26.25 -25.460938 26.125 -25.167969 26.042969 -24.960938 C 26.167969 -25.667969 26.25 -26.332031 26.207031 -27.082031 C 26.25 -26.914062 26.332031 -26.664062 26.292969 -26.625 C 26.375 -26.664062 26.332031 -27.207031 26.332031 -27.457031 C 26.332031 -27.371094 26.292969 -27.746094 26.332031 -27.621094 C 26.167969 -29.621094 24.335938 -31.992188 22.171875 -31.367188 Z M 22.132812 -26.292969 C 22.089844 -26.125 22.089844 -26.167969 22.132812 -26.25 C 21.921875 -23.378906 20.300781 -20.550781 18.679688 -18.261719 C 17.847656 -17.054688 16.890625 -15.933594 15.890625 -14.851562 C 15.433594 -14.394531 14.933594 -13.9375 14.433594 -13.519531 C 14.0625 -13.144531 13.269531 -12.730469 12.894531 -12.273438 C 13.230469 -12.605469 13.976562 -13.019531 14.308594 -13.269531 C 14.976562 -13.851562 15.640625 -14.519531 16.265625 -15.140625 C 17.265625 -16.222656 18.222656 -17.347656 19.054688 -18.554688 C 16.515625 -14.769531 13.019531 -11.480469 8.820312 -9.734375 C 9.152344 -9.941406 9.984375 -10.359375 9.984375 -10.398438 C 9.902344 -10.484375 8.238281 -9.734375 8.070312 -9.652344 C 8.609375 -10.734375 9.152344 -11.816406 9.734375 -12.894531 C 9.902344 -13.144531 11.230469 -15.683594 11.230469 -15.683594 C 11.148438 -15.683594 11.066406 -15.640625 11.023438 -15.515625 C 12.855469 -18.46875 15.265625 -21.425781 17.515625 -24.128906 C 18.222656 -24.960938 22.339844 -30.328125 22.132812 -26.332031 Z M 1.664062 -4.785156 C 2.078125 -6.574219 2.953125 -7.777344 3.496094 -9.402344 C 2.746094 -6.988281 1.832031 -4.535156 1.125 -2.164062 C 1.289062 -2.996094 1.457031 -4.035156 1.664062 -4.785156 Z M 0.832031 0.539062 C 0.789062 0.707031 0.5 0.914062 0.457031 1.125 C 0.582031 0.414062 0.707031 -0.207031 0.875 -0.875 C 0.789062 -0.414062 0.914062 0.0820312 0.832031 0.539062 Z M 9.984375 -19.511719 L 9.109375 -17.347656 L 9.941406 -19.46875 Z M 10.027344 -19.675781 C 10.027344 -19.59375 9.984375 -19.59375 9.984375 -19.550781 C 9.984375 -19.59375 9.984375 -19.59375 10.027344 -19.675781 Z M 10.109375 -19.84375 L 10.066406 -19.800781 L 10.109375 -19.886719 Z M 10.648438 -14.933594 C 10.648438 -14.976562 10.691406 -14.976562 10.691406 -15.019531 C 10.691406 -14.976562 10.648438 -14.933594 10.648438 -14.933594 Z M 10.648438 -14.933594 "/></g></g></g><g fill="rgb(32.939148%, 32.939148%, 32.939148%)" fill-opacity="1"><g transform="translate(43.457315, 136.57587)"><g><path d="M 17.054688 -10.109375 C 16.804688 -11.191406 15.808594 -9.734375 15.601562 -9.484375 L 13.3125 -6.40625 L 11.066406 -3.453125 L 9.859375 -1.914062 C 9.734375 -1.746094 8.820312 -0.582031 8.902344 -0.582031 C 8.984375 -0.664062 9.109375 -0.664062 9.234375 -0.789062 C 8.609375 -0.125 6.324219 1.957031 5.90625 1.457031 C 5.574219 1.039062 6.488281 -0.707031 6.613281 -1.125 C 7.070312 -2.328125 7.488281 -3.578125 7.988281 -4.742188 C 8.527344 -5.949219 9.152344 -7.15625 9.652344 -8.363281 C 10.152344 -9.652344 9.402344 -10.109375 8.195312 -10.398438 C 7.65625 -10.523438 6.988281 -10.523438 6.363281 -10.609375 C 6.363281 -10.566406 6.40625 -10.566406 6.40625 -10.566406 C 6.945312 -10.484375 7.738281 -10.441406 8.402344 -10.234375 C 7.40625 -10.523438 6.15625 -10.398438 5.367188 -10.609375 C 4.824219 -10.734375 4.492188 -10.734375 4.574219 -11.355469 C 4.660156 -12.1875 5.53125 -13.0625 5.824219 -13.851562 C 5.824219 -13.8125 5.53125 -13.0625 5.574219 -13.0625 C 5.78125 -12.980469 6.113281 -14.144531 6.113281 -14.308594 C 6.074219 -14.519531 5.574219 -15.140625 5.53125 -14.894531 L 5.617188 -14.769531 C 3.621094 -16.140625 1.246094 -13.3125 1.664062 -11.273438 C 1.746094 -10.984375 1.914062 -10.816406 2.039062 -10.484375 C 2.121094 -10.234375 2.039062 -9.941406 2.289062 -9.609375 C 3.160156 -8.527344 4.742188 -8.488281 5.992188 -8.734375 C 5.78125 -8.445312 3.578125 -3.785156 3.703125 -3.742188 L 3.410156 -2.703125 C 3.371094 -2.746094 3.535156 -3.078125 3.453125 -3.078125 C 3.160156 -3.121094 2.578125 -0.707031 2.539062 -0.5 C 2.371094 0.5 2.414062 1.371094 2.828125 2.289062 C 3.078125 2.871094 3.371094 3.371094 3.910156 3.703125 C 4.410156 4.035156 5.035156 4.203125 5.617188 4.078125 C 5.824219 3.992188 6.613281 3.453125 6.40625 3.496094 L 6.699219 3.371094 C 6.65625 3.410156 6.613281 3.453125 6.613281 3.496094 C 6.738281 3.535156 8.652344 1.996094 8.902344 1.832031 C 10.234375 0.707031 11.316406 -0.664062 12.3125 -2.039062 C 13.3125 -3.453125 14.351562 -4.867188 15.308594 -6.28125 C 15.765625 -6.945312 16.183594 -7.613281 16.515625 -8.320312 C 16.765625 -8.820312 17.179688 -9.527344 17.054688 -10.109375 Z M 4.617188 -5.117188 C 4.910156 -5.867188 5.242188 -6.574219 5.617188 -7.28125 C 5.699219 -7.40625 6.28125 -8.902344 6.574219 -8.984375 C 6.363281 -8.859375 5.492188 -6.824219 5.285156 -6.449219 L 4.492188 -4.617188 C 4.078125 -3.621094 3.621094 -2.578125 3.328125 -1.496094 C 3.621094 -2.746094 4.117188 -3.953125 4.617188 -5.117188 Z M 3.621094 2.871094 C 3.867188 3.203125 4.203125 3.535156 4.660156 3.703125 C 4.285156 3.578125 3.953125 3.371094 3.703125 3.121094 C 3.742188 3.121094 3.742188 3.160156 3.742188 3.203125 C 3.496094 2.871094 3.160156 2.164062 3.121094 2.039062 C 2.996094 1.539062 2.953125 0.957031 2.996094 0.457031 C 2.996094 0.0429688 3.035156 -0.292969 3.121094 -0.664062 L 3.121094 -0.625 C 3.035156 -0.0820312 2.996094 0.457031 3.035156 1.039062 L 3.035156 1.246094 C 2.996094 1.207031 2.996094 1.164062 2.996094 1.164062 C 2.996094 1.164062 2.996094 1.207031 3.035156 1.289062 L 3.035156 1.332031 L 3.203125 2.203125 L 3.078125 1.664062 C 3.160156 1.914062 3.371094 2.371094 3.578125 2.828125 L 3.535156 2.789062 C 3.535156 2.828125 3.578125 2.871094 3.621094 2.910156 Z M 4.785156 -10.859375 C 4.992188 -10.691406 5.367188 -10.648438 5.742188 -10.609375 C 5.40625 -10.648438 5.117188 -10.734375 4.910156 -10.898438 C 4.910156 -10.898438 4.660156 -11.105469 4.617188 -11.191406 C 4.617188 -11.105469 4.699219 -10.898438 4.785156 -10.859375 Z M 9.152344 -7.613281 L 8.277344 -5.78125 L 9.152344 -7.65625 Z M 3.160156 -0.789062 C 3.160156 -0.75 3.121094 -0.707031 3.121094 -0.664062 L 3.121094 -0.707031 C 3.121094 -0.75 3.160156 -0.75 3.160156 -0.789062 Z M 9.195312 -7.738281 L 9.195312 -7.695312 L 9.152344 -7.695312 Z M 9.195312 -7.738281 L 9.195312 -7.695312 L 9.152344 -7.695312 Z M 3.203125 -1.332031 C 3.203125 -1.371094 3.246094 -1.414062 3.246094 -1.496094 C 3.246094 -1.414062 3.203125 -1.371094 3.203125 -1.332031 Z M 3.371094 2.496094 C 3.371094 2.496094 3.410156 2.539062 3.410156 2.578125 C 3.410156 2.539062 3.371094 2.539062 3.371094 2.496094 Z M 4.660156 -11.273438 C 4.617188 -11.273438 4.617188 -11.230469 4.617188 -11.230469 Z M 4.660156 -11.273438 "/></g></g></g><g fill="rgb(32.939148%, 32.939148%, 32.939148%)" fill-opacity="1"><g transform="translate(57.476578, 136.57587)"><g><path d="M 19.136719 -10.359375 C 19.136719 -10.359375 19.175781 -10.316406 19.136719 -10.398438 C 18.929688 -10.691406 18.636719 -10.484375 18.34375 -10.398438 C 17.140625 -10.152344 15.890625 -9.859375 14.644531 -9.652344 C 15.101562 -11.148438 15.558594 -12.730469 15.726562 -14.269531 C 15.808594 -14.851562 15.851562 -15.476562 15.726562 -16.058594 C 15.640625 -16.433594 15.515625 -16.804688 15.308594 -17.140625 C 15.308594 -17.140625 14.808594 -17.761719 14.933594 -17.429688 L 14.894531 -17.472656 L 14.726562 -17.804688 L 14.894531 -17.636719 C 14.933594 -17.886719 14.226562 -18.34375 14.226562 -18.34375 C 13.1875 -19.386719 11.773438 -20.175781 10.359375 -19.386719 C 9.484375 -18.886719 8.777344 -18.054688 8.195312 -17.222656 C 7.988281 -16.929688 7.777344 -16.597656 7.613281 -16.265625 C 7.445312 -15.933594 7.195312 -14.851562 6.945312 -14.683594 C 6.738281 -14.519531 6.113281 -14.476562 5.824219 -14.308594 C 5.40625 -14.144531 5.035156 -13.9375 4.699219 -13.6875 C 3.910156 -13.1875 3.285156 -12.480469 2.703125 -11.773438 C 1.707031 -10.441406 1.207031 -8.945312 0.5 -7.613281 C -0.832031 -5.074219 0.625 -1.746094 3.078125 -0.539062 C 3.867188 -0.167969 4.785156 0 5.617188 -0.0820312 C 6.488281 -0.207031 7.320312 -0.664062 7.988281 -1.164062 C 8.609375 -1.621094 9.984375 -2.453125 10.234375 -3.160156 C 10.234375 -3.203125 10.152344 -3.160156 10.027344 -3.035156 L 11.230469 -4.453125 C 11.273438 -4.410156 10.941406 -3.992188 10.941406 -3.992188 C 11.230469 -3.867188 12.730469 -6.074219 12.894531 -6.238281 C 13.1875 -6.738281 13.476562 -7.28125 13.8125 -7.777344 C 14.101562 -8.152344 14.019531 -8.113281 14.433594 -8.277344 C 14.394531 -8.238281 14.933594 -8.402344 15.019531 -8.402344 C 15.476562 -8.488281 20.34375 -8.820312 19.136719 -10.359375 Z M 4.742188 -1.957031 L 4.699219 -1.957031 C 1.246094 -1.457031 5.242188 -8.777344 5.324219 -9.195312 L 5.074219 -8.820312 C 5.699219 -10.066406 6.28125 -11.066406 6.574219 -11.398438 C 7.03125 -9.320312 9.277344 -8.527344 11.105469 -8.277344 C 9.902344 -5.867188 7.65625 -2.496094 4.742188 -1.957031 Z M 12.9375 -13.476562 C 12.644531 -12.3125 12.398438 -10.773438 11.773438 -9.734375 C 11.566406 -9.320312 11.691406 -9.441406 11.273438 -9.359375 C 11.023438 -9.277344 10.484375 -9.359375 10.234375 -9.402344 C 9.777344 -9.441406 9.234375 -9.527344 8.902344 -9.816406 C 8.320312 -10.316406 8.402344 -11.105469 8.488281 -11.816406 C 8.570312 -12.523438 8.777344 -13.1875 9.027344 -13.851562 C 9.152344 -14.101562 9.941406 -15.433594 9.816406 -15.683594 C 9.777344 -15.808594 9.320312 -15.058594 9.277344 -15.019531 C 9.527344 -15.476562 9.777344 -15.726562 9.984375 -16.015625 C 9.941406 -16.015625 9.984375 -16.058594 10.027344 -16.140625 L 10.027344 -16.097656 L 10.066406 -16.183594 C 10.066406 -16.183594 10.066406 -16.222656 10.109375 -16.222656 C 10.734375 -17.054688 12.273438 -18.929688 13.105469 -17.636719 C 13.726562 -16.558594 13.144531 -14.519531 12.9375 -13.476562 Z M 10.066406 -16.183594 L 10.109375 -16.222656 C 10.109375 -16.183594 10.066406 -16.183594 10.066406 -16.183594 Z M 10.066406 -16.183594 "/></g></g></g><g fill="rgb(32.939148%, 32.939148%, 32.939148%)" fill-opacity="1"><g transform="translate(73.74225, 136.57587)"><g><path d="M 17.179688 -10.234375 L 17.179688 -10.273438 C 16.847656 -11.316406 15.101562 -8.609375 14.894531 -8.363281 C 13.519531 -6.78125 11.9375 -4.992188 9.941406 -4.203125 C 9.441406 -3.953125 8.445312 -3.621094 8.195312 -4.203125 C 8.027344 -4.574219 8.195312 -5.449219 8.152344 -5.867188 C 8.070312 -6.40625 7.988281 -6.988281 7.738281 -7.488281 C 7.03125 -8.652344 6.238281 -7.863281 5.992188 -6.90625 C 5.78125 -5.949219 5.78125 -4.867188 5.992188 -3.953125 C 6.074219 -3.453125 6.488281 -2.953125 6.574219 -2.453125 C 6.65625 -2.039062 6.449219 -1.414062 6.363281 -1 C 5.992188 0.875 5.40625 2.664062 4.660156 4.410156 C 4.160156 5.65625 1.539062 11.441406 -0.0429688 8.488281 L -0.0820312 8.445312 L 0.0820312 8.570312 C -0.292969 6.90625 0.292969 4.867188 0.664062 3.246094 C 1.246094 0.875 1.957031 -1.414062 2.746094 -3.703125 C 2.910156 -4.285156 3.121094 -4.867188 3.328125 -5.492188 C 3.578125 -6.113281 3.660156 -6.28125 4.078125 -6.738281 C 4.617188 -7.28125 5.117188 -7.863281 5.617188 -8.402344 C 7.195312 -10.234375 8.734375 -12.0625 10.191406 -13.9375 C 12.605469 -17.054688 14.808594 -20.550781 16.347656 -24.167969 C 17.140625 -26.082031 18.34375 -31.78125 14.558594 -31.367188 C 12.644531 -31.160156 11.023438 -28.414062 10.027344 -27 C 8.652344 -25 7.445312 -22.839844 6.363281 -20.71875 C 4.367188 -16.890625 2.453125 -13.019531 1.289062 -8.902344 C 0.0429688 -4.535156 -1.789062 -0.292969 -2.039062 4.367188 C -2.164062 6.28125 -2.164062 9.109375 -0.457031 10.398438 C 1.496094 11.898438 3.535156 10.691406 4.699219 8.902344 C 6.03125 6.863281 6.574219 4.160156 7.238281 1.832031 C 7.40625 1.246094 7.53125 0.664062 7.65625 0.0820312 C 7.695312 -0.25 7.738281 -1.621094 7.988281 -1.832031 C 8.195312 -2.039062 9.109375 -1.996094 9.359375 -2.078125 C 11.480469 -2.664062 13.769531 -4.367188 14.894531 -6.28125 C 15.558594 -7.320312 17.554688 -8.777344 17.179688 -10.234375 Z M 5.90625 -12.1875 C 5.90625 -12.230469 5.949219 -12.273438 5.949219 -12.3125 L 5.949219 -12.273438 C 6.199219 -12.8125 6.238281 -12.980469 6.199219 -12.9375 C 7.65625 -16.390625 9.152344 -19.84375 10.898438 -23.128906 C 11.773438 -24.753906 12.605469 -26.417969 13.726562 -27.871094 C 14.019531 -28.246094 14.519531 -29.078125 15.058594 -28.914062 C 16.640625 -28.453125 12.644531 -20.507812 12.0625 -19.550781 C 10.066406 -16.183594 7.65625 -13.019531 5.035156 -10.066406 Z M 0.414062 1.621094 C 0.582031 1.039062 0.75 0.457031 0.957031 -0.0820312 C 0.664062 0.832031 0.414062 1.832031 0.25 2.789062 C 0.0820312 3.578125 -0.539062 5.492188 -0.539062 6.945312 C -0.75 5.160156 -0.125 3.203125 0.414062 1.621094 Z M 6.074219 -12.605469 L 6.199219 -12.9375 C 6.199219 -12.894531 6.113281 -12.730469 6.074219 -12.605469 Z M 6.074219 -12.605469 "/></g></g></g><g fill="rgb(32.939148%, 32.939148%, 32.939148%)" fill-opacity="1"><g transform="translate(87.927912, 136.57587)"><g><path d="M 10.898438 -10.234375 C 10.816406 -10.773438 10.234375 -10.609375 9.941406 -10.398438 C 9.566406 -10.152344 7.488281 -7.40625 7.65625 -7.195312 C 7.777344 -7.195312 7.863281 -7.195312 7.945312 -7.28125 C 7.363281 -6.574219 6.28125 -5.78125 5.492188 -5.160156 C 5.035156 -4.785156 3.910156 -3.742188 3.246094 -4.078125 C 1.832031 -4.785156 4.699219 -9.777344 4.574219 -9.816406 C 4.453125 -9.859375 3.410156 -7.53125 3.203125 -6.988281 C 3.703125 -8.445312 4.367188 -9.902344 5.160156 -11.191406 C 5.117188 -11.066406 4.992188 -10.859375 5.074219 -10.859375 C 5.160156 -10.816406 5.78125 -11.691406 5.65625 -11.773438 C 5.617188 -11.773438 5.53125 -11.773438 5.492188 -11.730469 C 5.617188 -11.855469 5.824219 -11.898438 5.824219 -12.148438 C 5.824219 -12.5625 4.867188 -12.980469 4.535156 -13.105469 C 3.742188 -13.4375 2.953125 -13.519531 2.328125 -13.105469 C 1.496094 -12.605469 1.332031 -11.605469 1 -10.734375 C 0.914062 -10.484375 0.125 -7.53125 0.292969 -7.488281 C 0.375 -7.53125 0.375 -7.570312 0.414062 -7.65625 L 0.292969 -6.90625 C 0.25 -6.90625 0.332031 -7.113281 0.25 -7.113281 C -0.0820312 -7.113281 0 -5.617188 0.0429688 -5.40625 C 0.207031 -4.660156 0.789062 -4.117188 1.246094 -3.496094 C 1.496094 -3.121094 1.746094 -2.746094 2.121094 -2.496094 C 2.621094 -2.121094 2.289062 -2.496094 2.621094 -2.328125 L 2.539062 -2.328125 C 2.496094 -2.078125 4.078125 -1.664062 4.410156 -1.707031 C 5.867188 -2.039062 6.90625 -3.828125 7.738281 -4.949219 C 8.527344 -5.949219 9.195312 -6.945312 9.902344 -7.988281 C 10.316406 -8.527344 11.066406 -9.441406 10.898438 -10.234375 Z M 3.621094 -15.476562 C 3.703125 -15.351562 3.578125 -15.183594 3.867188 -15.019531 C 4.160156 -14.894531 4.328125 -15.058594 4.574219 -15.140625 C 5.074219 -15.351562 5.449219 -15.890625 5.824219 -16.222656 C 5.949219 -16.308594 5.699219 -16.265625 5.699219 -16.265625 C 6.238281 -16.765625 5.78125 -16.183594 6.28125 -16.472656 C 6.78125 -16.804688 6.863281 -17.347656 7.28125 -17.804688 C 6.78125 -17.597656 6.40625 -17.304688 6.074219 -16.890625 C 5.65625 -16.347656 5.367188 -16.097656 4.910156 -15.808594 C 5.40625 -16.183594 5.65625 -16.558594 6.074219 -17.222656 C 6.199219 -17.347656 6.324219 -17.429688 6.488281 -17.515625 C 6.363281 -17.636719 6.363281 -17.761719 6.53125 -17.886719 C 6.65625 -18.097656 6.90625 -18.179688 7.03125 -18.386719 C 7.238281 -18.679688 7.195312 -19.054688 7.445312 -19.34375 C 7.65625 -19.511719 7.945312 -19.636719 8.113281 -19.800781 C 8.488281 -20.132812 8.902344 -20.757812 8.734375 -21.300781 C 8.570312 -21.796875 8.152344 -22.421875 7.695312 -22.714844 C 7.15625 -23.003906 6.40625 -23.128906 5.824219 -22.878906 C 5.699219 -22.839844 5.199219 -22.714844 5.367188 -22.546875 C 5.40625 -22.464844 5.449219 -22.464844 5.53125 -22.464844 C 5.160156 -22.171875 4.535156 -21.671875 5.40625 -21.339844 C 5.324219 -21.257812 5.40625 -20.882812 5.40625 -20.839844 C 5.367188 -20.550781 4.785156 -19.011719 4.410156 -18.261719 L 4.910156 -19.011719 C 4.617188 -18.386719 4.285156 -17.804688 3.910156 -17.304688 C 4.160156 -17.847656 3.660156 -17.222656 3.660156 -17.097656 C 3.203125 -17.304688 3.328125 -16.015625 3.371094 -15.890625 C 3.371094 -15.851562 3.621094 -15.476562 3.621094 -15.476562 Z M 2.828125 -5.574219 L 2.828125 -5.53125 L 2.746094 -5.285156 L 2.828125 -5.617188 C 2.871094 -5.65625 2.871094 -5.65625 2.828125 -5.574219 Z M 4.203125 -17.929688 C 4.203125 -17.929688 4.285156 -18.011719 4.367188 -18.179688 Z M 3.785156 -17.140625 C 3.785156 -17.097656 3.785156 -17.097656 3.742188 -17.054688 C 3.742188 -17.054688 3.742188 -17.097656 3.703125 -17.097656 C 3.742188 -17.097656 3.742188 -17.097656 3.785156 -17.140625 Z M 3.785156 -17.140625 "/></g></g></g><g fill="rgb(32.939148%, 32.939148%, 32.939148%)" fill-opacity="1"><g transform="translate(95.790348, 136.57587)"><g><path d="M 16.640625 -10.609375 C 16.058594 -9.984375 15.683594 -8.945312 15.226562 -8.195312 C 14.519531 -6.988281 13.8125 -5.824219 13.0625 -4.660156 C 11.648438 -2.414062 10.234375 -0.125 8.527344 1.914062 C 7.820312 2.789062 6.324219 4.910156 4.910156 4.742188 C 3.867188 4.574219 3.867188 2.789062 3.867188 1.996094 C 3.867188 1.332031 3.910156 0.664062 3.992188 0.0429688 C 4.035156 -0.332031 4.367188 -1.582031 4.160156 -1.914062 L 3.828125 -0.664062 C 3.867188 -1.164062 3.953125 -1.707031 4.078125 -2.203125 C 4.035156 -2.289062 4.410156 -3.453125 4.492188 -3.828125 C 4.699219 -4.660156 4.910156 -5.492188 5.160156 -6.324219 C 5.367188 -7.15625 5.574219 -7.945312 5.824219 -8.734375 C 6.03125 -9.484375 6.324219 -9.859375 6.78125 -10.441406 C 8.652344 -12.769531 10.359375 -15.308594 11.9375 -17.847656 C 12.523438 -18.804688 12.894531 -19.636719 13.601562 -20.425781 C 14.644531 -21.507812 15.351562 -23.128906 16.015625 -24.460938 C 17.140625 -26.625 18.636719 -29.621094 18.386719 -32.15625 L 18.386719 -32.363281 L 18.34375 -32.40625 C 18.097656 -34.027344 16.597656 -35.941406 14.769531 -35.359375 C 13.8125 -35.070312 13.105469 -34.070312 12.523438 -33.363281 L 11.566406 -32.074219 C 11.355469 -31.824219 11.066406 -31.199219 10.859375 -30.867188 L 10.898438 -30.910156 L 9.566406 -28.621094 L 9.902344 -29.328125 C 9.691406 -29.371094 8.777344 -27.582031 8.652344 -27.371094 C 8.195312 -26.582031 7.777344 -25.792969 7.40625 -25 C 6.574219 -23.335938 5.742188 -21.632812 5.199219 -19.84375 C 4.617188 -18.054688 3.953125 -16.308594 3.328125 -14.519531 C 2.996094 -13.5625 2.664062 -12.5625 2.371094 -11.605469 C 2.121094 -10.816406 1.539062 -9.527344 1.664062 -8.695312 L 1.789062 -8.695312 C 1.664062 -8.402344 1.582031 -8.113281 1.496094 -7.820312 C 1.539062 -8.070312 1.539062 -8.363281 1.582031 -8.445312 C 1.371094 -8.152344 1.414062 -7.15625 1.371094 -7.070312 C 0.832031 -4.824219 0.207031 -2.578125 0.0429688 -0.25 C -0.0820312 1.957031 -0.0820312 4.867188 1.664062 6.488281 C 3.621094 8.277344 5.867188 7.070312 7.488281 5.53125 C 9.402344 3.660156 11.023438 1.457031 12.523438 -0.707031 C 13.894531 -2.703125 14.976562 -4.824219 16.222656 -6.824219 C 16.722656 -7.65625 17.265625 -8.488281 17.515625 -9.402344 C 17.679688 -10.066406 17.597656 -11.605469 16.640625 -10.609375 Z M 11.441406 -25.5 C 12.273438 -27.496094 13.105469 -29.535156 14.269531 -31.40625 C 14.558594 -31.867188 16.433594 -34.363281 16.347656 -32.15625 L 16.347656 -32.117188 C 16.265625 -29.785156 14.769531 -27.332031 13.769531 -25.335938 L 12.023438 -22.089844 C 11.441406 -21.089844 10.441406 -19.84375 10.109375 -18.761719 C 10.359375 -19.425781 11.105469 -20.382812 11.480469 -21.007812 C 12.105469 -22.046875 12.644531 -23.089844 13.230469 -24.128906 C 14.1875 -25.957031 15.226562 -27.871094 15.933594 -29.867188 C 14.0625 -24.292969 10.566406 -19.09375 7.488281 -14.144531 C 8.695312 -17.804688 9.902344 -21.796875 11.441406 -25.5 Z M 10.109375 -28.414062 C 10.523438 -29.203125 11.273438 -29.867188 11.691406 -30.617188 C 10.816406 -28.871094 9.734375 -27.289062 8.820312 -25.625 C 8.820312 -25.667969 8.820312 -25.75 8.859375 -25.792969 C 9.234375 -26.707031 9.652344 -27.539062 10.109375 -28.414062 Z M 2.246094 -6.90625 C 2.203125 -6.824219 2.203125 -6.78125 2.203125 -6.78125 C 1.707031 -5.617188 1.664062 -4.035156 1.414062 -2.789062 C 1.371094 -2.496094 1.289062 -2.246094 1.289062 -1.957031 L 1.289062 -2.078125 L 1.164062 -0.75 C 1.246094 -2.246094 1.414062 -3.785156 1.707031 -5.242188 L 1.707031 -5.199219 C 1.832031 -6.15625 2.039062 -7.03125 2.203125 -7.03125 C 2.289062 -7.070312 2.289062 -6.945312 2.246094 -6.90625 Z M 2.246094 -6.90625 "/></g></g></g><g fill="rgb(32.939148%, 32.939148%, 32.939148%)" fill-opacity="1"><g transform="translate(110.51681, 136.57587)"><g><path d="M 15.933594 -10.273438 C 15.933594 -10.234375 15.933594 -10.234375 15.890625 -10.273438 L 15.890625 -10.316406 C 15.226562 -11.441406 14.351562 -9.902344 13.976562 -9.359375 C 13.269531 -8.402344 12.605469 -7.488281 11.855469 -6.613281 C 11.230469 -5.867188 10.566406 -5.117188 10.066406 -4.328125 C 10.066406 -4.242188 9.984375 -4.035156 9.984375 -4.035156 C 9.816406 -3.785156 9.566406 -3.578125 9.359375 -3.328125 C 8.984375 -2.953125 8.609375 -2.539062 8.195312 -2.164062 C 7.570312 -1.582031 4.078125 1.707031 3.621094 -0.414062 C 3.371094 -1.457031 3.703125 -2.746094 3.910156 -3.742188 C 4.035156 -4.285156 4.160156 -4.785156 4.242188 -5.324219 C 4.328125 -5.742188 4.203125 -6.15625 4.410156 -6.574219 C 4.535156 -6.824219 4.574219 -6.78125 4.867188 -6.863281 L 5.574219 -7.113281 C 6.03125 -7.28125 6.488281 -7.445312 6.90625 -7.695312 C 7.53125 -8.070312 8.113281 -8.527344 8.652344 -8.984375 C 9.941406 -10.066406 11.316406 -11.355469 11.855469 -12.980469 C 12.148438 -13.894531 12.1875 -14.894531 11.605469 -15.683594 C 11.066406 -16.390625 10.152344 -16.765625 9.320312 -16.929688 C 7.070312 -17.347656 5.367188 -16.058594 4.078125 -14.351562 C 2.496094 -12.398438 1.371094 -9.984375 0.832031 -7.53125 C 0.539062 -6.324219 0.375 -5.117188 0.167969 -3.867188 C -0.0429688 -2.621094 -0.167969 -1.457031 0.5 -0.292969 C 0.457031 -0.707031 0.375 -1.082031 0.375 -1.457031 C 0.375 -1.664062 0.457031 -1.871094 0.457031 -2.039062 C 0.457031 -2.121094 0.375 -2.371094 0.375 -2.496094 C 0.375 -2.871094 0.457031 -3.160156 0.539062 -3.535156 C 0.582031 -3.910156 0.539062 -4.285156 0.582031 -4.660156 C 0.625 -5.074219 0.789062 -5.40625 0.957031 -5.78125 C 1.082031 -6.113281 1.125 -6.40625 1.246094 -6.738281 C 1.371094 -7.03125 1.457031 -7.363281 1.582031 -7.695312 C 1.621094 -7.902344 1.832031 -8.152344 1.957031 -8.402344 C 1.832031 -8.027344 1.582031 -7.695312 1.496094 -7.363281 C 1.371094 -6.863281 1.457031 -6.324219 1.414062 -5.824219 C 1.332031 -5.285156 1.164062 -4.742188 1.082031 -4.160156 C 1 -3.621094 0.75 -3.121094 0.664062 -2.578125 C 0.582031 -2.078125 0.414062 -1.707031 0.457031 -1.207031 C 0.457031 -0.914062 0.5 -0.625 0.539062 -0.375 C 0.582031 -0.0429688 0.789062 0.167969 1 0.414062 C 1.707031 1.246094 2.664062 1.914062 3.742188 2.203125 C 4.492188 2.414062 5.160156 2.371094 5.867188 1.996094 C 6.863281 1.457031 7.738281 0.625 8.488281 -0.167969 C 9.195312 -0.957031 9.734375 -1.832031 10.359375 -2.664062 C 10.941406 -3.410156 11.648438 -4.117188 12.230469 -4.867188 L 14.476562 -7.777344 L 15.765625 -9.484375 C 15.972656 -9.734375 16.097656 -9.941406 15.933594 -10.273438 Z M 5.617188 -9.816406 C 5.65625 -9.902344 5.65625 -9.941406 5.65625 -9.941406 C 6.28125 -11.273438 6.738281 -12.6875 7.613281 -13.976562 L 8.363281 -14.976562 C 8.527344 -15.183594 8.820312 -15.558594 9.109375 -15.640625 C 9.734375 -15.765625 9.902344 -14.683594 9.859375 -14.269531 L 9.691406 -13.394531 C 9.652344 -13.144531 9.734375 -12.980469 9.691406 -12.769531 C 9.609375 -12.523438 9.402344 -12.398438 9.277344 -12.1875 L 8.570312 -11.273438 C 7.613281 -10.152344 6.40625 -9.195312 5.074219 -8.488281 C 5.285156 -8.945312 5.40625 -9.402344 5.617188 -9.816406 Z M 5.617188 -9.816406 "/></g></g></g></svg>